M48
; DRILL file {KiCad (5.1.2-1)-1} date 2019 August 09, Friday 15:44:52
; FORMAT={-:-/ absolute / inch / decimal}
; #@! TF.CreationDate,2019-08-09T15:44:52+02:00
; #@! TF.GenerationSoftware,Kicad,Pcbnew,(5.1.2-1)-1
; #@! TF.FileFunction,Plated,1,2,PTH
FMAT,2
INCH
T1C0.0236
T2C0.0315
T3C0.0394
T4C0.0472
T5C0.1181
%
G90
G05
T1
X5.415Y-2.89
X5.415Y-3.06
X6.48Y-2.639
X6.48Y-2.831
T2
X7.0Y-3.29
X7.0Y-3.64
X7.125Y-2.69
X7.125Y-2.79
X7.14Y-3.29
X7.14Y-3.64
X5.805Y-2.85
X5.805Y-3.2
X5.68Y-2.4
X5.68Y-2.75
X5.89Y-3.375
X6.09Y-3.375
X6.28Y-3.415
X6.63Y-3.415
X6.165Y-2.845
X6.165Y-3.195
X4.3Y-3.06
X4.5Y-3.06
X6.365Y-2.33
X6.44Y-2.255
X6.515Y-2.33
X6.725Y-2.72
X7.025Y-2.72
X6.35Y-2.155
X6.65Y-2.155
X7.125Y-3.09
X7.125Y-3.19
X5.925Y-2.4
X5.925Y-2.75
X6.35Y-1.24
X6.65Y-1.24
X4.875Y-2.69
X4.875Y-2.84
X4.95Y-2.765
X4.63Y-2.945
X4.98Y-2.945
X5.25Y-2.5
X5.25Y-2.6
X5.25Y-2.7
X5.25Y-2.8
X5.25Y-2.9
X5.25Y-3.0
X5.25Y-3.1
X5.55Y-2.5
X5.55Y-2.6
X5.55Y-2.7
X5.55Y-2.8
X5.55Y-2.9
X5.55Y-3.0
X5.55Y-3.1
X5.094Y-3.001
X5.094Y-3.201
X6.97Y-2.845
X6.97Y-3.145
X7.125Y-2.49
X7.125Y-2.59
X4.7Y-2.59
X4.9Y-2.59
X5.675Y-3.3
X5.675Y-3.65
X5.125Y-2.4
X5.125Y-2.75
X6.28Y-3.54
X6.63Y-3.54
X6.875Y-3.29
X6.875Y-3.64
X6.305Y-2.635
X6.305Y-2.735
X6.305Y-2.835
X6.305Y-2.935
X6.305Y-3.035
X6.305Y-3.135
X6.305Y-3.235
X6.605Y-2.635
X6.605Y-2.735
X6.605Y-2.835
X6.605Y-2.935
X6.605Y-3.035
X6.605Y-3.135
X6.605Y-3.235
X4.71Y-3.05
X4.91Y-3.05
X6.045Y-2.87
X6.045Y-3.17
X6.625Y-2.33
X6.7Y-2.255
X6.7Y-2.405
X5.82Y-3.54
X6.17Y-3.54
X6.84Y-2.845
X6.84Y-3.145
X5.68Y-2.85
X5.68Y-3.2
X4.625Y-2.39
X4.975Y-2.39
X6.045Y-2.4
X6.045Y-2.75
X6.165Y-2.45
X6.165Y-2.65
X4.63Y-3.155
X4.98Y-3.155
X6.78Y-2.105
X7.08Y-2.105
X5.925Y-2.87
X5.925Y-3.17
X4.394Y-3.34
X4.594Y-3.34
X7.125Y-2.89
X7.125Y-2.99
X6.75Y-3.29
X6.75Y-3.64
X6.84Y-2.23
X6.84Y-2.43
X6.345Y-2.445
X6.545Y-2.445
X4.675Y-2.69
X4.675Y-2.84
X4.75Y-2.765
X4.3Y-3.165
X4.5Y-3.165
X6.77Y-2.545
X6.845Y-2.62
X6.92Y-2.545
X4.845Y-3.33
X4.845Y-3.63
X4.945Y-3.33
X4.945Y-3.63
X5.045Y-3.33
X5.045Y-3.63
X5.145Y-3.33
X5.145Y-3.63
X5.245Y-3.33
X5.245Y-3.63
X5.345Y-3.33
X5.345Y-3.63
X5.445Y-3.33
X5.445Y-3.63
X5.545Y-3.33
X5.545Y-3.63
X4.625Y-2.49
X4.975Y-2.49
X5.805Y-2.45
X5.805Y-2.65
T3
X6.5Y-1.39
X6.5Y-1.59
X4.375Y-2.29
X4.375Y-2.49
X4.475Y-2.39
X6.785Y-1.265
X6.785Y-1.465
X6.785Y-1.665
X6.785Y-1.965
X7.085Y-1.265
X7.085Y-1.465
X7.085Y-1.665
X7.085Y-1.965
X6.5Y-1.8
X6.5Y-2.0
X6.96Y-2.315
X7.16Y-2.315
T4
X7.375Y-2.14
X7.375Y-2.34
X4.775Y-1.315
X4.775Y-2.215
X7.375Y-1.54
X7.375Y-1.74
X7.375Y-1.94
X5.225Y-1.365
X5.425Y-2.165
X5.825Y-2.165
X6.025Y-1.365
X6.025Y-2.165
X4.375Y-2.69
X4.375Y-2.89
X4.375Y-2.29
X4.375Y-2.49
X4.375Y-1.575
X4.375Y-1.775
X7.375Y-2.54
X7.375Y-2.74
X7.375Y-2.94
X7.375Y-3.14
X7.375Y-3.34
T5
X7.4Y-1.29
X4.36Y-1.29
X4.36Y-3.59
X7.4Y-3.59
T0
M30
