G04 #@! TF.FileFunction,Legend,Top*
%FSLAX46Y46*%
G04 Gerber Fmt 4.6, Leading zero omitted, Abs format (unit mm)*
G04 Created by KiCad (PCBNEW 4.0.2-stable) date 2018 December 30, Sunday 20:54:40*
%MOMM*%
G01*
G04 APERTURE LIST*
%ADD10C,0.150000*%
%ADD11C,0.400000*%
%ADD12C,0.200000*%
%ADD13C,0.304800*%
%ADD14C,0.381000*%
%ADD15C,0.380000*%
%ADD16C,0.300000*%
%ADD17C,0.203200*%
%ADD18C,0.250000*%
G04 APERTURE END LIST*
D10*
D11*
X164592000Y-72136000D02*
X164592000Y-66573400D01*
D12*
X137541000Y-77978000D02*
X137668000Y-77978000D01*
D11*
X137541000Y-73025000D02*
X137541000Y-77978000D01*
D10*
X163703000Y-35306000D02*
X162941000Y-35306000D01*
X163322000Y-34925000D02*
X163322000Y-35687000D01*
D13*
X169545000Y-37846000D02*
G75*
G03X169545000Y-37846000I-4445000J0D01*
G01*
X174752000Y-55626000D02*
X174752000Y-62738000D01*
X174752000Y-62738000D02*
X172720000Y-62738000D01*
X172720000Y-62738000D02*
X172720000Y-55626000D01*
X172720000Y-55626000D02*
X174752000Y-55626000D01*
X174244000Y-55626000D02*
X174752000Y-56134000D01*
X155702000Y-86741000D02*
X148590000Y-86741000D01*
X148590000Y-86741000D02*
X148590000Y-84709000D01*
X148590000Y-84709000D02*
X155702000Y-84709000D01*
X155702000Y-84709000D02*
X155702000Y-86741000D01*
X155702000Y-86233000D02*
X155194000Y-86741000D01*
D10*
X163703000Y-45720000D02*
X162941000Y-45720000D01*
X163322000Y-45339000D02*
X163322000Y-46101000D01*
D13*
X169545000Y-48260000D02*
G75*
G03X169545000Y-48260000I-4445000J0D01*
G01*
X167259000Y-63119000D02*
X160147000Y-63119000D01*
X160147000Y-63119000D02*
X160147000Y-61087000D01*
X160147000Y-61087000D02*
X167259000Y-61087000D01*
X167259000Y-61087000D02*
X167259000Y-63119000D01*
X167259000Y-62611000D02*
X166751000Y-63119000D01*
X128371600Y-82321400D02*
X128371600Y-75209400D01*
X128371600Y-75209400D02*
X130403600Y-75209400D01*
X130403600Y-75209400D02*
X130403600Y-82321400D01*
X130403600Y-82321400D02*
X128371600Y-82321400D01*
X128879600Y-82321400D02*
X128371600Y-81813400D01*
X118618000Y-76454000D02*
X125730000Y-76454000D01*
X125730000Y-76454000D02*
X125730000Y-78486000D01*
X125730000Y-78486000D02*
X118618000Y-78486000D01*
X118618000Y-78486000D02*
X118618000Y-76454000D01*
X118618000Y-76962000D02*
X119126000Y-76454000D01*
X115316000Y-81407000D02*
X108204000Y-81407000D01*
X108204000Y-81407000D02*
X108204000Y-79375000D01*
X108204000Y-79375000D02*
X115316000Y-79375000D01*
X115316000Y-79375000D02*
X115316000Y-81407000D01*
X115316000Y-80899000D02*
X114808000Y-81407000D01*
X115316000Y-78740000D02*
X108204000Y-78740000D01*
X108204000Y-78740000D02*
X108204000Y-76708000D01*
X108204000Y-76708000D02*
X115316000Y-76708000D01*
X115316000Y-76708000D02*
X115316000Y-78740000D01*
X115316000Y-78232000D02*
X114808000Y-78740000D01*
X125476000Y-66802000D02*
X118364000Y-66802000D01*
X118364000Y-66802000D02*
X118364000Y-64770000D01*
X118364000Y-64770000D02*
X125476000Y-64770000D01*
X125476000Y-64770000D02*
X125476000Y-66802000D01*
X125476000Y-66294000D02*
X124968000Y-66802000D01*
X155575000Y-68326000D02*
X155575000Y-61214000D01*
X155575000Y-61214000D02*
X157607000Y-61214000D01*
X157607000Y-61214000D02*
X157607000Y-68326000D01*
X157607000Y-68326000D02*
X155575000Y-68326000D01*
X156083000Y-68326000D02*
X155575000Y-67818000D01*
X146431000Y-68326000D02*
X146431000Y-61214000D01*
X146431000Y-61214000D02*
X148463000Y-61214000D01*
X148463000Y-61214000D02*
X148463000Y-68326000D01*
X148463000Y-68326000D02*
X146431000Y-68326000D01*
X146939000Y-68326000D02*
X146431000Y-67818000D01*
X168910000Y-31496000D02*
X168148000Y-31496000D01*
X168148000Y-31496000D02*
X168148000Y-30480000D01*
X168148000Y-30480000D02*
X162052000Y-30480000D01*
X162052000Y-30480000D02*
X162052000Y-31496000D01*
X162052000Y-31496000D02*
X161290000Y-31496000D01*
X162052000Y-31496000D02*
X162052000Y-32512000D01*
X162052000Y-32512000D02*
X168148000Y-32512000D01*
X168148000Y-32512000D02*
X168148000Y-31496000D01*
X167640000Y-30480000D02*
X167640000Y-32512000D01*
X167386000Y-32512000D02*
X167386000Y-30480000D01*
X173609000Y-53721000D02*
X174371000Y-53721000D01*
X174371000Y-53721000D02*
X174371000Y-54737000D01*
X174371000Y-54737000D02*
X180467000Y-54737000D01*
X180467000Y-54737000D02*
X180467000Y-53721000D01*
X180467000Y-53721000D02*
X181229000Y-53721000D01*
X180467000Y-53721000D02*
X180467000Y-52705000D01*
X180467000Y-52705000D02*
X174371000Y-52705000D01*
X174371000Y-52705000D02*
X174371000Y-53721000D01*
X174879000Y-54737000D02*
X174879000Y-52705000D01*
X175133000Y-52705000D02*
X175133000Y-54737000D01*
X177038000Y-72263000D02*
X177038000Y-73025000D01*
X177038000Y-73025000D02*
X176022000Y-73025000D01*
X176022000Y-73025000D02*
X176022000Y-79121000D01*
X176022000Y-79121000D02*
X177038000Y-79121000D01*
X177038000Y-79121000D02*
X177038000Y-79883000D01*
X177038000Y-79121000D02*
X178054000Y-79121000D01*
X178054000Y-79121000D02*
X178054000Y-73025000D01*
X178054000Y-73025000D02*
X177038000Y-73025000D01*
X176022000Y-73533000D02*
X178054000Y-73533000D01*
X178054000Y-73787000D02*
X176022000Y-73787000D01*
X125095000Y-58801000D02*
X125095000Y-30861000D01*
X117475000Y-58801000D02*
X117475000Y-30861000D01*
X117475000Y-30861000D02*
X125095000Y-30861000D01*
X125095000Y-58801000D02*
X117475000Y-58801000D01*
X181229000Y-30861000D02*
X171069000Y-30861000D01*
X171069000Y-30861000D02*
X171069000Y-51181000D01*
X171069000Y-51181000D02*
X181229000Y-51181000D01*
X181229000Y-51181000D02*
X181229000Y-30861000D01*
X107315000Y-47625000D02*
X114935000Y-47625000D01*
X114935000Y-47625000D02*
X114935000Y-37465000D01*
X114935000Y-37465000D02*
X107315000Y-37465000D01*
X107315000Y-37465000D02*
X107315000Y-47625000D01*
X183515000Y-51816000D02*
X191135000Y-51816000D01*
X191135000Y-51816000D02*
X191135000Y-36576000D01*
X191135000Y-36576000D02*
X183515000Y-36576000D01*
X183515000Y-36576000D02*
X183515000Y-51816000D01*
X183515000Y-61976000D02*
X191135000Y-61976000D01*
X191135000Y-61976000D02*
X191135000Y-51816000D01*
X191135000Y-51816000D02*
X183515000Y-51816000D01*
X183515000Y-51816000D02*
X183515000Y-61976000D01*
X107315000Y-75946000D02*
X114935000Y-75946000D01*
X114935000Y-75946000D02*
X114935000Y-65786000D01*
X114935000Y-65786000D02*
X107315000Y-65786000D01*
X107315000Y-65786000D02*
X107315000Y-75946000D01*
X183515000Y-77216000D02*
X191135000Y-77216000D01*
X191135000Y-77216000D02*
X191135000Y-61976000D01*
X191135000Y-61976000D02*
X183515000Y-61976000D01*
X183515000Y-61976000D02*
X183515000Y-77216000D01*
X114935000Y-55626000D02*
X107315000Y-55626000D01*
X107315000Y-55626000D02*
X107315000Y-65786000D01*
X107315000Y-65786000D02*
X114935000Y-65786000D01*
X114935000Y-65786000D02*
X114935000Y-55626000D01*
X183515000Y-87376000D02*
X191135000Y-87376000D01*
X191135000Y-87376000D02*
X191135000Y-77216000D01*
X191135000Y-77216000D02*
X183515000Y-77216000D01*
X183515000Y-77216000D02*
X183515000Y-87376000D01*
X118110000Y-71247000D02*
X119253000Y-71247000D01*
X119253000Y-71247000D02*
X119761000Y-70739000D01*
X119761000Y-70739000D02*
X119761000Y-69723000D01*
X119761000Y-69723000D02*
X119253000Y-69215000D01*
X119253000Y-69215000D02*
X118110000Y-69215000D01*
X118110000Y-69215000D02*
X118110000Y-71247000D01*
X118745000Y-68326000D02*
X118745000Y-69215000D01*
X118745000Y-72136000D02*
X118745000Y-71247000D01*
X120650000Y-70231000D02*
X119761000Y-70231000D01*
X170815000Y-58166000D02*
X169672000Y-58166000D01*
X169672000Y-58166000D02*
X169164000Y-58674000D01*
X169164000Y-58674000D02*
X169164000Y-59690000D01*
X169164000Y-59690000D02*
X169672000Y-60198000D01*
X169672000Y-60198000D02*
X170815000Y-60198000D01*
X170815000Y-60198000D02*
X170815000Y-58166000D01*
X170180000Y-61087000D02*
X170180000Y-60198000D01*
X170180000Y-57277000D02*
X170180000Y-58166000D01*
X168275000Y-59182000D02*
X169164000Y-59182000D01*
X164592000Y-59817000D02*
X164592000Y-58674000D01*
X164592000Y-58674000D02*
X164084000Y-58166000D01*
X164084000Y-58166000D02*
X163068000Y-58166000D01*
X163068000Y-58166000D02*
X162560000Y-58674000D01*
X162560000Y-58674000D02*
X162560000Y-59817000D01*
X162560000Y-59817000D02*
X164592000Y-59817000D01*
X161671000Y-59182000D02*
X162560000Y-59182000D01*
X165481000Y-59182000D02*
X164592000Y-59182000D01*
X163576000Y-57277000D02*
X163576000Y-58166000D01*
D14*
X142113000Y-90932000D02*
X121793000Y-90932000D01*
X142113000Y-85852000D02*
X121793000Y-85852000D01*
X121793000Y-90932000D02*
X121793000Y-85852000D01*
X121793000Y-87122000D02*
X123063000Y-87122000D01*
X123063000Y-87122000D02*
X123063000Y-89662000D01*
X123063000Y-89662000D02*
X121793000Y-89662000D01*
X142113000Y-85852000D02*
X142113000Y-90932000D01*
D15*
X119227600Y-86741000D02*
X109067600Y-86741000D01*
X109067600Y-82931000D02*
X119227600Y-82931000D01*
D14*
X108432600Y-86106000D02*
X108432600Y-83566000D01*
X119862600Y-83566000D02*
X119862600Y-86106000D01*
X119227600Y-86741000D02*
G75*
G03X119862600Y-86106000I0J635000D01*
G01*
X119862600Y-83566000D02*
G75*
G03X119227600Y-82931000I-635000J0D01*
G01*
X108432600Y-86106000D02*
G75*
G03X109067600Y-86741000I635000J0D01*
G01*
X109067600Y-82931000D02*
G75*
G03X108432600Y-83566000I0J-635000D01*
G01*
D16*
X148844000Y-88900000D02*
X155702000Y-88900000D01*
X148844000Y-90932000D02*
X155702000Y-90932000D01*
D10*
X155702000Y-90932000D02*
X148844000Y-90932000D01*
D13*
X147828000Y-89916000D02*
X148844000Y-89916000D01*
D16*
X148844000Y-89916000D02*
X148844000Y-88900000D01*
X155702000Y-88900000D02*
X155702000Y-90932000D01*
X148844000Y-90932000D02*
X148844000Y-89916000D01*
D13*
X148844000Y-89408000D02*
X149352000Y-88900000D01*
X156718000Y-89916000D02*
X155702000Y-89916000D01*
D16*
X160528000Y-88900000D02*
X167386000Y-88900000D01*
X160528000Y-90932000D02*
X167386000Y-90932000D01*
D10*
X167386000Y-90932000D02*
X160528000Y-90932000D01*
D13*
X159512000Y-89916000D02*
X160528000Y-89916000D01*
D16*
X160528000Y-89916000D02*
X160528000Y-88900000D01*
X167386000Y-88900000D02*
X167386000Y-90932000D01*
X160528000Y-90932000D02*
X160528000Y-89916000D01*
D13*
X160528000Y-89408000D02*
X161036000Y-88900000D01*
X168402000Y-89916000D02*
X167386000Y-89916000D01*
D16*
X160528000Y-85725000D02*
X167386000Y-85725000D01*
X160528000Y-87757000D02*
X167386000Y-87757000D01*
D10*
X167386000Y-87757000D02*
X160528000Y-87757000D01*
D13*
X159512000Y-86741000D02*
X160528000Y-86741000D01*
D16*
X160528000Y-86741000D02*
X160528000Y-85725000D01*
X167386000Y-85725000D02*
X167386000Y-87757000D01*
X160528000Y-87757000D02*
X160528000Y-86741000D01*
D13*
X160528000Y-86233000D02*
X161036000Y-85725000D01*
X168402000Y-86741000D02*
X167386000Y-86741000D01*
D16*
X172466000Y-84582000D02*
X172466000Y-91440000D01*
X170434000Y-84582000D02*
X170434000Y-91440000D01*
D10*
X170434000Y-91440000D02*
X170434000Y-84582000D01*
D13*
X171450000Y-83566000D02*
X171450000Y-84582000D01*
D16*
X171450000Y-84582000D02*
X172466000Y-84582000D01*
X172466000Y-91440000D02*
X170434000Y-91440000D01*
X170434000Y-84582000D02*
X171450000Y-84582000D01*
D13*
X171958000Y-84582000D02*
X172466000Y-85090000D01*
X171450000Y-92456000D02*
X171450000Y-91440000D01*
D16*
X173609000Y-91440000D02*
X173609000Y-84582000D01*
X175641000Y-91440000D02*
X175641000Y-84582000D01*
D10*
X175641000Y-84582000D02*
X175641000Y-91440000D01*
D13*
X174625000Y-92456000D02*
X174625000Y-91440000D01*
D16*
X174625000Y-91440000D02*
X173609000Y-91440000D01*
X173609000Y-84582000D02*
X175641000Y-84582000D01*
X175641000Y-91440000D02*
X174625000Y-91440000D01*
D13*
X174117000Y-91440000D02*
X173609000Y-90932000D01*
X174625000Y-83566000D02*
X174625000Y-84582000D01*
D16*
X157607000Y-73279000D02*
X157607000Y-80137000D01*
X155575000Y-73279000D02*
X155575000Y-80137000D01*
D10*
X155575000Y-80137000D02*
X155575000Y-73279000D01*
D13*
X156591000Y-72263000D02*
X156591000Y-73279000D01*
D16*
X156591000Y-73279000D02*
X157607000Y-73279000D01*
X157607000Y-80137000D02*
X155575000Y-80137000D01*
X155575000Y-73279000D02*
X156591000Y-73279000D01*
D13*
X157099000Y-73279000D02*
X157607000Y-73787000D01*
X156591000Y-81153000D02*
X156591000Y-80137000D01*
D16*
X125476000Y-81153000D02*
X118618000Y-81153000D01*
X125476000Y-79121000D02*
X118618000Y-79121000D01*
D10*
X118618000Y-79121000D02*
X125476000Y-79121000D01*
D13*
X126492000Y-80137000D02*
X125476000Y-80137000D01*
D16*
X125476000Y-80137000D02*
X125476000Y-81153000D01*
X118618000Y-81153000D02*
X118618000Y-79121000D01*
X125476000Y-79121000D02*
X125476000Y-80137000D01*
D13*
X125476000Y-80645000D02*
X124968000Y-81153000D01*
X117602000Y-80137000D02*
X118618000Y-80137000D01*
D16*
X143129000Y-91694000D02*
X143129000Y-84836000D01*
X145161000Y-91694000D02*
X145161000Y-84836000D01*
D10*
X145161000Y-84836000D02*
X145161000Y-91694000D01*
D13*
X144145000Y-92710000D02*
X144145000Y-91694000D01*
D16*
X144145000Y-91694000D02*
X143129000Y-91694000D01*
X143129000Y-84836000D02*
X145161000Y-84836000D01*
X145161000Y-91694000D02*
X144145000Y-91694000D01*
D13*
X143637000Y-91694000D02*
X143129000Y-91186000D01*
X144145000Y-83820000D02*
X144145000Y-84836000D01*
D16*
X180340000Y-91440000D02*
X180340000Y-84582000D01*
X182372000Y-91440000D02*
X182372000Y-84582000D01*
D10*
X182372000Y-84582000D02*
X182372000Y-91440000D01*
D13*
X181356000Y-92456000D02*
X181356000Y-91440000D01*
D16*
X181356000Y-91440000D02*
X180340000Y-91440000D01*
X180340000Y-84582000D02*
X182372000Y-84582000D01*
X182372000Y-91440000D02*
X181356000Y-91440000D01*
D13*
X180848000Y-91440000D02*
X180340000Y-90932000D01*
X181356000Y-83566000D02*
X181356000Y-84582000D01*
D16*
X148463000Y-73406000D02*
X148463000Y-80264000D01*
X146431000Y-73406000D02*
X146431000Y-80264000D01*
D10*
X146431000Y-80264000D02*
X146431000Y-73406000D01*
D13*
X147447000Y-72390000D02*
X147447000Y-73406000D01*
D16*
X147447000Y-73406000D02*
X148463000Y-73406000D01*
X148463000Y-80264000D02*
X146431000Y-80264000D01*
X146431000Y-73406000D02*
X147447000Y-73406000D01*
D13*
X147955000Y-73406000D02*
X148463000Y-73914000D01*
X147447000Y-81280000D02*
X147447000Y-80264000D01*
D16*
X118491000Y-59690000D02*
X125349000Y-59690000D01*
X118491000Y-61722000D02*
X125349000Y-61722000D01*
D10*
X125349000Y-61722000D02*
X118491000Y-61722000D01*
D13*
X117475000Y-60706000D02*
X118491000Y-60706000D01*
D16*
X118491000Y-60706000D02*
X118491000Y-59690000D01*
X125349000Y-59690000D02*
X125349000Y-61722000D01*
X118491000Y-61722000D02*
X118491000Y-60706000D01*
D13*
X118491000Y-60198000D02*
X118999000Y-59690000D01*
X126365000Y-60706000D02*
X125349000Y-60706000D01*
D16*
X125476000Y-75819000D02*
X118618000Y-75819000D01*
X125476000Y-73787000D02*
X118618000Y-73787000D01*
D10*
X118618000Y-73787000D02*
X125476000Y-73787000D01*
D13*
X126492000Y-74803000D02*
X125476000Y-74803000D01*
D16*
X125476000Y-74803000D02*
X125476000Y-75819000D01*
X118618000Y-75819000D02*
X118618000Y-73787000D01*
X125476000Y-73787000D02*
X125476000Y-74803000D01*
D13*
X125476000Y-75311000D02*
X124968000Y-75819000D01*
X117602000Y-74803000D02*
X118618000Y-74803000D01*
D16*
X118491000Y-62230000D02*
X125349000Y-62230000D01*
X118491000Y-64262000D02*
X125349000Y-64262000D01*
D10*
X125349000Y-64262000D02*
X118491000Y-64262000D01*
D13*
X117475000Y-63246000D02*
X118491000Y-63246000D01*
D16*
X118491000Y-63246000D02*
X118491000Y-62230000D01*
X125349000Y-62230000D02*
X125349000Y-64262000D01*
X118491000Y-64262000D02*
X118491000Y-63246000D01*
D13*
X118491000Y-62738000D02*
X118999000Y-62230000D01*
X126365000Y-63246000D02*
X125349000Y-63246000D01*
D16*
X154559000Y-61976000D02*
X154559000Y-68834000D01*
X152527000Y-61976000D02*
X152527000Y-68834000D01*
D10*
X152527000Y-68834000D02*
X152527000Y-61976000D01*
D13*
X153543000Y-60960000D02*
X153543000Y-61976000D01*
D16*
X153543000Y-61976000D02*
X154559000Y-61976000D01*
X154559000Y-68834000D02*
X152527000Y-68834000D01*
X152527000Y-61976000D02*
X153543000Y-61976000D01*
D13*
X154051000Y-61976000D02*
X154559000Y-62484000D01*
X153543000Y-69850000D02*
X153543000Y-68834000D01*
D16*
X131191000Y-61976000D02*
X131191000Y-68834000D01*
X129159000Y-61976000D02*
X129159000Y-68834000D01*
D10*
X129159000Y-68834000D02*
X129159000Y-61976000D01*
D13*
X130175000Y-60960000D02*
X130175000Y-61976000D01*
D16*
X130175000Y-61976000D02*
X131191000Y-61976000D01*
X131191000Y-68834000D02*
X129159000Y-68834000D01*
X129159000Y-61976000D02*
X130175000Y-61976000D01*
D13*
X130683000Y-61976000D02*
X131191000Y-62484000D01*
X130175000Y-69850000D02*
X130175000Y-68834000D01*
D16*
X145288000Y-61976000D02*
X145288000Y-68834000D01*
X143256000Y-61976000D02*
X143256000Y-68834000D01*
D10*
X143256000Y-68834000D02*
X143256000Y-61976000D01*
D13*
X144272000Y-60960000D02*
X144272000Y-61976000D01*
D16*
X144272000Y-61976000D02*
X145288000Y-61976000D01*
X145288000Y-68834000D02*
X143256000Y-68834000D01*
X143256000Y-61976000D02*
X144272000Y-61976000D01*
D13*
X144780000Y-61976000D02*
X145288000Y-62484000D01*
X144272000Y-69850000D02*
X144272000Y-68834000D01*
D10*
X180340000Y-58420000D02*
X180340000Y-59182000D01*
X179959000Y-58801000D02*
X180721000Y-58801000D01*
D13*
X182324000Y-58801000D02*
G75*
G03X182324000Y-58801000I-3000000J0D01*
G01*
X161290000Y-54737000D02*
X162052000Y-54737000D01*
X162052000Y-54737000D02*
X162052000Y-55753000D01*
X162052000Y-55753000D02*
X168148000Y-55753000D01*
X168148000Y-55753000D02*
X168148000Y-54737000D01*
X168148000Y-54737000D02*
X168910000Y-54737000D01*
X168148000Y-54737000D02*
X168148000Y-53721000D01*
X168148000Y-53721000D02*
X162052000Y-53721000D01*
X162052000Y-53721000D02*
X162052000Y-54737000D01*
X162560000Y-55753000D02*
X162560000Y-53721000D01*
X162814000Y-53721000D02*
X162814000Y-55753000D01*
X182245000Y-76200000D02*
X182753000Y-76200000D01*
X182499000Y-76454000D02*
X182499000Y-75946000D01*
X182282545Y-74676000D02*
G75*
G03X182282545Y-74676000I-1307545J0D01*
G01*
X182245000Y-66040000D02*
X182753000Y-66040000D01*
X182499000Y-66294000D02*
X182499000Y-65786000D01*
X182282545Y-64516000D02*
G75*
G03X182282545Y-64516000I-1307545J0D01*
G01*
X182245000Y-71120000D02*
X182753000Y-71120000D01*
X182499000Y-71374000D02*
X182499000Y-70866000D01*
X182282545Y-69596000D02*
G75*
G03X182282545Y-69596000I-1307545J0D01*
G01*
X153543000Y-72898000D02*
X153543000Y-73660000D01*
X153543000Y-73660000D02*
X152527000Y-73660000D01*
X152527000Y-73660000D02*
X152527000Y-79756000D01*
X152527000Y-79756000D02*
X153543000Y-79756000D01*
X153543000Y-79756000D02*
X153543000Y-80518000D01*
X153543000Y-79756000D02*
X154559000Y-79756000D01*
X154559000Y-79756000D02*
X154559000Y-73660000D01*
X154559000Y-73660000D02*
X153543000Y-73660000D01*
X152527000Y-74168000D02*
X154559000Y-74168000D01*
X154559000Y-74422000D02*
X152527000Y-74422000D01*
X182245000Y-81280000D02*
X182753000Y-81280000D01*
X182499000Y-81534000D02*
X182499000Y-81026000D01*
X182282545Y-79756000D02*
G75*
G03X182282545Y-79756000I-1307545J0D01*
G01*
X150495000Y-80518000D02*
X150495000Y-79756000D01*
X150495000Y-79756000D02*
X151511000Y-79756000D01*
X151511000Y-79756000D02*
X151511000Y-73660000D01*
X151511000Y-73660000D02*
X150495000Y-73660000D01*
X150495000Y-73660000D02*
X150495000Y-72898000D01*
X150495000Y-73660000D02*
X149479000Y-73660000D01*
X149479000Y-73660000D02*
X149479000Y-79756000D01*
X149479000Y-79756000D02*
X150495000Y-79756000D01*
X151511000Y-79248000D02*
X149479000Y-79248000D01*
X149479000Y-78994000D02*
X151511000Y-78994000D01*
X123190000Y-71247000D02*
X124333000Y-71247000D01*
X124333000Y-71247000D02*
X124841000Y-70739000D01*
X124841000Y-70739000D02*
X124841000Y-69723000D01*
X124841000Y-69723000D02*
X124333000Y-69215000D01*
X124333000Y-69215000D02*
X123190000Y-69215000D01*
X123190000Y-69215000D02*
X123190000Y-71247000D01*
X123825000Y-68326000D02*
X123825000Y-69215000D01*
X123825000Y-72136000D02*
X123825000Y-71247000D01*
X125730000Y-70231000D02*
X124841000Y-70231000D01*
D16*
X176784000Y-91440000D02*
X176784000Y-84582000D01*
X178816000Y-91440000D02*
X178816000Y-84582000D01*
D10*
X178816000Y-84582000D02*
X178816000Y-91440000D01*
D13*
X177800000Y-92456000D02*
X177800000Y-91440000D01*
D16*
X177800000Y-91440000D02*
X176784000Y-91440000D01*
X176784000Y-84582000D02*
X178816000Y-84582000D01*
X178816000Y-91440000D02*
X177800000Y-91440000D01*
D13*
X177292000Y-91440000D02*
X176784000Y-90932000D01*
X177800000Y-83566000D02*
X177800000Y-84582000D01*
D16*
X145288000Y-73406000D02*
X145288000Y-80264000D01*
X143256000Y-73406000D02*
X143256000Y-80264000D01*
D10*
X143256000Y-80264000D02*
X143256000Y-73406000D01*
D13*
X144272000Y-72390000D02*
X144272000Y-73406000D01*
D16*
X144272000Y-73406000D02*
X145288000Y-73406000D01*
X145288000Y-80264000D02*
X143256000Y-80264000D01*
X143256000Y-73406000D02*
X144272000Y-73406000D01*
D13*
X144780000Y-73406000D02*
X145288000Y-73914000D01*
X144272000Y-81280000D02*
X144272000Y-80264000D01*
D16*
X151511000Y-61976000D02*
X151511000Y-68834000D01*
X149479000Y-61976000D02*
X149479000Y-68834000D01*
D10*
X149479000Y-68834000D02*
X149479000Y-61976000D01*
D13*
X150495000Y-60960000D02*
X150495000Y-61976000D01*
D16*
X150495000Y-61976000D02*
X151511000Y-61976000D01*
X151511000Y-68834000D02*
X149479000Y-68834000D01*
X149479000Y-61976000D02*
X150495000Y-61976000D01*
D13*
X151003000Y-61976000D02*
X151511000Y-62484000D01*
X150495000Y-69850000D02*
X150495000Y-68834000D01*
X172847000Y-64008000D02*
X172847000Y-65151000D01*
X172847000Y-65151000D02*
X173355000Y-65659000D01*
X173355000Y-65659000D02*
X174371000Y-65659000D01*
X174371000Y-65659000D02*
X174879000Y-65151000D01*
X174879000Y-65151000D02*
X174879000Y-64008000D01*
X174879000Y-64008000D02*
X172847000Y-64008000D01*
X175768000Y-64643000D02*
X174879000Y-64643000D01*
X171958000Y-64643000D02*
X172847000Y-64643000D01*
X173863000Y-66548000D02*
X173863000Y-65659000D01*
X173736000Y-72263000D02*
X173736000Y-73025000D01*
X173736000Y-73025000D02*
X172720000Y-73025000D01*
X172720000Y-73025000D02*
X172720000Y-79121000D01*
X172720000Y-79121000D02*
X173736000Y-79121000D01*
X173736000Y-79121000D02*
X173736000Y-79883000D01*
X173736000Y-79121000D02*
X174752000Y-79121000D01*
X174752000Y-79121000D02*
X174752000Y-73025000D01*
X174752000Y-73025000D02*
X173736000Y-73025000D01*
X172720000Y-78613000D02*
X174752000Y-78613000D01*
X174752000Y-78359000D02*
X172720000Y-78359000D01*
X170815000Y-69088000D02*
X171577000Y-69088000D01*
X171577000Y-69088000D02*
X171577000Y-70104000D01*
X171577000Y-70104000D02*
X177673000Y-70104000D01*
X177673000Y-70104000D02*
X177673000Y-69088000D01*
X177673000Y-69088000D02*
X178435000Y-69088000D01*
X177673000Y-69088000D02*
X177673000Y-68072000D01*
X177673000Y-68072000D02*
X171577000Y-68072000D01*
X171577000Y-68072000D02*
X171577000Y-69088000D01*
X177165000Y-70104000D02*
X177165000Y-68072000D01*
X176911000Y-68072000D02*
X176911000Y-70104000D01*
X113665000Y-56896000D02*
X111125000Y-56896000D01*
X111125000Y-56896000D02*
X111125000Y-64516000D01*
X111125000Y-64516000D02*
X113665000Y-64516000D01*
X113665000Y-64516000D02*
X113665000Y-56896000D01*
D14*
X166497000Y-65659000D02*
X166497000Y-83439000D01*
X161417000Y-83439000D02*
X161417000Y-65659000D01*
X161417000Y-65659000D02*
X166497000Y-65659000D01*
X165227000Y-65659000D02*
X165227000Y-66929000D01*
X165227000Y-66929000D02*
X162687000Y-66929000D01*
X162687000Y-66929000D02*
X162687000Y-65659000D01*
X166497000Y-83439000D02*
X161417000Y-83439000D01*
X139700000Y-62230000D02*
X139700000Y-80010000D01*
X134620000Y-80010000D02*
X134620000Y-62230000D01*
X134620000Y-62230000D02*
X139700000Y-62230000D01*
X138430000Y-62230000D02*
X138430000Y-63500000D01*
X138430000Y-63500000D02*
X135890000Y-63500000D01*
X135890000Y-63500000D02*
X135890000Y-62230000D01*
X139700000Y-80010000D02*
X134620000Y-80010000D01*
D13*
X126365000Y-30861000D02*
X159385000Y-30861000D01*
X126365000Y-58801000D02*
X159385000Y-58801000D01*
X126365000Y-30861000D02*
X126365000Y-58801000D01*
X159385000Y-58801000D02*
X159385000Y-30861000D01*
D17*
X164930667Y-38208857D02*
X164882286Y-38257238D01*
X164737143Y-38305619D01*
X164640381Y-38305619D01*
X164495239Y-38257238D01*
X164398477Y-38160476D01*
X164350096Y-38063714D01*
X164301715Y-37870190D01*
X164301715Y-37725048D01*
X164350096Y-37531524D01*
X164398477Y-37434762D01*
X164495239Y-37338000D01*
X164640381Y-37289619D01*
X164737143Y-37289619D01*
X164882286Y-37338000D01*
X164930667Y-37386381D01*
X165898286Y-38305619D02*
X165317715Y-38305619D01*
X165608001Y-38305619D02*
X165608001Y-37289619D01*
X165511239Y-37434762D01*
X165414477Y-37531524D01*
X165317715Y-37579905D01*
X174098857Y-59351333D02*
X174147238Y-59399714D01*
X174195619Y-59544857D01*
X174195619Y-59641619D01*
X174147238Y-59786761D01*
X174050476Y-59883523D01*
X173953714Y-59931904D01*
X173760190Y-59980285D01*
X173615048Y-59980285D01*
X173421524Y-59931904D01*
X173324762Y-59883523D01*
X173228000Y-59786761D01*
X173179619Y-59641619D01*
X173179619Y-59544857D01*
X173228000Y-59399714D01*
X173276381Y-59351333D01*
X173276381Y-58964285D02*
X173228000Y-58915904D01*
X173179619Y-58819142D01*
X173179619Y-58577238D01*
X173228000Y-58480476D01*
X173276381Y-58432095D01*
X173373143Y-58383714D01*
X173469905Y-58383714D01*
X173615048Y-58432095D01*
X174195619Y-59012666D01*
X174195619Y-58383714D01*
X151976667Y-86087857D02*
X151928286Y-86136238D01*
X151783143Y-86184619D01*
X151686381Y-86184619D01*
X151541239Y-86136238D01*
X151444477Y-86039476D01*
X151396096Y-85942714D01*
X151347715Y-85749190D01*
X151347715Y-85604048D01*
X151396096Y-85410524D01*
X151444477Y-85313762D01*
X151541239Y-85217000D01*
X151686381Y-85168619D01*
X151783143Y-85168619D01*
X151928286Y-85217000D01*
X151976667Y-85265381D01*
X152315334Y-85168619D02*
X152944286Y-85168619D01*
X152605620Y-85555667D01*
X152750762Y-85555667D01*
X152847524Y-85604048D01*
X152895905Y-85652429D01*
X152944286Y-85749190D01*
X152944286Y-85991095D01*
X152895905Y-86087857D01*
X152847524Y-86136238D01*
X152750762Y-86184619D01*
X152460477Y-86184619D01*
X152363715Y-86136238D01*
X152315334Y-86087857D01*
X164930667Y-48622857D02*
X164882286Y-48671238D01*
X164737143Y-48719619D01*
X164640381Y-48719619D01*
X164495239Y-48671238D01*
X164398477Y-48574476D01*
X164350096Y-48477714D01*
X164301715Y-48284190D01*
X164301715Y-48139048D01*
X164350096Y-47945524D01*
X164398477Y-47848762D01*
X164495239Y-47752000D01*
X164640381Y-47703619D01*
X164737143Y-47703619D01*
X164882286Y-47752000D01*
X164930667Y-47800381D01*
X165801524Y-48042286D02*
X165801524Y-48719619D01*
X165559620Y-47655238D02*
X165317715Y-48380952D01*
X165946667Y-48380952D01*
X163533667Y-62465857D02*
X163485286Y-62514238D01*
X163340143Y-62562619D01*
X163243381Y-62562619D01*
X163098239Y-62514238D01*
X163001477Y-62417476D01*
X162953096Y-62320714D01*
X162904715Y-62127190D01*
X162904715Y-61982048D01*
X162953096Y-61788524D01*
X163001477Y-61691762D01*
X163098239Y-61595000D01*
X163243381Y-61546619D01*
X163340143Y-61546619D01*
X163485286Y-61595000D01*
X163533667Y-61643381D01*
X164452905Y-61546619D02*
X163969096Y-61546619D01*
X163920715Y-62030429D01*
X163969096Y-61982048D01*
X164065858Y-61933667D01*
X164307762Y-61933667D01*
X164404524Y-61982048D01*
X164452905Y-62030429D01*
X164501286Y-62127190D01*
X164501286Y-62369095D01*
X164452905Y-62465857D01*
X164404524Y-62514238D01*
X164307762Y-62562619D01*
X164065858Y-62562619D01*
X163969096Y-62514238D01*
X163920715Y-62465857D01*
X129750457Y-78934733D02*
X129798838Y-78983114D01*
X129847219Y-79128257D01*
X129847219Y-79225019D01*
X129798838Y-79370161D01*
X129702076Y-79466923D01*
X129605314Y-79515304D01*
X129411790Y-79563685D01*
X129266648Y-79563685D01*
X129073124Y-79515304D01*
X128976362Y-79466923D01*
X128879600Y-79370161D01*
X128831219Y-79225019D01*
X128831219Y-79128257D01*
X128879600Y-78983114D01*
X128927981Y-78934733D01*
X128831219Y-78596066D02*
X128831219Y-77918733D01*
X129847219Y-78354161D01*
X122004667Y-77832857D02*
X121956286Y-77881238D01*
X121811143Y-77929619D01*
X121714381Y-77929619D01*
X121569239Y-77881238D01*
X121472477Y-77784476D01*
X121424096Y-77687714D01*
X121375715Y-77494190D01*
X121375715Y-77349048D01*
X121424096Y-77155524D01*
X121472477Y-77058762D01*
X121569239Y-76962000D01*
X121714381Y-76913619D01*
X121811143Y-76913619D01*
X121956286Y-76962000D01*
X122004667Y-77010381D01*
X122585239Y-77349048D02*
X122488477Y-77300667D01*
X122440096Y-77252286D01*
X122391715Y-77155524D01*
X122391715Y-77107143D01*
X122440096Y-77010381D01*
X122488477Y-76962000D01*
X122585239Y-76913619D01*
X122778762Y-76913619D01*
X122875524Y-76962000D01*
X122923905Y-77010381D01*
X122972286Y-77107143D01*
X122972286Y-77155524D01*
X122923905Y-77252286D01*
X122875524Y-77300667D01*
X122778762Y-77349048D01*
X122585239Y-77349048D01*
X122488477Y-77397429D01*
X122440096Y-77445810D01*
X122391715Y-77542571D01*
X122391715Y-77736095D01*
X122440096Y-77832857D01*
X122488477Y-77881238D01*
X122585239Y-77929619D01*
X122778762Y-77929619D01*
X122875524Y-77881238D01*
X122923905Y-77832857D01*
X122972286Y-77736095D01*
X122972286Y-77542571D01*
X122923905Y-77445810D01*
X122875524Y-77397429D01*
X122778762Y-77349048D01*
X111590667Y-80753857D02*
X111542286Y-80802238D01*
X111397143Y-80850619D01*
X111300381Y-80850619D01*
X111155239Y-80802238D01*
X111058477Y-80705476D01*
X111010096Y-80608714D01*
X110961715Y-80415190D01*
X110961715Y-80270048D01*
X111010096Y-80076524D01*
X111058477Y-79979762D01*
X111155239Y-79883000D01*
X111300381Y-79834619D01*
X111397143Y-79834619D01*
X111542286Y-79883000D01*
X111590667Y-79931381D01*
X112074477Y-80850619D02*
X112268001Y-80850619D01*
X112364762Y-80802238D01*
X112413143Y-80753857D01*
X112509905Y-80608714D01*
X112558286Y-80415190D01*
X112558286Y-80028143D01*
X112509905Y-79931381D01*
X112461524Y-79883000D01*
X112364762Y-79834619D01*
X112171239Y-79834619D01*
X112074477Y-79883000D01*
X112026096Y-79931381D01*
X111977715Y-80028143D01*
X111977715Y-80270048D01*
X112026096Y-80366810D01*
X112074477Y-80415190D01*
X112171239Y-80463571D01*
X112364762Y-80463571D01*
X112461524Y-80415190D01*
X112509905Y-80366810D01*
X112558286Y-80270048D01*
X111106857Y-78086857D02*
X111058476Y-78135238D01*
X110913333Y-78183619D01*
X110816571Y-78183619D01*
X110671429Y-78135238D01*
X110574667Y-78038476D01*
X110526286Y-77941714D01*
X110477905Y-77748190D01*
X110477905Y-77603048D01*
X110526286Y-77409524D01*
X110574667Y-77312762D01*
X110671429Y-77216000D01*
X110816571Y-77167619D01*
X110913333Y-77167619D01*
X111058476Y-77216000D01*
X111106857Y-77264381D01*
X112074476Y-78183619D02*
X111493905Y-78183619D01*
X111784191Y-78183619D02*
X111784191Y-77167619D01*
X111687429Y-77312762D01*
X111590667Y-77409524D01*
X111493905Y-77457905D01*
X112703429Y-77167619D02*
X112800190Y-77167619D01*
X112896952Y-77216000D01*
X112945333Y-77264381D01*
X112993714Y-77361143D01*
X113042095Y-77554667D01*
X113042095Y-77796571D01*
X112993714Y-77990095D01*
X112945333Y-78086857D01*
X112896952Y-78135238D01*
X112800190Y-78183619D01*
X112703429Y-78183619D01*
X112606667Y-78135238D01*
X112558286Y-78086857D01*
X112509905Y-77990095D01*
X112461524Y-77796571D01*
X112461524Y-77554667D01*
X112509905Y-77361143D01*
X112558286Y-77264381D01*
X112606667Y-77216000D01*
X112703429Y-77167619D01*
X121266857Y-66148857D02*
X121218476Y-66197238D01*
X121073333Y-66245619D01*
X120976571Y-66245619D01*
X120831429Y-66197238D01*
X120734667Y-66100476D01*
X120686286Y-66003714D01*
X120637905Y-65810190D01*
X120637905Y-65665048D01*
X120686286Y-65471524D01*
X120734667Y-65374762D01*
X120831429Y-65278000D01*
X120976571Y-65229619D01*
X121073333Y-65229619D01*
X121218476Y-65278000D01*
X121266857Y-65326381D01*
X122234476Y-66245619D02*
X121653905Y-66245619D01*
X121944191Y-66245619D02*
X121944191Y-65229619D01*
X121847429Y-65374762D01*
X121750667Y-65471524D01*
X121653905Y-65519905D01*
X123202095Y-66245619D02*
X122621524Y-66245619D01*
X122911810Y-66245619D02*
X122911810Y-65229619D01*
X122815048Y-65374762D01*
X122718286Y-65471524D01*
X122621524Y-65519905D01*
X156953857Y-65423143D02*
X157002238Y-65471524D01*
X157050619Y-65616667D01*
X157050619Y-65713429D01*
X157002238Y-65858571D01*
X156905476Y-65955333D01*
X156808714Y-66003714D01*
X156615190Y-66052095D01*
X156470048Y-66052095D01*
X156276524Y-66003714D01*
X156179762Y-65955333D01*
X156083000Y-65858571D01*
X156034619Y-65713429D01*
X156034619Y-65616667D01*
X156083000Y-65471524D01*
X156131381Y-65423143D01*
X157050619Y-64455524D02*
X157050619Y-65036095D01*
X157050619Y-64745809D02*
X156034619Y-64745809D01*
X156179762Y-64842571D01*
X156276524Y-64939333D01*
X156324905Y-65036095D01*
X156131381Y-64068476D02*
X156083000Y-64020095D01*
X156034619Y-63923333D01*
X156034619Y-63681429D01*
X156083000Y-63584667D01*
X156131381Y-63536286D01*
X156228143Y-63487905D01*
X156324905Y-63487905D01*
X156470048Y-63536286D01*
X157050619Y-64116857D01*
X157050619Y-63487905D01*
X147809857Y-65423143D02*
X147858238Y-65471524D01*
X147906619Y-65616667D01*
X147906619Y-65713429D01*
X147858238Y-65858571D01*
X147761476Y-65955333D01*
X147664714Y-66003714D01*
X147471190Y-66052095D01*
X147326048Y-66052095D01*
X147132524Y-66003714D01*
X147035762Y-65955333D01*
X146939000Y-65858571D01*
X146890619Y-65713429D01*
X146890619Y-65616667D01*
X146939000Y-65471524D01*
X146987381Y-65423143D01*
X147906619Y-64455524D02*
X147906619Y-65036095D01*
X147906619Y-64745809D02*
X146890619Y-64745809D01*
X147035762Y-64842571D01*
X147132524Y-64939333D01*
X147180905Y-65036095D01*
X146890619Y-64116857D02*
X146890619Y-63487905D01*
X147277667Y-63826571D01*
X147277667Y-63681429D01*
X147326048Y-63584667D01*
X147374429Y-63536286D01*
X147471190Y-63487905D01*
X147713095Y-63487905D01*
X147809857Y-63536286D01*
X147858238Y-63584667D01*
X147906619Y-63681429D01*
X147906619Y-63971714D01*
X147858238Y-64068476D01*
X147809857Y-64116857D01*
X164350096Y-31955619D02*
X164350096Y-30939619D01*
X164592001Y-30939619D01*
X164737143Y-30988000D01*
X164833905Y-31084762D01*
X164882286Y-31181524D01*
X164930667Y-31375048D01*
X164930667Y-31520190D01*
X164882286Y-31713714D01*
X164833905Y-31810476D01*
X164737143Y-31907238D01*
X164592001Y-31955619D01*
X164350096Y-31955619D01*
X165898286Y-31955619D02*
X165317715Y-31955619D01*
X165608001Y-31955619D02*
X165608001Y-30939619D01*
X165511239Y-31084762D01*
X165414477Y-31181524D01*
X165317715Y-31229905D01*
X176669096Y-54180619D02*
X176669096Y-53164619D01*
X176911001Y-53164619D01*
X177056143Y-53213000D01*
X177152905Y-53309762D01*
X177201286Y-53406524D01*
X177249667Y-53600048D01*
X177249667Y-53745190D01*
X177201286Y-53938714D01*
X177152905Y-54035476D01*
X177056143Y-54132238D01*
X176911001Y-54180619D01*
X176669096Y-54180619D01*
X177588334Y-53164619D02*
X178217286Y-53164619D01*
X177878620Y-53551667D01*
X178023762Y-53551667D01*
X178120524Y-53600048D01*
X178168905Y-53648429D01*
X178217286Y-53745190D01*
X178217286Y-53987095D01*
X178168905Y-54083857D01*
X178120524Y-54132238D01*
X178023762Y-54180619D01*
X177733477Y-54180619D01*
X177636715Y-54132238D01*
X177588334Y-54083857D01*
X177497619Y-76822904D02*
X176481619Y-76822904D01*
X176481619Y-76580999D01*
X176530000Y-76435857D01*
X176626762Y-76339095D01*
X176723524Y-76290714D01*
X176917048Y-76242333D01*
X177062190Y-76242333D01*
X177255714Y-76290714D01*
X177352476Y-76339095D01*
X177449238Y-76435857D01*
X177497619Y-76580999D01*
X177497619Y-76822904D01*
X176481619Y-75371476D02*
X176481619Y-75564999D01*
X176530000Y-75661761D01*
X176578381Y-75710142D01*
X176723524Y-75806904D01*
X176917048Y-75855285D01*
X177304095Y-75855285D01*
X177400857Y-75806904D01*
X177449238Y-75758523D01*
X177497619Y-75661761D01*
X177497619Y-75468238D01*
X177449238Y-75371476D01*
X177400857Y-75323095D01*
X177304095Y-75274714D01*
X177062190Y-75274714D01*
X176965429Y-75323095D01*
X176917048Y-75371476D01*
X176868667Y-75468238D01*
X176868667Y-75661761D01*
X176917048Y-75758523D01*
X176965429Y-75806904D01*
X177062190Y-75855285D01*
X120946333Y-44631429D02*
X120607667Y-44631429D01*
X120607667Y-45163619D02*
X120607667Y-44147619D01*
X121091476Y-44147619D01*
X122010714Y-45163619D02*
X121430143Y-45163619D01*
X121720429Y-45163619D02*
X121720429Y-44147619D01*
X121623667Y-44292762D01*
X121526905Y-44389524D01*
X121430143Y-44437905D01*
X175399096Y-39575619D02*
X175399096Y-38559619D01*
X175979667Y-39575619D02*
X175544239Y-38995048D01*
X175979667Y-38559619D02*
X175399096Y-39140190D01*
X176947286Y-39575619D02*
X176366715Y-39575619D01*
X176657001Y-39575619D02*
X176657001Y-38559619D01*
X176560239Y-38704762D01*
X176463477Y-38801524D01*
X176366715Y-38849905D01*
X110375096Y-43131619D02*
X110375096Y-42115619D01*
X110762143Y-42115619D01*
X110858905Y-42164000D01*
X110907286Y-42212381D01*
X110955667Y-42309143D01*
X110955667Y-42454286D01*
X110907286Y-42551048D01*
X110858905Y-42599429D01*
X110762143Y-42647810D01*
X110375096Y-42647810D01*
X111923286Y-43131619D02*
X111342715Y-43131619D01*
X111633001Y-43131619D02*
X111633001Y-42115619D01*
X111536239Y-42260762D01*
X111439477Y-42357524D01*
X111342715Y-42405905D01*
X186575096Y-47322619D02*
X186575096Y-46306619D01*
X186962143Y-46306619D01*
X187058905Y-46355000D01*
X187107286Y-46403381D01*
X187155667Y-46500143D01*
X187155667Y-46645286D01*
X187107286Y-46742048D01*
X187058905Y-46790429D01*
X186962143Y-46838810D01*
X186575096Y-46838810D01*
X187542715Y-46403381D02*
X187591096Y-46355000D01*
X187687858Y-46306619D01*
X187929762Y-46306619D01*
X188026524Y-46355000D01*
X188074905Y-46403381D01*
X188123286Y-46500143D01*
X188123286Y-46596905D01*
X188074905Y-46742048D01*
X187494334Y-47322619D01*
X188123286Y-47322619D01*
X186575096Y-57482619D02*
X186575096Y-56466619D01*
X186962143Y-56466619D01*
X187058905Y-56515000D01*
X187107286Y-56563381D01*
X187155667Y-56660143D01*
X187155667Y-56805286D01*
X187107286Y-56902048D01*
X187058905Y-56950429D01*
X186962143Y-56998810D01*
X186575096Y-56998810D01*
X187494334Y-56466619D02*
X188123286Y-56466619D01*
X187784620Y-56853667D01*
X187929762Y-56853667D01*
X188026524Y-56902048D01*
X188074905Y-56950429D01*
X188123286Y-57047190D01*
X188123286Y-57289095D01*
X188074905Y-57385857D01*
X188026524Y-57434238D01*
X187929762Y-57482619D01*
X187639477Y-57482619D01*
X187542715Y-57434238D01*
X187494334Y-57385857D01*
X110375096Y-71452619D02*
X110375096Y-70436619D01*
X110762143Y-70436619D01*
X110858905Y-70485000D01*
X110907286Y-70533381D01*
X110955667Y-70630143D01*
X110955667Y-70775286D01*
X110907286Y-70872048D01*
X110858905Y-70920429D01*
X110762143Y-70968810D01*
X110375096Y-70968810D01*
X111826524Y-70775286D02*
X111826524Y-71452619D01*
X111584620Y-70388238D02*
X111342715Y-71113952D01*
X111971667Y-71113952D01*
X186575096Y-72722619D02*
X186575096Y-71706619D01*
X186962143Y-71706619D01*
X187058905Y-71755000D01*
X187107286Y-71803381D01*
X187155667Y-71900143D01*
X187155667Y-72045286D01*
X187107286Y-72142048D01*
X187058905Y-72190429D01*
X186962143Y-72238810D01*
X186575096Y-72238810D01*
X188074905Y-71706619D02*
X187591096Y-71706619D01*
X187542715Y-72190429D01*
X187591096Y-72142048D01*
X187687858Y-72093667D01*
X187929762Y-72093667D01*
X188026524Y-72142048D01*
X188074905Y-72190429D01*
X188123286Y-72287190D01*
X188123286Y-72529095D01*
X188074905Y-72625857D01*
X188026524Y-72674238D01*
X187929762Y-72722619D01*
X187687858Y-72722619D01*
X187591096Y-72674238D01*
X187542715Y-72625857D01*
X108597096Y-61165619D02*
X108597096Y-60149619D01*
X108984143Y-60149619D01*
X109080905Y-60198000D01*
X109129286Y-60246381D01*
X109177667Y-60343143D01*
X109177667Y-60488286D01*
X109129286Y-60585048D01*
X109080905Y-60633429D01*
X108984143Y-60681810D01*
X108597096Y-60681810D01*
X110048524Y-60149619D02*
X109855001Y-60149619D01*
X109758239Y-60198000D01*
X109709858Y-60246381D01*
X109613096Y-60391524D01*
X109564715Y-60585048D01*
X109564715Y-60972095D01*
X109613096Y-61068857D01*
X109661477Y-61117238D01*
X109758239Y-61165619D01*
X109951762Y-61165619D01*
X110048524Y-61117238D01*
X110096905Y-61068857D01*
X110145286Y-60972095D01*
X110145286Y-60730190D01*
X110096905Y-60633429D01*
X110048524Y-60585048D01*
X109951762Y-60536667D01*
X109758239Y-60536667D01*
X109661477Y-60585048D01*
X109613096Y-60633429D01*
X109564715Y-60730190D01*
X186575096Y-82882619D02*
X186575096Y-81866619D01*
X186962143Y-81866619D01*
X187058905Y-81915000D01*
X187107286Y-81963381D01*
X187155667Y-82060143D01*
X187155667Y-82205286D01*
X187107286Y-82302048D01*
X187058905Y-82350429D01*
X186962143Y-82398810D01*
X186575096Y-82398810D01*
X187494334Y-81866619D02*
X188171667Y-81866619D01*
X187736239Y-82882619D01*
X120680238Y-69009381D02*
X120583476Y-68961000D01*
X120486714Y-68864238D01*
X120341571Y-68719095D01*
X120244810Y-68670714D01*
X120148048Y-68670714D01*
X120196429Y-68912619D02*
X120099667Y-68864238D01*
X120002905Y-68767476D01*
X119954524Y-68573952D01*
X119954524Y-68235286D01*
X120002905Y-68041762D01*
X120099667Y-67945000D01*
X120196429Y-67896619D01*
X120389952Y-67896619D01*
X120486714Y-67945000D01*
X120583476Y-68041762D01*
X120631857Y-68235286D01*
X120631857Y-68573952D01*
X120583476Y-68767476D01*
X120486714Y-68864238D01*
X120389952Y-68912619D01*
X120196429Y-68912619D01*
X121599476Y-68912619D02*
X121018905Y-68912619D01*
X121309191Y-68912619D02*
X121309191Y-67896619D01*
X121212429Y-68041762D01*
X121115667Y-68138524D01*
X121018905Y-68186905D01*
X167373905Y-56847619D02*
X167373905Y-57670095D01*
X167422286Y-57766857D01*
X167470667Y-57815238D01*
X167567429Y-57863619D01*
X167760952Y-57863619D01*
X167857714Y-57815238D01*
X167906095Y-57766857D01*
X167954476Y-57670095D01*
X167954476Y-56847619D01*
X168970476Y-57863619D02*
X168389905Y-57863619D01*
X168680191Y-57863619D02*
X168680191Y-56847619D01*
X168583429Y-56992762D01*
X168486667Y-57089524D01*
X168389905Y-57137905D01*
X160642905Y-56593619D02*
X160642905Y-57416095D01*
X160691286Y-57512857D01*
X160739667Y-57561238D01*
X160836429Y-57609619D01*
X161029952Y-57609619D01*
X161126714Y-57561238D01*
X161175095Y-57512857D01*
X161223476Y-57416095D01*
X161223476Y-56593619D01*
X161658905Y-56690381D02*
X161707286Y-56642000D01*
X161804048Y-56593619D01*
X162045952Y-56593619D01*
X162142714Y-56642000D01*
X162191095Y-56690381D01*
X162239476Y-56787143D01*
X162239476Y-56883905D01*
X162191095Y-57029048D01*
X161610524Y-57609619D01*
X162239476Y-57609619D01*
D18*
X123825095Y-87844381D02*
X123825095Y-88653905D01*
X123872714Y-88749143D01*
X123920333Y-88796762D01*
X124015571Y-88844381D01*
X124206048Y-88844381D01*
X124301286Y-88796762D01*
X124348905Y-88749143D01*
X124396524Y-88653905D01*
X124396524Y-87844381D01*
X125301286Y-88177714D02*
X125301286Y-88844381D01*
X125063190Y-87796762D02*
X124825095Y-88511048D01*
X125444143Y-88511048D01*
D17*
X113996410Y-85319809D02*
X114480219Y-85319809D01*
X113464219Y-85658476D02*
X113996410Y-85319809D01*
X113464219Y-84981143D01*
X114480219Y-84110286D02*
X114480219Y-84690857D01*
X114480219Y-84400571D02*
X113464219Y-84400571D01*
X113609362Y-84497333D01*
X113706124Y-84594095D01*
X113754505Y-84690857D01*
X152106334Y-90368381D02*
X151773000Y-89892190D01*
X151534905Y-90368381D02*
X151534905Y-89368381D01*
X151915858Y-89368381D01*
X152011096Y-89416000D01*
X152058715Y-89463619D01*
X152106334Y-89558857D01*
X152106334Y-89701714D01*
X152058715Y-89796952D01*
X152011096Y-89844571D01*
X151915858Y-89892190D01*
X151534905Y-89892190D01*
X153058715Y-90368381D02*
X152487286Y-90368381D01*
X152773000Y-90368381D02*
X152773000Y-89368381D01*
X152677762Y-89511238D01*
X152582524Y-89606476D01*
X152487286Y-89654095D01*
X163790334Y-90368381D02*
X163457000Y-89892190D01*
X163218905Y-90368381D02*
X163218905Y-89368381D01*
X163599858Y-89368381D01*
X163695096Y-89416000D01*
X163742715Y-89463619D01*
X163790334Y-89558857D01*
X163790334Y-89701714D01*
X163742715Y-89796952D01*
X163695096Y-89844571D01*
X163599858Y-89892190D01*
X163218905Y-89892190D01*
X164171286Y-89463619D02*
X164218905Y-89416000D01*
X164314143Y-89368381D01*
X164552239Y-89368381D01*
X164647477Y-89416000D01*
X164695096Y-89463619D01*
X164742715Y-89558857D01*
X164742715Y-89654095D01*
X164695096Y-89796952D01*
X164123667Y-90368381D01*
X164742715Y-90368381D01*
X163790334Y-87193381D02*
X163457000Y-86717190D01*
X163218905Y-87193381D02*
X163218905Y-86193381D01*
X163599858Y-86193381D01*
X163695096Y-86241000D01*
X163742715Y-86288619D01*
X163790334Y-86383857D01*
X163790334Y-86526714D01*
X163742715Y-86621952D01*
X163695096Y-86669571D01*
X163599858Y-86717190D01*
X163218905Y-86717190D01*
X164123667Y-86193381D02*
X164742715Y-86193381D01*
X164409381Y-86574333D01*
X164552239Y-86574333D01*
X164647477Y-86621952D01*
X164695096Y-86669571D01*
X164742715Y-86764810D01*
X164742715Y-87002905D01*
X164695096Y-87098143D01*
X164647477Y-87145762D01*
X164552239Y-87193381D01*
X164266524Y-87193381D01*
X164171286Y-87145762D01*
X164123667Y-87098143D01*
X171902381Y-88177666D02*
X171426190Y-88511000D01*
X171902381Y-88749095D02*
X170902381Y-88749095D01*
X170902381Y-88368142D01*
X170950000Y-88272904D01*
X170997619Y-88225285D01*
X171092857Y-88177666D01*
X171235714Y-88177666D01*
X171330952Y-88225285D01*
X171378571Y-88272904D01*
X171426190Y-88368142D01*
X171426190Y-88749095D01*
X171235714Y-87320523D02*
X171902381Y-87320523D01*
X170854762Y-87558619D02*
X171569048Y-87796714D01*
X171569048Y-87177666D01*
X175077381Y-88177666D02*
X174601190Y-88511000D01*
X175077381Y-88749095D02*
X174077381Y-88749095D01*
X174077381Y-88368142D01*
X174125000Y-88272904D01*
X174172619Y-88225285D01*
X174267857Y-88177666D01*
X174410714Y-88177666D01*
X174505952Y-88225285D01*
X174553571Y-88272904D01*
X174601190Y-88368142D01*
X174601190Y-88749095D01*
X174077381Y-87272904D02*
X174077381Y-87749095D01*
X174553571Y-87796714D01*
X174505952Y-87749095D01*
X174458333Y-87653857D01*
X174458333Y-87415761D01*
X174505952Y-87320523D01*
X174553571Y-87272904D01*
X174648810Y-87225285D01*
X174886905Y-87225285D01*
X174982143Y-87272904D01*
X175029762Y-87320523D01*
X175077381Y-87415761D01*
X175077381Y-87653857D01*
X175029762Y-87749095D01*
X174982143Y-87796714D01*
X157043381Y-76874666D02*
X156567190Y-77208000D01*
X157043381Y-77446095D02*
X156043381Y-77446095D01*
X156043381Y-77065142D01*
X156091000Y-76969904D01*
X156138619Y-76922285D01*
X156233857Y-76874666D01*
X156376714Y-76874666D01*
X156471952Y-76922285D01*
X156519571Y-76969904D01*
X156567190Y-77065142D01*
X156567190Y-77446095D01*
X156043381Y-76017523D02*
X156043381Y-76208000D01*
X156091000Y-76303238D01*
X156138619Y-76350857D01*
X156281476Y-76446095D01*
X156471952Y-76493714D01*
X156852905Y-76493714D01*
X156948143Y-76446095D01*
X156995762Y-76398476D01*
X157043381Y-76303238D01*
X157043381Y-76112761D01*
X156995762Y-76017523D01*
X156948143Y-75969904D01*
X156852905Y-75922285D01*
X156614810Y-75922285D01*
X156519571Y-75969904D01*
X156471952Y-76017523D01*
X156424333Y-76112761D01*
X156424333Y-76303238D01*
X156471952Y-76398476D01*
X156519571Y-76446095D01*
X156614810Y-76493714D01*
X121880334Y-80589381D02*
X121547000Y-80113190D01*
X121308905Y-80589381D02*
X121308905Y-79589381D01*
X121689858Y-79589381D01*
X121785096Y-79637000D01*
X121832715Y-79684619D01*
X121880334Y-79779857D01*
X121880334Y-79922714D01*
X121832715Y-80017952D01*
X121785096Y-80065571D01*
X121689858Y-80113190D01*
X121308905Y-80113190D01*
X122213667Y-79589381D02*
X122880334Y-79589381D01*
X122451762Y-80589381D01*
X144597381Y-88431666D02*
X144121190Y-88765000D01*
X144597381Y-89003095D02*
X143597381Y-89003095D01*
X143597381Y-88622142D01*
X143645000Y-88526904D01*
X143692619Y-88479285D01*
X143787857Y-88431666D01*
X143930714Y-88431666D01*
X144025952Y-88479285D01*
X144073571Y-88526904D01*
X144121190Y-88622142D01*
X144121190Y-89003095D01*
X144025952Y-87860238D02*
X143978333Y-87955476D01*
X143930714Y-88003095D01*
X143835476Y-88050714D01*
X143787857Y-88050714D01*
X143692619Y-88003095D01*
X143645000Y-87955476D01*
X143597381Y-87860238D01*
X143597381Y-87669761D01*
X143645000Y-87574523D01*
X143692619Y-87526904D01*
X143787857Y-87479285D01*
X143835476Y-87479285D01*
X143930714Y-87526904D01*
X143978333Y-87574523D01*
X144025952Y-87669761D01*
X144025952Y-87860238D01*
X144073571Y-87955476D01*
X144121190Y-88003095D01*
X144216429Y-88050714D01*
X144406905Y-88050714D01*
X144502143Y-88003095D01*
X144549762Y-87955476D01*
X144597381Y-87860238D01*
X144597381Y-87669761D01*
X144549762Y-87574523D01*
X144502143Y-87526904D01*
X144406905Y-87479285D01*
X144216429Y-87479285D01*
X144121190Y-87526904D01*
X144073571Y-87574523D01*
X144025952Y-87669761D01*
X181808381Y-88177666D02*
X181332190Y-88511000D01*
X181808381Y-88749095D02*
X180808381Y-88749095D01*
X180808381Y-88368142D01*
X180856000Y-88272904D01*
X180903619Y-88225285D01*
X180998857Y-88177666D01*
X181141714Y-88177666D01*
X181236952Y-88225285D01*
X181284571Y-88272904D01*
X181332190Y-88368142D01*
X181332190Y-88749095D01*
X181808381Y-87701476D02*
X181808381Y-87511000D01*
X181760762Y-87415761D01*
X181713143Y-87368142D01*
X181570286Y-87272904D01*
X181379810Y-87225285D01*
X180998857Y-87225285D01*
X180903619Y-87272904D01*
X180856000Y-87320523D01*
X180808381Y-87415761D01*
X180808381Y-87606238D01*
X180856000Y-87701476D01*
X180903619Y-87749095D01*
X180998857Y-87796714D01*
X181236952Y-87796714D01*
X181332190Y-87749095D01*
X181379810Y-87701476D01*
X181427429Y-87606238D01*
X181427429Y-87415761D01*
X181379810Y-87320523D01*
X181332190Y-87272904D01*
X181236952Y-87225285D01*
X147899381Y-77477857D02*
X147423190Y-77811191D01*
X147899381Y-78049286D02*
X146899381Y-78049286D01*
X146899381Y-77668333D01*
X146947000Y-77573095D01*
X146994619Y-77525476D01*
X147089857Y-77477857D01*
X147232714Y-77477857D01*
X147327952Y-77525476D01*
X147375571Y-77573095D01*
X147423190Y-77668333D01*
X147423190Y-78049286D01*
X147899381Y-76525476D02*
X147899381Y-77096905D01*
X147899381Y-76811191D02*
X146899381Y-76811191D01*
X147042238Y-76906429D01*
X147137476Y-77001667D01*
X147185095Y-77096905D01*
X146899381Y-75906429D02*
X146899381Y-75811190D01*
X146947000Y-75715952D01*
X146994619Y-75668333D01*
X147089857Y-75620714D01*
X147280333Y-75573095D01*
X147518429Y-75573095D01*
X147708905Y-75620714D01*
X147804143Y-75668333D01*
X147851762Y-75715952D01*
X147899381Y-75811190D01*
X147899381Y-75906429D01*
X147851762Y-76001667D01*
X147804143Y-76049286D01*
X147708905Y-76096905D01*
X147518429Y-76144524D01*
X147280333Y-76144524D01*
X147089857Y-76096905D01*
X146994619Y-76049286D01*
X146947000Y-76001667D01*
X146899381Y-75906429D01*
X121277143Y-61158381D02*
X120943809Y-60682190D01*
X120705714Y-61158381D02*
X120705714Y-60158381D01*
X121086667Y-60158381D01*
X121181905Y-60206000D01*
X121229524Y-60253619D01*
X121277143Y-60348857D01*
X121277143Y-60491714D01*
X121229524Y-60586952D01*
X121181905Y-60634571D01*
X121086667Y-60682190D01*
X120705714Y-60682190D01*
X122229524Y-61158381D02*
X121658095Y-61158381D01*
X121943809Y-61158381D02*
X121943809Y-60158381D01*
X121848571Y-60301238D01*
X121753333Y-60396476D01*
X121658095Y-60444095D01*
X123181905Y-61158381D02*
X122610476Y-61158381D01*
X122896190Y-61158381D02*
X122896190Y-60158381D01*
X122800952Y-60301238D01*
X122705714Y-60396476D01*
X122610476Y-60444095D01*
X121404143Y-75255381D02*
X121070809Y-74779190D01*
X120832714Y-75255381D02*
X120832714Y-74255381D01*
X121213667Y-74255381D01*
X121308905Y-74303000D01*
X121356524Y-74350619D01*
X121404143Y-74445857D01*
X121404143Y-74588714D01*
X121356524Y-74683952D01*
X121308905Y-74731571D01*
X121213667Y-74779190D01*
X120832714Y-74779190D01*
X122356524Y-75255381D02*
X121785095Y-75255381D01*
X122070809Y-75255381D02*
X122070809Y-74255381D01*
X121975571Y-74398238D01*
X121880333Y-74493476D01*
X121785095Y-74541095D01*
X122737476Y-74350619D02*
X122785095Y-74303000D01*
X122880333Y-74255381D01*
X123118429Y-74255381D01*
X123213667Y-74303000D01*
X123261286Y-74350619D01*
X123308905Y-74445857D01*
X123308905Y-74541095D01*
X123261286Y-74683952D01*
X122689857Y-75255381D01*
X123308905Y-75255381D01*
X121277143Y-63698381D02*
X120943809Y-63222190D01*
X120705714Y-63698381D02*
X120705714Y-62698381D01*
X121086667Y-62698381D01*
X121181905Y-62746000D01*
X121229524Y-62793619D01*
X121277143Y-62888857D01*
X121277143Y-63031714D01*
X121229524Y-63126952D01*
X121181905Y-63174571D01*
X121086667Y-63222190D01*
X120705714Y-63222190D01*
X122229524Y-63698381D02*
X121658095Y-63698381D01*
X121943809Y-63698381D02*
X121943809Y-62698381D01*
X121848571Y-62841238D01*
X121753333Y-62936476D01*
X121658095Y-62984095D01*
X122562857Y-62698381D02*
X123181905Y-62698381D01*
X122848571Y-63079333D01*
X122991429Y-63079333D01*
X123086667Y-63126952D01*
X123134286Y-63174571D01*
X123181905Y-63269810D01*
X123181905Y-63507905D01*
X123134286Y-63603143D01*
X123086667Y-63650762D01*
X122991429Y-63698381D01*
X122705714Y-63698381D01*
X122610476Y-63650762D01*
X122562857Y-63603143D01*
X153995381Y-66047857D02*
X153519190Y-66381191D01*
X153995381Y-66619286D02*
X152995381Y-66619286D01*
X152995381Y-66238333D01*
X153043000Y-66143095D01*
X153090619Y-66095476D01*
X153185857Y-66047857D01*
X153328714Y-66047857D01*
X153423952Y-66095476D01*
X153471571Y-66143095D01*
X153519190Y-66238333D01*
X153519190Y-66619286D01*
X153995381Y-65095476D02*
X153995381Y-65666905D01*
X153995381Y-65381191D02*
X152995381Y-65381191D01*
X153138238Y-65476429D01*
X153233476Y-65571667D01*
X153281095Y-65666905D01*
X153328714Y-64238333D02*
X153995381Y-64238333D01*
X152947762Y-64476429D02*
X153662048Y-64714524D01*
X153662048Y-64095476D01*
X130627381Y-66047857D02*
X130151190Y-66381191D01*
X130627381Y-66619286D02*
X129627381Y-66619286D01*
X129627381Y-66238333D01*
X129675000Y-66143095D01*
X129722619Y-66095476D01*
X129817857Y-66047857D01*
X129960714Y-66047857D01*
X130055952Y-66095476D01*
X130103571Y-66143095D01*
X130151190Y-66238333D01*
X130151190Y-66619286D01*
X130627381Y-65095476D02*
X130627381Y-65666905D01*
X130627381Y-65381191D02*
X129627381Y-65381191D01*
X129770238Y-65476429D01*
X129865476Y-65571667D01*
X129913095Y-65666905D01*
X129627381Y-64190714D02*
X129627381Y-64666905D01*
X130103571Y-64714524D01*
X130055952Y-64666905D01*
X130008333Y-64571667D01*
X130008333Y-64333571D01*
X130055952Y-64238333D01*
X130103571Y-64190714D01*
X130198810Y-64143095D01*
X130436905Y-64143095D01*
X130532143Y-64190714D01*
X130579762Y-64238333D01*
X130627381Y-64333571D01*
X130627381Y-64571667D01*
X130579762Y-64666905D01*
X130532143Y-64714524D01*
X144724381Y-66047857D02*
X144248190Y-66381191D01*
X144724381Y-66619286D02*
X143724381Y-66619286D01*
X143724381Y-66238333D01*
X143772000Y-66143095D01*
X143819619Y-66095476D01*
X143914857Y-66047857D01*
X144057714Y-66047857D01*
X144152952Y-66095476D01*
X144200571Y-66143095D01*
X144248190Y-66238333D01*
X144248190Y-66619286D01*
X144724381Y-65095476D02*
X144724381Y-65666905D01*
X144724381Y-65381191D02*
X143724381Y-65381191D01*
X143867238Y-65476429D01*
X143962476Y-65571667D01*
X144010095Y-65666905D01*
X143724381Y-64238333D02*
X143724381Y-64428810D01*
X143772000Y-64524048D01*
X143819619Y-64571667D01*
X143962476Y-64666905D01*
X144152952Y-64714524D01*
X144533905Y-64714524D01*
X144629143Y-64666905D01*
X144676762Y-64619286D01*
X144724381Y-64524048D01*
X144724381Y-64333571D01*
X144676762Y-64238333D01*
X144629143Y-64190714D01*
X144533905Y-64143095D01*
X144295810Y-64143095D01*
X144200571Y-64190714D01*
X144152952Y-64238333D01*
X144105333Y-64333571D01*
X144105333Y-64524048D01*
X144152952Y-64619286D01*
X144200571Y-64666905D01*
X144295810Y-64714524D01*
X179154667Y-60560857D02*
X179106286Y-60609238D01*
X178961143Y-60657619D01*
X178864381Y-60657619D01*
X178719239Y-60609238D01*
X178622477Y-60512476D01*
X178574096Y-60415714D01*
X178525715Y-60222190D01*
X178525715Y-60077048D01*
X178574096Y-59883524D01*
X178622477Y-59786762D01*
X178719239Y-59690000D01*
X178864381Y-59641619D01*
X178961143Y-59641619D01*
X179106286Y-59690000D01*
X179154667Y-59738381D01*
X180025524Y-59641619D02*
X179832001Y-59641619D01*
X179735239Y-59690000D01*
X179686858Y-59738381D01*
X179590096Y-59883524D01*
X179541715Y-60077048D01*
X179541715Y-60464095D01*
X179590096Y-60560857D01*
X179638477Y-60609238D01*
X179735239Y-60657619D01*
X179928762Y-60657619D01*
X180025524Y-60609238D01*
X180073905Y-60560857D01*
X180122286Y-60464095D01*
X180122286Y-60222190D01*
X180073905Y-60125429D01*
X180025524Y-60077048D01*
X179928762Y-60028667D01*
X179735239Y-60028667D01*
X179638477Y-60077048D01*
X179590096Y-60125429D01*
X179541715Y-60222190D01*
X164350096Y-55196619D02*
X164350096Y-54180619D01*
X164592001Y-54180619D01*
X164737143Y-54229000D01*
X164833905Y-54325762D01*
X164882286Y-54422524D01*
X164930667Y-54616048D01*
X164930667Y-54761190D01*
X164882286Y-54954714D01*
X164833905Y-55051476D01*
X164737143Y-55148238D01*
X164592001Y-55196619D01*
X164350096Y-55196619D01*
X165317715Y-54277381D02*
X165366096Y-54229000D01*
X165462858Y-54180619D01*
X165704762Y-54180619D01*
X165801524Y-54229000D01*
X165849905Y-54277381D01*
X165898286Y-54374143D01*
X165898286Y-54470905D01*
X165849905Y-54616048D01*
X165269334Y-55196619D01*
X165898286Y-55196619D01*
X178701096Y-73103619D02*
X178701096Y-72087619D01*
X178943001Y-72087619D01*
X179088143Y-72136000D01*
X179184905Y-72232762D01*
X179233286Y-72329524D01*
X179281667Y-72523048D01*
X179281667Y-72668190D01*
X179233286Y-72861714D01*
X179184905Y-72958476D01*
X179088143Y-73055238D01*
X178943001Y-73103619D01*
X178701096Y-73103619D01*
X179620334Y-72087619D02*
X180297667Y-72087619D01*
X179862239Y-73103619D01*
X178320096Y-63324619D02*
X178320096Y-62308619D01*
X178562001Y-62308619D01*
X178707143Y-62357000D01*
X178803905Y-62453762D01*
X178852286Y-62550524D01*
X178900667Y-62744048D01*
X178900667Y-62889190D01*
X178852286Y-63082714D01*
X178803905Y-63179476D01*
X178707143Y-63276238D01*
X178562001Y-63324619D01*
X178320096Y-63324619D01*
X179481239Y-62744048D02*
X179384477Y-62695667D01*
X179336096Y-62647286D01*
X179287715Y-62550524D01*
X179287715Y-62502143D01*
X179336096Y-62405381D01*
X179384477Y-62357000D01*
X179481239Y-62308619D01*
X179674762Y-62308619D01*
X179771524Y-62357000D01*
X179819905Y-62405381D01*
X179868286Y-62502143D01*
X179868286Y-62550524D01*
X179819905Y-62647286D01*
X179771524Y-62695667D01*
X179674762Y-62744048D01*
X179481239Y-62744048D01*
X179384477Y-62792429D01*
X179336096Y-62840810D01*
X179287715Y-62937571D01*
X179287715Y-63131095D01*
X179336096Y-63227857D01*
X179384477Y-63276238D01*
X179481239Y-63324619D01*
X179674762Y-63324619D01*
X179771524Y-63276238D01*
X179819905Y-63227857D01*
X179868286Y-63131095D01*
X179868286Y-62937571D01*
X179819905Y-62840810D01*
X179771524Y-62792429D01*
X179674762Y-62744048D01*
X178320096Y-67896619D02*
X178320096Y-66880619D01*
X178562001Y-66880619D01*
X178707143Y-66929000D01*
X178803905Y-67025762D01*
X178852286Y-67122524D01*
X178900667Y-67316048D01*
X178900667Y-67461190D01*
X178852286Y-67654714D01*
X178803905Y-67751476D01*
X178707143Y-67848238D01*
X178562001Y-67896619D01*
X178320096Y-67896619D01*
X179384477Y-67896619D02*
X179578001Y-67896619D01*
X179674762Y-67848238D01*
X179723143Y-67799857D01*
X179819905Y-67654714D01*
X179868286Y-67461190D01*
X179868286Y-67074143D01*
X179819905Y-66977381D01*
X179771524Y-66929000D01*
X179674762Y-66880619D01*
X179481239Y-66880619D01*
X179384477Y-66929000D01*
X179336096Y-66977381D01*
X179287715Y-67074143D01*
X179287715Y-67316048D01*
X179336096Y-67412810D01*
X179384477Y-67461190D01*
X179481239Y-67509571D01*
X179674762Y-67509571D01*
X179771524Y-67461190D01*
X179819905Y-67412810D01*
X179868286Y-67316048D01*
X154002619Y-77941714D02*
X152986619Y-77941714D01*
X152986619Y-77699809D01*
X153035000Y-77554667D01*
X153131762Y-77457905D01*
X153228524Y-77409524D01*
X153422048Y-77361143D01*
X153567190Y-77361143D01*
X153760714Y-77409524D01*
X153857476Y-77457905D01*
X153954238Y-77554667D01*
X154002619Y-77699809D01*
X154002619Y-77941714D01*
X154002619Y-76393524D02*
X154002619Y-76974095D01*
X154002619Y-76683809D02*
X152986619Y-76683809D01*
X153131762Y-76780571D01*
X153228524Y-76877333D01*
X153276905Y-76974095D01*
X152986619Y-75764571D02*
X152986619Y-75667810D01*
X153035000Y-75571048D01*
X153083381Y-75522667D01*
X153180143Y-75474286D01*
X153373667Y-75425905D01*
X153615571Y-75425905D01*
X153809095Y-75474286D01*
X153905857Y-75522667D01*
X153954238Y-75571048D01*
X154002619Y-75667810D01*
X154002619Y-75764571D01*
X153954238Y-75861333D01*
X153905857Y-75909714D01*
X153809095Y-75958095D01*
X153615571Y-76006476D01*
X153373667Y-76006476D01*
X153180143Y-75958095D01*
X153083381Y-75909714D01*
X153035000Y-75861333D01*
X152986619Y-75764571D01*
X177455286Y-81993619D02*
X177455286Y-80977619D01*
X177697191Y-80977619D01*
X177842333Y-81026000D01*
X177939095Y-81122762D01*
X177987476Y-81219524D01*
X178035857Y-81413048D01*
X178035857Y-81558190D01*
X177987476Y-81751714D01*
X177939095Y-81848476D01*
X177842333Y-81945238D01*
X177697191Y-81993619D01*
X177455286Y-81993619D01*
X179003476Y-81993619D02*
X178422905Y-81993619D01*
X178713191Y-81993619D02*
X178713191Y-80977619D01*
X178616429Y-81122762D01*
X178519667Y-81219524D01*
X178422905Y-81267905D01*
X179971095Y-81993619D02*
X179390524Y-81993619D01*
X179680810Y-81993619D02*
X179680810Y-80977619D01*
X179584048Y-81122762D01*
X179487286Y-81219524D01*
X179390524Y-81267905D01*
X150954619Y-77941714D02*
X149938619Y-77941714D01*
X149938619Y-77699809D01*
X149987000Y-77554667D01*
X150083762Y-77457905D01*
X150180524Y-77409524D01*
X150374048Y-77361143D01*
X150519190Y-77361143D01*
X150712714Y-77409524D01*
X150809476Y-77457905D01*
X150906238Y-77554667D01*
X150954619Y-77699809D01*
X150954619Y-77941714D01*
X150954619Y-76393524D02*
X150954619Y-76974095D01*
X150954619Y-76683809D02*
X149938619Y-76683809D01*
X150083762Y-76780571D01*
X150180524Y-76877333D01*
X150228905Y-76974095D01*
X150035381Y-76006476D02*
X149987000Y-75958095D01*
X149938619Y-75861333D01*
X149938619Y-75619429D01*
X149987000Y-75522667D01*
X150035381Y-75474286D01*
X150132143Y-75425905D01*
X150228905Y-75425905D01*
X150374048Y-75474286D01*
X150954619Y-76054857D01*
X150954619Y-75425905D01*
X126014238Y-69009381D02*
X125917476Y-68961000D01*
X125820714Y-68864238D01*
X125675571Y-68719095D01*
X125578810Y-68670714D01*
X125482048Y-68670714D01*
X125530429Y-68912619D02*
X125433667Y-68864238D01*
X125336905Y-68767476D01*
X125288524Y-68573952D01*
X125288524Y-68235286D01*
X125336905Y-68041762D01*
X125433667Y-67945000D01*
X125530429Y-67896619D01*
X125723952Y-67896619D01*
X125820714Y-67945000D01*
X125917476Y-68041762D01*
X125965857Y-68235286D01*
X125965857Y-68573952D01*
X125917476Y-68767476D01*
X125820714Y-68864238D01*
X125723952Y-68912619D01*
X125530429Y-68912619D01*
X126352905Y-67993381D02*
X126401286Y-67945000D01*
X126498048Y-67896619D01*
X126739952Y-67896619D01*
X126836714Y-67945000D01*
X126885095Y-67993381D01*
X126933476Y-68090143D01*
X126933476Y-68186905D01*
X126885095Y-68332048D01*
X126304524Y-68912619D01*
X126933476Y-68912619D01*
X178252381Y-88653857D02*
X177776190Y-88987191D01*
X178252381Y-89225286D02*
X177252381Y-89225286D01*
X177252381Y-88844333D01*
X177300000Y-88749095D01*
X177347619Y-88701476D01*
X177442857Y-88653857D01*
X177585714Y-88653857D01*
X177680952Y-88701476D01*
X177728571Y-88749095D01*
X177776190Y-88844333D01*
X177776190Y-89225286D01*
X178252381Y-87701476D02*
X178252381Y-88272905D01*
X178252381Y-87987191D02*
X177252381Y-87987191D01*
X177395238Y-88082429D01*
X177490476Y-88177667D01*
X177538095Y-88272905D01*
X177252381Y-87368143D02*
X177252381Y-86701476D01*
X178252381Y-87130048D01*
X144724381Y-77477857D02*
X144248190Y-77811191D01*
X144724381Y-78049286D02*
X143724381Y-78049286D01*
X143724381Y-77668333D01*
X143772000Y-77573095D01*
X143819619Y-77525476D01*
X143914857Y-77477857D01*
X144057714Y-77477857D01*
X144152952Y-77525476D01*
X144200571Y-77573095D01*
X144248190Y-77668333D01*
X144248190Y-78049286D01*
X144724381Y-76525476D02*
X144724381Y-77096905D01*
X144724381Y-76811191D02*
X143724381Y-76811191D01*
X143867238Y-76906429D01*
X143962476Y-77001667D01*
X144010095Y-77096905D01*
X144152952Y-75954048D02*
X144105333Y-76049286D01*
X144057714Y-76096905D01*
X143962476Y-76144524D01*
X143914857Y-76144524D01*
X143819619Y-76096905D01*
X143772000Y-76049286D01*
X143724381Y-75954048D01*
X143724381Y-75763571D01*
X143772000Y-75668333D01*
X143819619Y-75620714D01*
X143914857Y-75573095D01*
X143962476Y-75573095D01*
X144057714Y-75620714D01*
X144105333Y-75668333D01*
X144152952Y-75763571D01*
X144152952Y-75954048D01*
X144200571Y-76049286D01*
X144248190Y-76096905D01*
X144343429Y-76144524D01*
X144533905Y-76144524D01*
X144629143Y-76096905D01*
X144676762Y-76049286D01*
X144724381Y-75954048D01*
X144724381Y-75763571D01*
X144676762Y-75668333D01*
X144629143Y-75620714D01*
X144533905Y-75573095D01*
X144343429Y-75573095D01*
X144248190Y-75620714D01*
X144200571Y-75668333D01*
X144152952Y-75763571D01*
X150947381Y-66047857D02*
X150471190Y-66381191D01*
X150947381Y-66619286D02*
X149947381Y-66619286D01*
X149947381Y-66238333D01*
X149995000Y-66143095D01*
X150042619Y-66095476D01*
X150137857Y-66047857D01*
X150280714Y-66047857D01*
X150375952Y-66095476D01*
X150423571Y-66143095D01*
X150471190Y-66238333D01*
X150471190Y-66619286D01*
X150947381Y-65095476D02*
X150947381Y-65666905D01*
X150947381Y-65381191D02*
X149947381Y-65381191D01*
X150090238Y-65476429D01*
X150185476Y-65571667D01*
X150233095Y-65666905D01*
X150947381Y-64619286D02*
X150947381Y-64428810D01*
X150899762Y-64333571D01*
X150852143Y-64285952D01*
X150709286Y-64190714D01*
X150518810Y-64143095D01*
X150137857Y-64143095D01*
X150042619Y-64190714D01*
X149995000Y-64238333D01*
X149947381Y-64333571D01*
X149947381Y-64524048D01*
X149995000Y-64619286D01*
X150042619Y-64666905D01*
X150137857Y-64714524D01*
X150375952Y-64714524D01*
X150471190Y-64666905D01*
X150518810Y-64619286D01*
X150566429Y-64524048D01*
X150566429Y-64333571D01*
X150518810Y-64238333D01*
X150471190Y-64190714D01*
X150375952Y-64143095D01*
X171607238Y-67104381D02*
X171510476Y-67056000D01*
X171413714Y-66959238D01*
X171268571Y-66814095D01*
X171171810Y-66765714D01*
X171075048Y-66765714D01*
X171123429Y-67007619D02*
X171026667Y-66959238D01*
X170929905Y-66862476D01*
X170881524Y-66668952D01*
X170881524Y-66330286D01*
X170929905Y-66136762D01*
X171026667Y-66040000D01*
X171123429Y-65991619D01*
X171316952Y-65991619D01*
X171413714Y-66040000D01*
X171510476Y-66136762D01*
X171558857Y-66330286D01*
X171558857Y-66668952D01*
X171510476Y-66862476D01*
X171413714Y-66959238D01*
X171316952Y-67007619D01*
X171123429Y-67007619D01*
X171897524Y-65991619D02*
X172526476Y-65991619D01*
X172187810Y-66378667D01*
X172332952Y-66378667D01*
X172429714Y-66427048D01*
X172478095Y-66475429D01*
X172526476Y-66572190D01*
X172526476Y-66814095D01*
X172478095Y-66910857D01*
X172429714Y-66959238D01*
X172332952Y-67007619D01*
X172042667Y-67007619D01*
X171945905Y-66959238D01*
X171897524Y-66910857D01*
X174195619Y-76822904D02*
X173179619Y-76822904D01*
X173179619Y-76580999D01*
X173228000Y-76435857D01*
X173324762Y-76339095D01*
X173421524Y-76290714D01*
X173615048Y-76242333D01*
X173760190Y-76242333D01*
X173953714Y-76290714D01*
X174050476Y-76339095D01*
X174147238Y-76435857D01*
X174195619Y-76580999D01*
X174195619Y-76822904D01*
X173518286Y-75371476D02*
X174195619Y-75371476D01*
X173131238Y-75613380D02*
X173856952Y-75855285D01*
X173856952Y-75226333D01*
X173875096Y-69547619D02*
X173875096Y-68531619D01*
X174117001Y-68531619D01*
X174262143Y-68580000D01*
X174358905Y-68676762D01*
X174407286Y-68773524D01*
X174455667Y-68967048D01*
X174455667Y-69112190D01*
X174407286Y-69305714D01*
X174358905Y-69402476D01*
X174262143Y-69499238D01*
X174117001Y-69547619D01*
X173875096Y-69547619D01*
X175374905Y-68531619D02*
X174891096Y-68531619D01*
X174842715Y-69015429D01*
X174891096Y-68967048D01*
X174987858Y-68918667D01*
X175229762Y-68918667D01*
X175326524Y-68967048D01*
X175374905Y-69015429D01*
X175423286Y-69112190D01*
X175423286Y-69354095D01*
X175374905Y-69450857D01*
X175326524Y-69499238D01*
X175229762Y-69547619D01*
X174987858Y-69547619D01*
X174891096Y-69499238D01*
X174842715Y-69450857D01*
X112473619Y-61183762D02*
X111989810Y-61522428D01*
X112473619Y-61764333D02*
X111457619Y-61764333D01*
X111457619Y-61377286D01*
X111506000Y-61280524D01*
X111554381Y-61232143D01*
X111651143Y-61183762D01*
X111796286Y-61183762D01*
X111893048Y-61232143D01*
X111941429Y-61280524D01*
X111989810Y-61377286D01*
X111989810Y-61764333D01*
X111457619Y-60893476D02*
X112473619Y-60554809D01*
X111457619Y-60216143D01*
X112473619Y-59345286D02*
X112473619Y-59925857D01*
X112473619Y-59635571D02*
X111457619Y-59635571D01*
X111602762Y-59732333D01*
X111699524Y-59829095D01*
X111747905Y-59925857D01*
D18*
X163322095Y-76668381D02*
X163322095Y-77477905D01*
X163369714Y-77573143D01*
X163417333Y-77620762D01*
X163512571Y-77668381D01*
X163703048Y-77668381D01*
X163798286Y-77620762D01*
X163845905Y-77573143D01*
X163893524Y-77477905D01*
X163893524Y-76668381D01*
X164274476Y-76668381D02*
X164893524Y-76668381D01*
X164560190Y-77049333D01*
X164703048Y-77049333D01*
X164798286Y-77096952D01*
X164845905Y-77144571D01*
X164893524Y-77239810D01*
X164893524Y-77477905D01*
X164845905Y-77573143D01*
X164798286Y-77620762D01*
X164703048Y-77668381D01*
X164417333Y-77668381D01*
X164322095Y-77620762D01*
X164274476Y-77573143D01*
X136398095Y-65619381D02*
X136398095Y-66428905D01*
X136445714Y-66524143D01*
X136493333Y-66571762D01*
X136588571Y-66619381D01*
X136779048Y-66619381D01*
X136874286Y-66571762D01*
X136921905Y-66524143D01*
X136969524Y-66428905D01*
X136969524Y-65619381D01*
X137921905Y-65619381D02*
X137445714Y-65619381D01*
X137398095Y-66095571D01*
X137445714Y-66047952D01*
X137540952Y-66000333D01*
X137779048Y-66000333D01*
X137874286Y-66047952D01*
X137921905Y-66095571D01*
X137969524Y-66190810D01*
X137969524Y-66428905D01*
X137921905Y-66524143D01*
X137874286Y-66571762D01*
X137779048Y-66619381D01*
X137540952Y-66619381D01*
X137445714Y-66571762D01*
X137398095Y-66524143D01*
D17*
X142100905Y-50624619D02*
X142681476Y-50624619D01*
X142391191Y-51640619D02*
X142391191Y-50624619D01*
X143552333Y-51640619D02*
X142971762Y-51640619D01*
X143262048Y-51640619D02*
X143262048Y-50624619D01*
X143165286Y-50769762D01*
X143068524Y-50866524D01*
X142971762Y-50914905D01*
M02*
