G04 #@! TF.GenerationSoftware,KiCad,Pcbnew,(5.0.1-3-g963ef8bb5)*
G04 #@! TF.CreationDate,2019-01-03T16:06:43+01:00*
G04 #@! TF.ProjectId,AnalogEVSE,416E616C6F67455653452E6B69636164,1.6*
G04 #@! TF.SameCoordinates,Original*
G04 #@! TF.FileFunction,Legend,Top*
G04 #@! TF.FilePolarity,Positive*
%FSLAX46Y46*%
G04 Gerber Fmt 4.6, Leading zero omitted, Abs format (unit mm)*
G04 Created by KiCad (PCBNEW (5.0.1-3-g963ef8bb5)) date 2019 January 03, Thursday 16:06:43*
%MOMM*%
%LPD*%
G01*
G04 APERTURE LIST*
%ADD10C,0.400000*%
%ADD11C,0.200000*%
%ADD12C,0.150000*%
%ADD13C,0.304800*%
%ADD14C,0.381000*%
%ADD15C,0.380000*%
%ADD16C,0.300000*%
%ADD17C,0.203200*%
%ADD18C,0.250000*%
G04 APERTURE END LIST*
D10*
X164592000Y-72136000D02*
X164592000Y-66573400D01*
D11*
X137541000Y-77978000D02*
X137668000Y-77978000D01*
D10*
X137541000Y-73025000D02*
X137541000Y-77978000D01*
D12*
G04 #@! TO.C,C1*
X163703000Y-35306000D02*
X162941000Y-35306000D01*
X163322000Y-34925000D02*
X163322000Y-35687000D01*
D13*
X169545000Y-37846000D02*
G75*
G03X169545000Y-37846000I-4445000J0D01*
G01*
G04 #@! TO.C,C2*
X174752000Y-55626000D02*
X174752000Y-62738000D01*
X174752000Y-62738000D02*
X172720000Y-62738000D01*
X172720000Y-62738000D02*
X172720000Y-55626000D01*
X172720000Y-55626000D02*
X174752000Y-55626000D01*
X174244000Y-55626000D02*
X174752000Y-56134000D01*
G04 #@! TO.C,C3*
X155702000Y-86741000D02*
X148590000Y-86741000D01*
X148590000Y-86741000D02*
X148590000Y-84709000D01*
X148590000Y-84709000D02*
X155702000Y-84709000D01*
X155702000Y-84709000D02*
X155702000Y-86741000D01*
X155702000Y-86233000D02*
X155194000Y-86741000D01*
D12*
G04 #@! TO.C,C4*
X163703000Y-45720000D02*
X162941000Y-45720000D01*
X163322000Y-45339000D02*
X163322000Y-46101000D01*
D13*
X169545000Y-48260000D02*
G75*
G03X169545000Y-48260000I-4445000J0D01*
G01*
G04 #@! TO.C,C5*
X167259000Y-63119000D02*
X160147000Y-63119000D01*
X160147000Y-63119000D02*
X160147000Y-61087000D01*
X160147000Y-61087000D02*
X167259000Y-61087000D01*
X167259000Y-61087000D02*
X167259000Y-63119000D01*
X167259000Y-62611000D02*
X166751000Y-63119000D01*
G04 #@! TO.C,C7*
X128371600Y-82321400D02*
X128371600Y-75209400D01*
X128371600Y-75209400D02*
X130403600Y-75209400D01*
X130403600Y-75209400D02*
X130403600Y-82321400D01*
X130403600Y-82321400D02*
X128371600Y-82321400D01*
X128879600Y-82321400D02*
X128371600Y-81813400D01*
G04 #@! TO.C,C8*
X118618000Y-76454000D02*
X125730000Y-76454000D01*
X125730000Y-76454000D02*
X125730000Y-78486000D01*
X125730000Y-78486000D02*
X118618000Y-78486000D01*
X118618000Y-78486000D02*
X118618000Y-76454000D01*
X118618000Y-76962000D02*
X119126000Y-76454000D01*
G04 #@! TO.C,C9*
X115316000Y-81407000D02*
X108204000Y-81407000D01*
X108204000Y-81407000D02*
X108204000Y-79375000D01*
X108204000Y-79375000D02*
X115316000Y-79375000D01*
X115316000Y-79375000D02*
X115316000Y-81407000D01*
X115316000Y-80899000D02*
X114808000Y-81407000D01*
G04 #@! TO.C,C10*
X115316000Y-78740000D02*
X108204000Y-78740000D01*
X108204000Y-78740000D02*
X108204000Y-76708000D01*
X108204000Y-76708000D02*
X115316000Y-76708000D01*
X115316000Y-76708000D02*
X115316000Y-78740000D01*
X115316000Y-78232000D02*
X114808000Y-78740000D01*
G04 #@! TO.C,C11*
X125476000Y-66802000D02*
X118364000Y-66802000D01*
X118364000Y-66802000D02*
X118364000Y-64770000D01*
X118364000Y-64770000D02*
X125476000Y-64770000D01*
X125476000Y-64770000D02*
X125476000Y-66802000D01*
X125476000Y-66294000D02*
X124968000Y-66802000D01*
G04 #@! TO.C,C12*
X155575000Y-68326000D02*
X155575000Y-61214000D01*
X155575000Y-61214000D02*
X157607000Y-61214000D01*
X157607000Y-61214000D02*
X157607000Y-68326000D01*
X157607000Y-68326000D02*
X155575000Y-68326000D01*
X156083000Y-68326000D02*
X155575000Y-67818000D01*
G04 #@! TO.C,C13*
X146431000Y-68326000D02*
X146431000Y-61214000D01*
X146431000Y-61214000D02*
X148463000Y-61214000D01*
X148463000Y-61214000D02*
X148463000Y-68326000D01*
X148463000Y-68326000D02*
X146431000Y-68326000D01*
X146939000Y-68326000D02*
X146431000Y-67818000D01*
G04 #@! TO.C,D1*
X168910000Y-31496000D02*
X168148000Y-31496000D01*
X168148000Y-31496000D02*
X168148000Y-30480000D01*
X168148000Y-30480000D02*
X162052000Y-30480000D01*
X162052000Y-30480000D02*
X162052000Y-31496000D01*
X162052000Y-31496000D02*
X161290000Y-31496000D01*
X162052000Y-31496000D02*
X162052000Y-32512000D01*
X162052000Y-32512000D02*
X168148000Y-32512000D01*
X168148000Y-32512000D02*
X168148000Y-31496000D01*
X167640000Y-30480000D02*
X167640000Y-32512000D01*
X167386000Y-32512000D02*
X167386000Y-30480000D01*
G04 #@! TO.C,D3*
X173609000Y-53721000D02*
X174371000Y-53721000D01*
X174371000Y-53721000D02*
X174371000Y-54737000D01*
X174371000Y-54737000D02*
X180467000Y-54737000D01*
X180467000Y-54737000D02*
X180467000Y-53721000D01*
X180467000Y-53721000D02*
X181229000Y-53721000D01*
X180467000Y-53721000D02*
X180467000Y-52705000D01*
X180467000Y-52705000D02*
X174371000Y-52705000D01*
X174371000Y-52705000D02*
X174371000Y-53721000D01*
X174879000Y-54737000D02*
X174879000Y-52705000D01*
X175133000Y-52705000D02*
X175133000Y-54737000D01*
G04 #@! TO.C,D6*
X177038000Y-72263000D02*
X177038000Y-73025000D01*
X177038000Y-73025000D02*
X176022000Y-73025000D01*
X176022000Y-73025000D02*
X176022000Y-79121000D01*
X176022000Y-79121000D02*
X177038000Y-79121000D01*
X177038000Y-79121000D02*
X177038000Y-79883000D01*
X177038000Y-79121000D02*
X178054000Y-79121000D01*
X178054000Y-79121000D02*
X178054000Y-73025000D01*
X178054000Y-73025000D02*
X177038000Y-73025000D01*
X176022000Y-73533000D02*
X178054000Y-73533000D01*
X178054000Y-73787000D02*
X176022000Y-73787000D01*
G04 #@! TO.C,F1*
X125095000Y-58801000D02*
X125095000Y-30861000D01*
X117475000Y-58801000D02*
X117475000Y-30861000D01*
X117475000Y-30861000D02*
X125095000Y-30861000D01*
X125095000Y-58801000D02*
X117475000Y-58801000D01*
G04 #@! TO.C,K1*
X181229000Y-30861000D02*
X171069000Y-30861000D01*
X171069000Y-30861000D02*
X171069000Y-51181000D01*
X171069000Y-51181000D02*
X181229000Y-51181000D01*
X181229000Y-51181000D02*
X181229000Y-30861000D01*
G04 #@! TO.C,P1*
X107315000Y-47625000D02*
X114935000Y-47625000D01*
X114935000Y-47625000D02*
X114935000Y-37465000D01*
X114935000Y-37465000D02*
X107315000Y-37465000D01*
X107315000Y-37465000D02*
X107315000Y-47625000D01*
G04 #@! TO.C,P2*
X183515000Y-51816000D02*
X191135000Y-51816000D01*
X191135000Y-51816000D02*
X191135000Y-36576000D01*
X191135000Y-36576000D02*
X183515000Y-36576000D01*
X183515000Y-36576000D02*
X183515000Y-51816000D01*
G04 #@! TO.C,P3*
X183515000Y-61976000D02*
X191135000Y-61976000D01*
X191135000Y-61976000D02*
X191135000Y-51816000D01*
X191135000Y-51816000D02*
X183515000Y-51816000D01*
X183515000Y-51816000D02*
X183515000Y-61976000D01*
G04 #@! TO.C,P4*
X107315000Y-75946000D02*
X114935000Y-75946000D01*
X114935000Y-75946000D02*
X114935000Y-65786000D01*
X114935000Y-65786000D02*
X107315000Y-65786000D01*
X107315000Y-65786000D02*
X107315000Y-75946000D01*
G04 #@! TO.C,P5*
X183515000Y-77216000D02*
X191135000Y-77216000D01*
X191135000Y-77216000D02*
X191135000Y-61976000D01*
X191135000Y-61976000D02*
X183515000Y-61976000D01*
X183515000Y-61976000D02*
X183515000Y-77216000D01*
G04 #@! TO.C,P6*
X114935000Y-55626000D02*
X107315000Y-55626000D01*
X107315000Y-55626000D02*
X107315000Y-65786000D01*
X107315000Y-65786000D02*
X114935000Y-65786000D01*
X114935000Y-65786000D02*
X114935000Y-55626000D01*
G04 #@! TO.C,P7*
X183515000Y-87376000D02*
X191135000Y-87376000D01*
X191135000Y-87376000D02*
X191135000Y-77216000D01*
X191135000Y-77216000D02*
X183515000Y-77216000D01*
X183515000Y-77216000D02*
X183515000Y-87376000D01*
G04 #@! TO.C,Q1*
X118110000Y-71247000D02*
X119253000Y-71247000D01*
X119253000Y-71247000D02*
X119761000Y-70739000D01*
X119761000Y-70739000D02*
X119761000Y-69723000D01*
X119761000Y-69723000D02*
X119253000Y-69215000D01*
X119253000Y-69215000D02*
X118110000Y-69215000D01*
X118110000Y-69215000D02*
X118110000Y-71247000D01*
X118745000Y-68326000D02*
X118745000Y-69215000D01*
X118745000Y-72136000D02*
X118745000Y-71247000D01*
X120650000Y-70231000D02*
X119761000Y-70231000D01*
G04 #@! TO.C,U1*
X170815000Y-58166000D02*
X169672000Y-58166000D01*
X169672000Y-58166000D02*
X169164000Y-58674000D01*
X169164000Y-58674000D02*
X169164000Y-59690000D01*
X169164000Y-59690000D02*
X169672000Y-60198000D01*
X169672000Y-60198000D02*
X170815000Y-60198000D01*
X170815000Y-60198000D02*
X170815000Y-58166000D01*
X170180000Y-61087000D02*
X170180000Y-60198000D01*
X170180000Y-57277000D02*
X170180000Y-58166000D01*
X168275000Y-59182000D02*
X169164000Y-59182000D01*
G04 #@! TO.C,U2*
X164592000Y-59817000D02*
X164592000Y-58674000D01*
X164592000Y-58674000D02*
X164084000Y-58166000D01*
X164084000Y-58166000D02*
X163068000Y-58166000D01*
X163068000Y-58166000D02*
X162560000Y-58674000D01*
X162560000Y-58674000D02*
X162560000Y-59817000D01*
X162560000Y-59817000D02*
X164592000Y-59817000D01*
X161671000Y-59182000D02*
X162560000Y-59182000D01*
X165481000Y-59182000D02*
X164592000Y-59182000D01*
X163576000Y-57277000D02*
X163576000Y-58166000D01*
D14*
G04 #@! TO.C,U4*
X142113000Y-90932000D02*
X121793000Y-90932000D01*
X142113000Y-85852000D02*
X121793000Y-85852000D01*
X121793000Y-90932000D02*
X121793000Y-85852000D01*
X121793000Y-87122000D02*
X123063000Y-87122000D01*
X123063000Y-87122000D02*
X123063000Y-89662000D01*
X123063000Y-89662000D02*
X121793000Y-89662000D01*
X142113000Y-85852000D02*
X142113000Y-90932000D01*
D15*
G04 #@! TO.C,Y1*
X119227600Y-86741000D02*
X109067600Y-86741000D01*
X109067600Y-82931000D02*
X119227600Y-82931000D01*
D14*
X108432600Y-86106000D02*
X108432600Y-83566000D01*
X119862600Y-83566000D02*
X119862600Y-86106000D01*
X119227600Y-86741000D02*
G75*
G03X119862600Y-86106000I0J635000D01*
G01*
X119862600Y-83566000D02*
G75*
G03X119227600Y-82931000I-635000J0D01*
G01*
X108432600Y-86106000D02*
G75*
G03X109067600Y-86741000I635000J0D01*
G01*
X109067600Y-82931000D02*
G75*
G03X108432600Y-83566000I0J-635000D01*
G01*
D16*
G04 #@! TO.C,R1*
X148844000Y-88900000D02*
X155702000Y-88900000D01*
X148844000Y-90932000D02*
X155702000Y-90932000D01*
D12*
X155702000Y-90932000D02*
X148844000Y-90932000D01*
D13*
X147828000Y-89916000D02*
X148844000Y-89916000D01*
D16*
X148844000Y-89916000D02*
X148844000Y-88900000D01*
X155702000Y-88900000D02*
X155702000Y-90932000D01*
X148844000Y-90932000D02*
X148844000Y-89916000D01*
D13*
X148844000Y-89408000D02*
X149352000Y-88900000D01*
X156718000Y-89916000D02*
X155702000Y-89916000D01*
D16*
G04 #@! TO.C,R2*
X160528000Y-88900000D02*
X167386000Y-88900000D01*
X160528000Y-90932000D02*
X167386000Y-90932000D01*
D12*
X167386000Y-90932000D02*
X160528000Y-90932000D01*
D13*
X159512000Y-89916000D02*
X160528000Y-89916000D01*
D16*
X160528000Y-89916000D02*
X160528000Y-88900000D01*
X167386000Y-88900000D02*
X167386000Y-90932000D01*
X160528000Y-90932000D02*
X160528000Y-89916000D01*
D13*
X160528000Y-89408000D02*
X161036000Y-88900000D01*
X168402000Y-89916000D02*
X167386000Y-89916000D01*
D16*
G04 #@! TO.C,R3*
X160528000Y-85725000D02*
X167386000Y-85725000D01*
X160528000Y-87757000D02*
X167386000Y-87757000D01*
D12*
X167386000Y-87757000D02*
X160528000Y-87757000D01*
D13*
X159512000Y-86741000D02*
X160528000Y-86741000D01*
D16*
X160528000Y-86741000D02*
X160528000Y-85725000D01*
X167386000Y-85725000D02*
X167386000Y-87757000D01*
X160528000Y-87757000D02*
X160528000Y-86741000D01*
D13*
X160528000Y-86233000D02*
X161036000Y-85725000D01*
X168402000Y-86741000D02*
X167386000Y-86741000D01*
D16*
G04 #@! TO.C,R4*
X172466000Y-84582000D02*
X172466000Y-91440000D01*
X170434000Y-84582000D02*
X170434000Y-91440000D01*
D12*
X170434000Y-91440000D02*
X170434000Y-84582000D01*
D13*
X171450000Y-83566000D02*
X171450000Y-84582000D01*
D16*
X171450000Y-84582000D02*
X172466000Y-84582000D01*
X172466000Y-91440000D02*
X170434000Y-91440000D01*
X170434000Y-84582000D02*
X171450000Y-84582000D01*
D13*
X171958000Y-84582000D02*
X172466000Y-85090000D01*
X171450000Y-92456000D02*
X171450000Y-91440000D01*
D16*
G04 #@! TO.C,R5*
X173609000Y-91440000D02*
X173609000Y-84582000D01*
X175641000Y-91440000D02*
X175641000Y-84582000D01*
D12*
X175641000Y-84582000D02*
X175641000Y-91440000D01*
D13*
X174625000Y-92456000D02*
X174625000Y-91440000D01*
D16*
X174625000Y-91440000D02*
X173609000Y-91440000D01*
X173609000Y-84582000D02*
X175641000Y-84582000D01*
X175641000Y-91440000D02*
X174625000Y-91440000D01*
D13*
X174117000Y-91440000D02*
X173609000Y-90932000D01*
X174625000Y-83566000D02*
X174625000Y-84582000D01*
D16*
G04 #@! TO.C,R6*
X157607000Y-73279000D02*
X157607000Y-80137000D01*
X155575000Y-73279000D02*
X155575000Y-80137000D01*
D12*
X155575000Y-80137000D02*
X155575000Y-73279000D01*
D13*
X156591000Y-72263000D02*
X156591000Y-73279000D01*
D16*
X156591000Y-73279000D02*
X157607000Y-73279000D01*
X157607000Y-80137000D02*
X155575000Y-80137000D01*
X155575000Y-73279000D02*
X156591000Y-73279000D01*
D13*
X157099000Y-73279000D02*
X157607000Y-73787000D01*
X156591000Y-81153000D02*
X156591000Y-80137000D01*
D16*
G04 #@! TO.C,R7*
X125476000Y-81153000D02*
X118618000Y-81153000D01*
X125476000Y-79121000D02*
X118618000Y-79121000D01*
D12*
X118618000Y-79121000D02*
X125476000Y-79121000D01*
D13*
X126492000Y-80137000D02*
X125476000Y-80137000D01*
D16*
X125476000Y-80137000D02*
X125476000Y-81153000D01*
X118618000Y-81153000D02*
X118618000Y-79121000D01*
X125476000Y-79121000D02*
X125476000Y-80137000D01*
D13*
X125476000Y-80645000D02*
X124968000Y-81153000D01*
X117602000Y-80137000D02*
X118618000Y-80137000D01*
D16*
G04 #@! TO.C,R8*
X143129000Y-91694000D02*
X143129000Y-84836000D01*
X145161000Y-91694000D02*
X145161000Y-84836000D01*
D12*
X145161000Y-84836000D02*
X145161000Y-91694000D01*
D13*
X144145000Y-92710000D02*
X144145000Y-91694000D01*
D16*
X144145000Y-91694000D02*
X143129000Y-91694000D01*
X143129000Y-84836000D02*
X145161000Y-84836000D01*
X145161000Y-91694000D02*
X144145000Y-91694000D01*
D13*
X143637000Y-91694000D02*
X143129000Y-91186000D01*
X144145000Y-83820000D02*
X144145000Y-84836000D01*
D16*
G04 #@! TO.C,R9*
X180340000Y-91440000D02*
X180340000Y-84582000D01*
X182372000Y-91440000D02*
X182372000Y-84582000D01*
D12*
X182372000Y-84582000D02*
X182372000Y-91440000D01*
D13*
X181356000Y-92456000D02*
X181356000Y-91440000D01*
D16*
X181356000Y-91440000D02*
X180340000Y-91440000D01*
X180340000Y-84582000D02*
X182372000Y-84582000D01*
X182372000Y-91440000D02*
X181356000Y-91440000D01*
D13*
X180848000Y-91440000D02*
X180340000Y-90932000D01*
X181356000Y-83566000D02*
X181356000Y-84582000D01*
D16*
G04 #@! TO.C,R10*
X148463000Y-73406000D02*
X148463000Y-80264000D01*
X146431000Y-73406000D02*
X146431000Y-80264000D01*
D12*
X146431000Y-80264000D02*
X146431000Y-73406000D01*
D13*
X147447000Y-72390000D02*
X147447000Y-73406000D01*
D16*
X147447000Y-73406000D02*
X148463000Y-73406000D01*
X148463000Y-80264000D02*
X146431000Y-80264000D01*
X146431000Y-73406000D02*
X147447000Y-73406000D01*
D13*
X147955000Y-73406000D02*
X148463000Y-73914000D01*
X147447000Y-81280000D02*
X147447000Y-80264000D01*
D16*
G04 #@! TO.C,R11*
X118491000Y-59690000D02*
X125349000Y-59690000D01*
X118491000Y-61722000D02*
X125349000Y-61722000D01*
D12*
X125349000Y-61722000D02*
X118491000Y-61722000D01*
D13*
X117475000Y-60706000D02*
X118491000Y-60706000D01*
D16*
X118491000Y-60706000D02*
X118491000Y-59690000D01*
X125349000Y-59690000D02*
X125349000Y-61722000D01*
X118491000Y-61722000D02*
X118491000Y-60706000D01*
D13*
X118491000Y-60198000D02*
X118999000Y-59690000D01*
X126365000Y-60706000D02*
X125349000Y-60706000D01*
D16*
G04 #@! TO.C,R12*
X125476000Y-75819000D02*
X118618000Y-75819000D01*
X125476000Y-73787000D02*
X118618000Y-73787000D01*
D12*
X118618000Y-73787000D02*
X125476000Y-73787000D01*
D13*
X126492000Y-74803000D02*
X125476000Y-74803000D01*
D16*
X125476000Y-74803000D02*
X125476000Y-75819000D01*
X118618000Y-75819000D02*
X118618000Y-73787000D01*
X125476000Y-73787000D02*
X125476000Y-74803000D01*
D13*
X125476000Y-75311000D02*
X124968000Y-75819000D01*
X117602000Y-74803000D02*
X118618000Y-74803000D01*
D16*
G04 #@! TO.C,R13*
X118491000Y-62230000D02*
X125349000Y-62230000D01*
X118491000Y-64262000D02*
X125349000Y-64262000D01*
D12*
X125349000Y-64262000D02*
X118491000Y-64262000D01*
D13*
X117475000Y-63246000D02*
X118491000Y-63246000D01*
D16*
X118491000Y-63246000D02*
X118491000Y-62230000D01*
X125349000Y-62230000D02*
X125349000Y-64262000D01*
X118491000Y-64262000D02*
X118491000Y-63246000D01*
D13*
X118491000Y-62738000D02*
X118999000Y-62230000D01*
X126365000Y-63246000D02*
X125349000Y-63246000D01*
D16*
G04 #@! TO.C,R14*
X154559000Y-61976000D02*
X154559000Y-68834000D01*
X152527000Y-61976000D02*
X152527000Y-68834000D01*
D12*
X152527000Y-68834000D02*
X152527000Y-61976000D01*
D13*
X153543000Y-60960000D02*
X153543000Y-61976000D01*
D16*
X153543000Y-61976000D02*
X154559000Y-61976000D01*
X154559000Y-68834000D02*
X152527000Y-68834000D01*
X152527000Y-61976000D02*
X153543000Y-61976000D01*
D13*
X154051000Y-61976000D02*
X154559000Y-62484000D01*
X153543000Y-69850000D02*
X153543000Y-68834000D01*
D16*
G04 #@! TO.C,R15*
X131191000Y-61976000D02*
X131191000Y-68834000D01*
X129159000Y-61976000D02*
X129159000Y-68834000D01*
D12*
X129159000Y-68834000D02*
X129159000Y-61976000D01*
D13*
X130175000Y-60960000D02*
X130175000Y-61976000D01*
D16*
X130175000Y-61976000D02*
X131191000Y-61976000D01*
X131191000Y-68834000D02*
X129159000Y-68834000D01*
X129159000Y-61976000D02*
X130175000Y-61976000D01*
D13*
X130683000Y-61976000D02*
X131191000Y-62484000D01*
X130175000Y-69850000D02*
X130175000Y-68834000D01*
D16*
G04 #@! TO.C,R16*
X145288000Y-61976000D02*
X145288000Y-68834000D01*
X143256000Y-61976000D02*
X143256000Y-68834000D01*
D12*
X143256000Y-68834000D02*
X143256000Y-61976000D01*
D13*
X144272000Y-60960000D02*
X144272000Y-61976000D01*
D16*
X144272000Y-61976000D02*
X145288000Y-61976000D01*
X145288000Y-68834000D02*
X143256000Y-68834000D01*
X143256000Y-61976000D02*
X144272000Y-61976000D01*
D13*
X144780000Y-61976000D02*
X145288000Y-62484000D01*
X144272000Y-69850000D02*
X144272000Y-68834000D01*
D12*
G04 #@! TO.C,C6*
X180340000Y-58420000D02*
X180340000Y-59182000D01*
X179959000Y-58801000D02*
X180721000Y-58801000D01*
D13*
X182324000Y-58801000D02*
G75*
G03X182324000Y-58801000I-3000000J0D01*
G01*
G04 #@! TO.C,D2*
X161290000Y-54737000D02*
X162052000Y-54737000D01*
X162052000Y-54737000D02*
X162052000Y-55753000D01*
X162052000Y-55753000D02*
X168148000Y-55753000D01*
X168148000Y-55753000D02*
X168148000Y-54737000D01*
X168148000Y-54737000D02*
X168910000Y-54737000D01*
X168148000Y-54737000D02*
X168148000Y-53721000D01*
X168148000Y-53721000D02*
X162052000Y-53721000D01*
X162052000Y-53721000D02*
X162052000Y-54737000D01*
X162560000Y-55753000D02*
X162560000Y-53721000D01*
X162814000Y-53721000D02*
X162814000Y-55753000D01*
G04 #@! TO.C,D7*
X182245000Y-76200000D02*
X182753000Y-76200000D01*
X182499000Y-76454000D02*
X182499000Y-75946000D01*
X182282545Y-74676000D02*
G75*
G03X182282545Y-74676000I-1307545J0D01*
G01*
G04 #@! TO.C,D8*
X182245000Y-66040000D02*
X182753000Y-66040000D01*
X182499000Y-66294000D02*
X182499000Y-65786000D01*
X182282545Y-64516000D02*
G75*
G03X182282545Y-64516000I-1307545J0D01*
G01*
G04 #@! TO.C,D9*
X182245000Y-71120000D02*
X182753000Y-71120000D01*
X182499000Y-71374000D02*
X182499000Y-70866000D01*
X182282545Y-69596000D02*
G75*
G03X182282545Y-69596000I-1307545J0D01*
G01*
G04 #@! TO.C,D10*
X153543000Y-72898000D02*
X153543000Y-73660000D01*
X153543000Y-73660000D02*
X152527000Y-73660000D01*
X152527000Y-73660000D02*
X152527000Y-79756000D01*
X152527000Y-79756000D02*
X153543000Y-79756000D01*
X153543000Y-79756000D02*
X153543000Y-80518000D01*
X153543000Y-79756000D02*
X154559000Y-79756000D01*
X154559000Y-79756000D02*
X154559000Y-73660000D01*
X154559000Y-73660000D02*
X153543000Y-73660000D01*
X152527000Y-74168000D02*
X154559000Y-74168000D01*
X154559000Y-74422000D02*
X152527000Y-74422000D01*
G04 #@! TO.C,D11*
X182245000Y-81280000D02*
X182753000Y-81280000D01*
X182499000Y-81534000D02*
X182499000Y-81026000D01*
X182282545Y-79756000D02*
G75*
G03X182282545Y-79756000I-1307545J0D01*
G01*
G04 #@! TO.C,D12*
X150495000Y-80518000D02*
X150495000Y-79756000D01*
X150495000Y-79756000D02*
X151511000Y-79756000D01*
X151511000Y-79756000D02*
X151511000Y-73660000D01*
X151511000Y-73660000D02*
X150495000Y-73660000D01*
X150495000Y-73660000D02*
X150495000Y-72898000D01*
X150495000Y-73660000D02*
X149479000Y-73660000D01*
X149479000Y-73660000D02*
X149479000Y-79756000D01*
X149479000Y-79756000D02*
X150495000Y-79756000D01*
X151511000Y-79248000D02*
X149479000Y-79248000D01*
X149479000Y-78994000D02*
X151511000Y-78994000D01*
G04 #@! TO.C,Q2*
X123190000Y-71247000D02*
X124333000Y-71247000D01*
X124333000Y-71247000D02*
X124841000Y-70739000D01*
X124841000Y-70739000D02*
X124841000Y-69723000D01*
X124841000Y-69723000D02*
X124333000Y-69215000D01*
X124333000Y-69215000D02*
X123190000Y-69215000D01*
X123190000Y-69215000D02*
X123190000Y-71247000D01*
X123825000Y-68326000D02*
X123825000Y-69215000D01*
X123825000Y-72136000D02*
X123825000Y-71247000D01*
X125730000Y-70231000D02*
X124841000Y-70231000D01*
D16*
G04 #@! TO.C,R17*
X176784000Y-91440000D02*
X176784000Y-84582000D01*
X178816000Y-91440000D02*
X178816000Y-84582000D01*
D12*
X178816000Y-84582000D02*
X178816000Y-91440000D01*
D13*
X177800000Y-92456000D02*
X177800000Y-91440000D01*
D16*
X177800000Y-91440000D02*
X176784000Y-91440000D01*
X176784000Y-84582000D02*
X178816000Y-84582000D01*
X178816000Y-91440000D02*
X177800000Y-91440000D01*
D13*
X177292000Y-91440000D02*
X176784000Y-90932000D01*
X177800000Y-83566000D02*
X177800000Y-84582000D01*
D16*
G04 #@! TO.C,R18*
X145288000Y-73406000D02*
X145288000Y-80264000D01*
X143256000Y-73406000D02*
X143256000Y-80264000D01*
D12*
X143256000Y-80264000D02*
X143256000Y-73406000D01*
D13*
X144272000Y-72390000D02*
X144272000Y-73406000D01*
D16*
X144272000Y-73406000D02*
X145288000Y-73406000D01*
X145288000Y-80264000D02*
X143256000Y-80264000D01*
X143256000Y-73406000D02*
X144272000Y-73406000D01*
D13*
X144780000Y-73406000D02*
X145288000Y-73914000D01*
X144272000Y-81280000D02*
X144272000Y-80264000D01*
D16*
G04 #@! TO.C,R19*
X151511000Y-61976000D02*
X151511000Y-68834000D01*
X149479000Y-61976000D02*
X149479000Y-68834000D01*
D12*
X149479000Y-68834000D02*
X149479000Y-61976000D01*
D13*
X150495000Y-60960000D02*
X150495000Y-61976000D01*
D16*
X150495000Y-61976000D02*
X151511000Y-61976000D01*
X151511000Y-68834000D02*
X149479000Y-68834000D01*
X149479000Y-61976000D02*
X150495000Y-61976000D01*
D13*
X151003000Y-61976000D02*
X151511000Y-62484000D01*
X150495000Y-69850000D02*
X150495000Y-68834000D01*
G04 #@! TO.C,Q3*
X172847000Y-64008000D02*
X172847000Y-65151000D01*
X172847000Y-65151000D02*
X173355000Y-65659000D01*
X173355000Y-65659000D02*
X174371000Y-65659000D01*
X174371000Y-65659000D02*
X174879000Y-65151000D01*
X174879000Y-65151000D02*
X174879000Y-64008000D01*
X174879000Y-64008000D02*
X172847000Y-64008000D01*
X175768000Y-64643000D02*
X174879000Y-64643000D01*
X171958000Y-64643000D02*
X172847000Y-64643000D01*
X173863000Y-66548000D02*
X173863000Y-65659000D01*
G04 #@! TO.C,D4*
X173736000Y-72263000D02*
X173736000Y-73025000D01*
X173736000Y-73025000D02*
X172720000Y-73025000D01*
X172720000Y-73025000D02*
X172720000Y-79121000D01*
X172720000Y-79121000D02*
X173736000Y-79121000D01*
X173736000Y-79121000D02*
X173736000Y-79883000D01*
X173736000Y-79121000D02*
X174752000Y-79121000D01*
X174752000Y-79121000D02*
X174752000Y-73025000D01*
X174752000Y-73025000D02*
X173736000Y-73025000D01*
X172720000Y-78613000D02*
X174752000Y-78613000D01*
X174752000Y-78359000D02*
X172720000Y-78359000D01*
G04 #@! TO.C,D5*
X170815000Y-69088000D02*
X171577000Y-69088000D01*
X171577000Y-69088000D02*
X171577000Y-70104000D01*
X171577000Y-70104000D02*
X177673000Y-70104000D01*
X177673000Y-70104000D02*
X177673000Y-69088000D01*
X177673000Y-69088000D02*
X178435000Y-69088000D01*
X177673000Y-69088000D02*
X177673000Y-68072000D01*
X177673000Y-68072000D02*
X171577000Y-68072000D01*
X171577000Y-68072000D02*
X171577000Y-69088000D01*
X177165000Y-70104000D02*
X177165000Y-68072000D01*
X176911000Y-68072000D02*
X176911000Y-70104000D01*
G04 #@! TO.C,RV1*
X113665000Y-56896000D02*
X111125000Y-56896000D01*
X111125000Y-56896000D02*
X111125000Y-64516000D01*
X111125000Y-64516000D02*
X113665000Y-64516000D01*
X113665000Y-64516000D02*
X113665000Y-56896000D01*
D14*
G04 #@! TO.C,U3*
X166497000Y-65659000D02*
X166497000Y-83439000D01*
X161417000Y-83439000D02*
X161417000Y-65659000D01*
X161417000Y-65659000D02*
X166497000Y-65659000D01*
X165227000Y-65659000D02*
X165227000Y-66929000D01*
X165227000Y-66929000D02*
X162687000Y-66929000D01*
X162687000Y-66929000D02*
X162687000Y-65659000D01*
X166497000Y-83439000D02*
X161417000Y-83439000D01*
G04 #@! TO.C,U5*
X139700000Y-62230000D02*
X139700000Y-80010000D01*
X134620000Y-80010000D02*
X134620000Y-62230000D01*
X134620000Y-62230000D02*
X139700000Y-62230000D01*
X138430000Y-62230000D02*
X138430000Y-63500000D01*
X138430000Y-63500000D02*
X135890000Y-63500000D01*
X135890000Y-63500000D02*
X135890000Y-62230000D01*
X139700000Y-80010000D02*
X134620000Y-80010000D01*
D13*
G04 #@! TO.C,T1*
X126365000Y-30861000D02*
X159385000Y-30861000D01*
X126365000Y-58801000D02*
X159385000Y-58801000D01*
X126365000Y-30861000D02*
X126365000Y-58801000D01*
X159385000Y-58801000D02*
X159385000Y-30861000D01*
G04 #@! TO.C,C1*
D17*
X164930666Y-38208857D02*
X164882285Y-38257238D01*
X164737142Y-38305619D01*
X164640380Y-38305619D01*
X164495238Y-38257238D01*
X164398476Y-38160476D01*
X164350095Y-38063714D01*
X164301714Y-37870190D01*
X164301714Y-37725047D01*
X164350095Y-37531523D01*
X164398476Y-37434761D01*
X164495238Y-37338000D01*
X164640380Y-37289619D01*
X164737142Y-37289619D01*
X164882285Y-37338000D01*
X164930666Y-37386380D01*
X165898285Y-38305619D02*
X165317714Y-38305619D01*
X165608000Y-38305619D02*
X165608000Y-37289619D01*
X165511238Y-37434761D01*
X165414476Y-37531523D01*
X165317714Y-37579904D01*
G04 #@! TO.C,C2*
X174098857Y-59351333D02*
X174147238Y-59399714D01*
X174195619Y-59544857D01*
X174195619Y-59641619D01*
X174147238Y-59786761D01*
X174050476Y-59883523D01*
X173953714Y-59931904D01*
X173760190Y-59980285D01*
X173615047Y-59980285D01*
X173421523Y-59931904D01*
X173324761Y-59883523D01*
X173228000Y-59786761D01*
X173179619Y-59641619D01*
X173179619Y-59544857D01*
X173228000Y-59399714D01*
X173276380Y-59351333D01*
X173276380Y-58964285D02*
X173228000Y-58915904D01*
X173179619Y-58819142D01*
X173179619Y-58577238D01*
X173228000Y-58480476D01*
X173276380Y-58432095D01*
X173373142Y-58383714D01*
X173469904Y-58383714D01*
X173615047Y-58432095D01*
X174195619Y-59012666D01*
X174195619Y-58383714D01*
G04 #@! TO.C,C3*
X151976666Y-86087857D02*
X151928285Y-86136238D01*
X151783142Y-86184619D01*
X151686380Y-86184619D01*
X151541238Y-86136238D01*
X151444476Y-86039476D01*
X151396095Y-85942714D01*
X151347714Y-85749190D01*
X151347714Y-85604047D01*
X151396095Y-85410523D01*
X151444476Y-85313761D01*
X151541238Y-85217000D01*
X151686380Y-85168619D01*
X151783142Y-85168619D01*
X151928285Y-85217000D01*
X151976666Y-85265380D01*
X152315333Y-85168619D02*
X152944285Y-85168619D01*
X152605619Y-85555666D01*
X152750761Y-85555666D01*
X152847523Y-85604047D01*
X152895904Y-85652428D01*
X152944285Y-85749190D01*
X152944285Y-85991095D01*
X152895904Y-86087857D01*
X152847523Y-86136238D01*
X152750761Y-86184619D01*
X152460476Y-86184619D01*
X152363714Y-86136238D01*
X152315333Y-86087857D01*
G04 #@! TO.C,C4*
X164930666Y-48622857D02*
X164882285Y-48671238D01*
X164737142Y-48719619D01*
X164640380Y-48719619D01*
X164495238Y-48671238D01*
X164398476Y-48574476D01*
X164350095Y-48477714D01*
X164301714Y-48284190D01*
X164301714Y-48139047D01*
X164350095Y-47945523D01*
X164398476Y-47848761D01*
X164495238Y-47752000D01*
X164640380Y-47703619D01*
X164737142Y-47703619D01*
X164882285Y-47752000D01*
X164930666Y-47800380D01*
X165801523Y-48042285D02*
X165801523Y-48719619D01*
X165559619Y-47655238D02*
X165317714Y-48380952D01*
X165946666Y-48380952D01*
G04 #@! TO.C,C5*
X163533666Y-62465857D02*
X163485285Y-62514238D01*
X163340142Y-62562619D01*
X163243380Y-62562619D01*
X163098238Y-62514238D01*
X163001476Y-62417476D01*
X162953095Y-62320714D01*
X162904714Y-62127190D01*
X162904714Y-61982047D01*
X162953095Y-61788523D01*
X163001476Y-61691761D01*
X163098238Y-61595000D01*
X163243380Y-61546619D01*
X163340142Y-61546619D01*
X163485285Y-61595000D01*
X163533666Y-61643380D01*
X164452904Y-61546619D02*
X163969095Y-61546619D01*
X163920714Y-62030428D01*
X163969095Y-61982047D01*
X164065857Y-61933666D01*
X164307761Y-61933666D01*
X164404523Y-61982047D01*
X164452904Y-62030428D01*
X164501285Y-62127190D01*
X164501285Y-62369095D01*
X164452904Y-62465857D01*
X164404523Y-62514238D01*
X164307761Y-62562619D01*
X164065857Y-62562619D01*
X163969095Y-62514238D01*
X163920714Y-62465857D01*
G04 #@! TO.C,C7*
X129750457Y-78934733D02*
X129798838Y-78983114D01*
X129847219Y-79128257D01*
X129847219Y-79225019D01*
X129798838Y-79370161D01*
X129702076Y-79466923D01*
X129605314Y-79515304D01*
X129411790Y-79563685D01*
X129266647Y-79563685D01*
X129073123Y-79515304D01*
X128976361Y-79466923D01*
X128879600Y-79370161D01*
X128831219Y-79225019D01*
X128831219Y-79128257D01*
X128879600Y-78983114D01*
X128927980Y-78934733D01*
X128831219Y-78596066D02*
X128831219Y-77918733D01*
X129847219Y-78354161D01*
G04 #@! TO.C,C8*
X122004666Y-77832857D02*
X121956285Y-77881238D01*
X121811142Y-77929619D01*
X121714380Y-77929619D01*
X121569238Y-77881238D01*
X121472476Y-77784476D01*
X121424095Y-77687714D01*
X121375714Y-77494190D01*
X121375714Y-77349047D01*
X121424095Y-77155523D01*
X121472476Y-77058761D01*
X121569238Y-76962000D01*
X121714380Y-76913619D01*
X121811142Y-76913619D01*
X121956285Y-76962000D01*
X122004666Y-77010380D01*
X122585238Y-77349047D02*
X122488476Y-77300666D01*
X122440095Y-77252285D01*
X122391714Y-77155523D01*
X122391714Y-77107142D01*
X122440095Y-77010380D01*
X122488476Y-76962000D01*
X122585238Y-76913619D01*
X122778761Y-76913619D01*
X122875523Y-76962000D01*
X122923904Y-77010380D01*
X122972285Y-77107142D01*
X122972285Y-77155523D01*
X122923904Y-77252285D01*
X122875523Y-77300666D01*
X122778761Y-77349047D01*
X122585238Y-77349047D01*
X122488476Y-77397428D01*
X122440095Y-77445809D01*
X122391714Y-77542571D01*
X122391714Y-77736095D01*
X122440095Y-77832857D01*
X122488476Y-77881238D01*
X122585238Y-77929619D01*
X122778761Y-77929619D01*
X122875523Y-77881238D01*
X122923904Y-77832857D01*
X122972285Y-77736095D01*
X122972285Y-77542571D01*
X122923904Y-77445809D01*
X122875523Y-77397428D01*
X122778761Y-77349047D01*
G04 #@! TO.C,C9*
X111590666Y-80753857D02*
X111542285Y-80802238D01*
X111397142Y-80850619D01*
X111300380Y-80850619D01*
X111155238Y-80802238D01*
X111058476Y-80705476D01*
X111010095Y-80608714D01*
X110961714Y-80415190D01*
X110961714Y-80270047D01*
X111010095Y-80076523D01*
X111058476Y-79979761D01*
X111155238Y-79883000D01*
X111300380Y-79834619D01*
X111397142Y-79834619D01*
X111542285Y-79883000D01*
X111590666Y-79931380D01*
X112074476Y-80850619D02*
X112268000Y-80850619D01*
X112364761Y-80802238D01*
X112413142Y-80753857D01*
X112509904Y-80608714D01*
X112558285Y-80415190D01*
X112558285Y-80028142D01*
X112509904Y-79931380D01*
X112461523Y-79883000D01*
X112364761Y-79834619D01*
X112171238Y-79834619D01*
X112074476Y-79883000D01*
X112026095Y-79931380D01*
X111977714Y-80028142D01*
X111977714Y-80270047D01*
X112026095Y-80366809D01*
X112074476Y-80415190D01*
X112171238Y-80463571D01*
X112364761Y-80463571D01*
X112461523Y-80415190D01*
X112509904Y-80366809D01*
X112558285Y-80270047D01*
G04 #@! TO.C,C10*
X111106857Y-78086857D02*
X111058476Y-78135238D01*
X110913333Y-78183619D01*
X110816571Y-78183619D01*
X110671428Y-78135238D01*
X110574666Y-78038476D01*
X110526285Y-77941714D01*
X110477904Y-77748190D01*
X110477904Y-77603047D01*
X110526285Y-77409523D01*
X110574666Y-77312761D01*
X110671428Y-77216000D01*
X110816571Y-77167619D01*
X110913333Y-77167619D01*
X111058476Y-77216000D01*
X111106857Y-77264380D01*
X112074476Y-78183619D02*
X111493904Y-78183619D01*
X111784190Y-78183619D02*
X111784190Y-77167619D01*
X111687428Y-77312761D01*
X111590666Y-77409523D01*
X111493904Y-77457904D01*
X112703428Y-77167619D02*
X112800190Y-77167619D01*
X112896952Y-77216000D01*
X112945333Y-77264380D01*
X112993714Y-77361142D01*
X113042095Y-77554666D01*
X113042095Y-77796571D01*
X112993714Y-77990095D01*
X112945333Y-78086857D01*
X112896952Y-78135238D01*
X112800190Y-78183619D01*
X112703428Y-78183619D01*
X112606666Y-78135238D01*
X112558285Y-78086857D01*
X112509904Y-77990095D01*
X112461523Y-77796571D01*
X112461523Y-77554666D01*
X112509904Y-77361142D01*
X112558285Y-77264380D01*
X112606666Y-77216000D01*
X112703428Y-77167619D01*
G04 #@! TO.C,C11*
X121266857Y-66148857D02*
X121218476Y-66197238D01*
X121073333Y-66245619D01*
X120976571Y-66245619D01*
X120831428Y-66197238D01*
X120734666Y-66100476D01*
X120686285Y-66003714D01*
X120637904Y-65810190D01*
X120637904Y-65665047D01*
X120686285Y-65471523D01*
X120734666Y-65374761D01*
X120831428Y-65278000D01*
X120976571Y-65229619D01*
X121073333Y-65229619D01*
X121218476Y-65278000D01*
X121266857Y-65326380D01*
X122234476Y-66245619D02*
X121653904Y-66245619D01*
X121944190Y-66245619D02*
X121944190Y-65229619D01*
X121847428Y-65374761D01*
X121750666Y-65471523D01*
X121653904Y-65519904D01*
X123202095Y-66245619D02*
X122621523Y-66245619D01*
X122911809Y-66245619D02*
X122911809Y-65229619D01*
X122815047Y-65374761D01*
X122718285Y-65471523D01*
X122621523Y-65519904D01*
G04 #@! TO.C,C12*
X156953857Y-65423142D02*
X157002238Y-65471523D01*
X157050619Y-65616666D01*
X157050619Y-65713428D01*
X157002238Y-65858571D01*
X156905476Y-65955333D01*
X156808714Y-66003714D01*
X156615190Y-66052095D01*
X156470047Y-66052095D01*
X156276523Y-66003714D01*
X156179761Y-65955333D01*
X156083000Y-65858571D01*
X156034619Y-65713428D01*
X156034619Y-65616666D01*
X156083000Y-65471523D01*
X156131380Y-65423142D01*
X157050619Y-64455523D02*
X157050619Y-65036095D01*
X157050619Y-64745809D02*
X156034619Y-64745809D01*
X156179761Y-64842571D01*
X156276523Y-64939333D01*
X156324904Y-65036095D01*
X156131380Y-64068476D02*
X156083000Y-64020095D01*
X156034619Y-63923333D01*
X156034619Y-63681428D01*
X156083000Y-63584666D01*
X156131380Y-63536285D01*
X156228142Y-63487904D01*
X156324904Y-63487904D01*
X156470047Y-63536285D01*
X157050619Y-64116857D01*
X157050619Y-63487904D01*
G04 #@! TO.C,C13*
X147809857Y-65423142D02*
X147858238Y-65471523D01*
X147906619Y-65616666D01*
X147906619Y-65713428D01*
X147858238Y-65858571D01*
X147761476Y-65955333D01*
X147664714Y-66003714D01*
X147471190Y-66052095D01*
X147326047Y-66052095D01*
X147132523Y-66003714D01*
X147035761Y-65955333D01*
X146939000Y-65858571D01*
X146890619Y-65713428D01*
X146890619Y-65616666D01*
X146939000Y-65471523D01*
X146987380Y-65423142D01*
X147906619Y-64455523D02*
X147906619Y-65036095D01*
X147906619Y-64745809D02*
X146890619Y-64745809D01*
X147035761Y-64842571D01*
X147132523Y-64939333D01*
X147180904Y-65036095D01*
X146890619Y-64116857D02*
X146890619Y-63487904D01*
X147277666Y-63826571D01*
X147277666Y-63681428D01*
X147326047Y-63584666D01*
X147374428Y-63536285D01*
X147471190Y-63487904D01*
X147713095Y-63487904D01*
X147809857Y-63536285D01*
X147858238Y-63584666D01*
X147906619Y-63681428D01*
X147906619Y-63971714D01*
X147858238Y-64068476D01*
X147809857Y-64116857D01*
G04 #@! TO.C,D1*
X164350095Y-31955619D02*
X164350095Y-30939619D01*
X164592000Y-30939619D01*
X164737142Y-30988000D01*
X164833904Y-31084761D01*
X164882285Y-31181523D01*
X164930666Y-31375047D01*
X164930666Y-31520190D01*
X164882285Y-31713714D01*
X164833904Y-31810476D01*
X164737142Y-31907238D01*
X164592000Y-31955619D01*
X164350095Y-31955619D01*
X165898285Y-31955619D02*
X165317714Y-31955619D01*
X165608000Y-31955619D02*
X165608000Y-30939619D01*
X165511238Y-31084761D01*
X165414476Y-31181523D01*
X165317714Y-31229904D01*
G04 #@! TO.C,D3*
X176669095Y-54180619D02*
X176669095Y-53164619D01*
X176911000Y-53164619D01*
X177056142Y-53213000D01*
X177152904Y-53309761D01*
X177201285Y-53406523D01*
X177249666Y-53600047D01*
X177249666Y-53745190D01*
X177201285Y-53938714D01*
X177152904Y-54035476D01*
X177056142Y-54132238D01*
X176911000Y-54180619D01*
X176669095Y-54180619D01*
X177588333Y-53164619D02*
X178217285Y-53164619D01*
X177878619Y-53551666D01*
X178023761Y-53551666D01*
X178120523Y-53600047D01*
X178168904Y-53648428D01*
X178217285Y-53745190D01*
X178217285Y-53987095D01*
X178168904Y-54083857D01*
X178120523Y-54132238D01*
X178023761Y-54180619D01*
X177733476Y-54180619D01*
X177636714Y-54132238D01*
X177588333Y-54083857D01*
G04 #@! TO.C,D6*
X177497619Y-76822904D02*
X176481619Y-76822904D01*
X176481619Y-76581000D01*
X176530000Y-76435857D01*
X176626761Y-76339095D01*
X176723523Y-76290714D01*
X176917047Y-76242333D01*
X177062190Y-76242333D01*
X177255714Y-76290714D01*
X177352476Y-76339095D01*
X177449238Y-76435857D01*
X177497619Y-76581000D01*
X177497619Y-76822904D01*
X176481619Y-75371476D02*
X176481619Y-75565000D01*
X176530000Y-75661761D01*
X176578380Y-75710142D01*
X176723523Y-75806904D01*
X176917047Y-75855285D01*
X177304095Y-75855285D01*
X177400857Y-75806904D01*
X177449238Y-75758523D01*
X177497619Y-75661761D01*
X177497619Y-75468238D01*
X177449238Y-75371476D01*
X177400857Y-75323095D01*
X177304095Y-75274714D01*
X177062190Y-75274714D01*
X176965428Y-75323095D01*
X176917047Y-75371476D01*
X176868666Y-75468238D01*
X176868666Y-75661761D01*
X176917047Y-75758523D01*
X176965428Y-75806904D01*
X177062190Y-75855285D01*
G04 #@! TO.C,F1*
X120946333Y-44631428D02*
X120607666Y-44631428D01*
X120607666Y-45163619D02*
X120607666Y-44147619D01*
X121091476Y-44147619D01*
X122010714Y-45163619D02*
X121430142Y-45163619D01*
X121720428Y-45163619D02*
X121720428Y-44147619D01*
X121623666Y-44292761D01*
X121526904Y-44389523D01*
X121430142Y-44437904D01*
G04 #@! TO.C,K1*
X175399095Y-39575619D02*
X175399095Y-38559619D01*
X175979666Y-39575619D02*
X175544238Y-38995047D01*
X175979666Y-38559619D02*
X175399095Y-39140190D01*
X176947285Y-39575619D02*
X176366714Y-39575619D01*
X176657000Y-39575619D02*
X176657000Y-38559619D01*
X176560238Y-38704761D01*
X176463476Y-38801523D01*
X176366714Y-38849904D01*
G04 #@! TO.C,P1*
X110375095Y-43131619D02*
X110375095Y-42115619D01*
X110762142Y-42115619D01*
X110858904Y-42164000D01*
X110907285Y-42212380D01*
X110955666Y-42309142D01*
X110955666Y-42454285D01*
X110907285Y-42551047D01*
X110858904Y-42599428D01*
X110762142Y-42647809D01*
X110375095Y-42647809D01*
X111923285Y-43131619D02*
X111342714Y-43131619D01*
X111633000Y-43131619D02*
X111633000Y-42115619D01*
X111536238Y-42260761D01*
X111439476Y-42357523D01*
X111342714Y-42405904D01*
G04 #@! TO.C,P2*
X186575095Y-47322619D02*
X186575095Y-46306619D01*
X186962142Y-46306619D01*
X187058904Y-46355000D01*
X187107285Y-46403380D01*
X187155666Y-46500142D01*
X187155666Y-46645285D01*
X187107285Y-46742047D01*
X187058904Y-46790428D01*
X186962142Y-46838809D01*
X186575095Y-46838809D01*
X187542714Y-46403380D02*
X187591095Y-46355000D01*
X187687857Y-46306619D01*
X187929761Y-46306619D01*
X188026523Y-46355000D01*
X188074904Y-46403380D01*
X188123285Y-46500142D01*
X188123285Y-46596904D01*
X188074904Y-46742047D01*
X187494333Y-47322619D01*
X188123285Y-47322619D01*
G04 #@! TO.C,P3*
X186575095Y-57482619D02*
X186575095Y-56466619D01*
X186962142Y-56466619D01*
X187058904Y-56515000D01*
X187107285Y-56563380D01*
X187155666Y-56660142D01*
X187155666Y-56805285D01*
X187107285Y-56902047D01*
X187058904Y-56950428D01*
X186962142Y-56998809D01*
X186575095Y-56998809D01*
X187494333Y-56466619D02*
X188123285Y-56466619D01*
X187784619Y-56853666D01*
X187929761Y-56853666D01*
X188026523Y-56902047D01*
X188074904Y-56950428D01*
X188123285Y-57047190D01*
X188123285Y-57289095D01*
X188074904Y-57385857D01*
X188026523Y-57434238D01*
X187929761Y-57482619D01*
X187639476Y-57482619D01*
X187542714Y-57434238D01*
X187494333Y-57385857D01*
G04 #@! TO.C,P4*
X110375095Y-71452619D02*
X110375095Y-70436619D01*
X110762142Y-70436619D01*
X110858904Y-70485000D01*
X110907285Y-70533380D01*
X110955666Y-70630142D01*
X110955666Y-70775285D01*
X110907285Y-70872047D01*
X110858904Y-70920428D01*
X110762142Y-70968809D01*
X110375095Y-70968809D01*
X111826523Y-70775285D02*
X111826523Y-71452619D01*
X111584619Y-70388238D02*
X111342714Y-71113952D01*
X111971666Y-71113952D01*
G04 #@! TO.C,P5*
X186575095Y-72722619D02*
X186575095Y-71706619D01*
X186962142Y-71706619D01*
X187058904Y-71755000D01*
X187107285Y-71803380D01*
X187155666Y-71900142D01*
X187155666Y-72045285D01*
X187107285Y-72142047D01*
X187058904Y-72190428D01*
X186962142Y-72238809D01*
X186575095Y-72238809D01*
X188074904Y-71706619D02*
X187591095Y-71706619D01*
X187542714Y-72190428D01*
X187591095Y-72142047D01*
X187687857Y-72093666D01*
X187929761Y-72093666D01*
X188026523Y-72142047D01*
X188074904Y-72190428D01*
X188123285Y-72287190D01*
X188123285Y-72529095D01*
X188074904Y-72625857D01*
X188026523Y-72674238D01*
X187929761Y-72722619D01*
X187687857Y-72722619D01*
X187591095Y-72674238D01*
X187542714Y-72625857D01*
G04 #@! TO.C,P6*
X108597095Y-61165619D02*
X108597095Y-60149619D01*
X108984142Y-60149619D01*
X109080904Y-60198000D01*
X109129285Y-60246380D01*
X109177666Y-60343142D01*
X109177666Y-60488285D01*
X109129285Y-60585047D01*
X109080904Y-60633428D01*
X108984142Y-60681809D01*
X108597095Y-60681809D01*
X110048523Y-60149619D02*
X109855000Y-60149619D01*
X109758238Y-60198000D01*
X109709857Y-60246380D01*
X109613095Y-60391523D01*
X109564714Y-60585047D01*
X109564714Y-60972095D01*
X109613095Y-61068857D01*
X109661476Y-61117238D01*
X109758238Y-61165619D01*
X109951761Y-61165619D01*
X110048523Y-61117238D01*
X110096904Y-61068857D01*
X110145285Y-60972095D01*
X110145285Y-60730190D01*
X110096904Y-60633428D01*
X110048523Y-60585047D01*
X109951761Y-60536666D01*
X109758238Y-60536666D01*
X109661476Y-60585047D01*
X109613095Y-60633428D01*
X109564714Y-60730190D01*
G04 #@! TO.C,P7*
X186575095Y-82882619D02*
X186575095Y-81866619D01*
X186962142Y-81866619D01*
X187058904Y-81915000D01*
X187107285Y-81963380D01*
X187155666Y-82060142D01*
X187155666Y-82205285D01*
X187107285Y-82302047D01*
X187058904Y-82350428D01*
X186962142Y-82398809D01*
X186575095Y-82398809D01*
X187494333Y-81866619D02*
X188171666Y-81866619D01*
X187736238Y-82882619D01*
G04 #@! TO.C,Q1*
X120680238Y-69009380D02*
X120583476Y-68961000D01*
X120486714Y-68864238D01*
X120341571Y-68719095D01*
X120244809Y-68670714D01*
X120148047Y-68670714D01*
X120196428Y-68912619D02*
X120099666Y-68864238D01*
X120002904Y-68767476D01*
X119954523Y-68573952D01*
X119954523Y-68235285D01*
X120002904Y-68041761D01*
X120099666Y-67945000D01*
X120196428Y-67896619D01*
X120389952Y-67896619D01*
X120486714Y-67945000D01*
X120583476Y-68041761D01*
X120631857Y-68235285D01*
X120631857Y-68573952D01*
X120583476Y-68767476D01*
X120486714Y-68864238D01*
X120389952Y-68912619D01*
X120196428Y-68912619D01*
X121599476Y-68912619D02*
X121018904Y-68912619D01*
X121309190Y-68912619D02*
X121309190Y-67896619D01*
X121212428Y-68041761D01*
X121115666Y-68138523D01*
X121018904Y-68186904D01*
G04 #@! TO.C,U1*
X167373904Y-56847619D02*
X167373904Y-57670095D01*
X167422285Y-57766857D01*
X167470666Y-57815238D01*
X167567428Y-57863619D01*
X167760952Y-57863619D01*
X167857714Y-57815238D01*
X167906095Y-57766857D01*
X167954476Y-57670095D01*
X167954476Y-56847619D01*
X168970476Y-57863619D02*
X168389904Y-57863619D01*
X168680190Y-57863619D02*
X168680190Y-56847619D01*
X168583428Y-56992761D01*
X168486666Y-57089523D01*
X168389904Y-57137904D01*
G04 #@! TO.C,U2*
X160642904Y-56593619D02*
X160642904Y-57416095D01*
X160691285Y-57512857D01*
X160739666Y-57561238D01*
X160836428Y-57609619D01*
X161029952Y-57609619D01*
X161126714Y-57561238D01*
X161175095Y-57512857D01*
X161223476Y-57416095D01*
X161223476Y-56593619D01*
X161658904Y-56690380D02*
X161707285Y-56642000D01*
X161804047Y-56593619D01*
X162045952Y-56593619D01*
X162142714Y-56642000D01*
X162191095Y-56690380D01*
X162239476Y-56787142D01*
X162239476Y-56883904D01*
X162191095Y-57029047D01*
X161610523Y-57609619D01*
X162239476Y-57609619D01*
G04 #@! TO.C,U4*
D18*
X123825095Y-87844380D02*
X123825095Y-88653904D01*
X123872714Y-88749142D01*
X123920333Y-88796761D01*
X124015571Y-88844380D01*
X124206047Y-88844380D01*
X124301285Y-88796761D01*
X124348904Y-88749142D01*
X124396523Y-88653904D01*
X124396523Y-87844380D01*
X125301285Y-88177714D02*
X125301285Y-88844380D01*
X125063190Y-87796761D02*
X124825095Y-88511047D01*
X125444142Y-88511047D01*
G04 #@! TO.C,Y1*
D17*
X113996409Y-85319809D02*
X114480219Y-85319809D01*
X113464219Y-85658476D02*
X113996409Y-85319809D01*
X113464219Y-84981142D01*
X114480219Y-84110285D02*
X114480219Y-84690857D01*
X114480219Y-84400571D02*
X113464219Y-84400571D01*
X113609361Y-84497333D01*
X113706123Y-84594095D01*
X113754504Y-84690857D01*
G04 #@! TO.C,R1*
X152106333Y-90368380D02*
X151773000Y-89892190D01*
X151534904Y-90368380D02*
X151534904Y-89368380D01*
X151915857Y-89368380D01*
X152011095Y-89416000D01*
X152058714Y-89463619D01*
X152106333Y-89558857D01*
X152106333Y-89701714D01*
X152058714Y-89796952D01*
X152011095Y-89844571D01*
X151915857Y-89892190D01*
X151534904Y-89892190D01*
X153058714Y-90368380D02*
X152487285Y-90368380D01*
X152773000Y-90368380D02*
X152773000Y-89368380D01*
X152677761Y-89511238D01*
X152582523Y-89606476D01*
X152487285Y-89654095D01*
G04 #@! TO.C,R2*
X163790333Y-90368380D02*
X163457000Y-89892190D01*
X163218904Y-90368380D02*
X163218904Y-89368380D01*
X163599857Y-89368380D01*
X163695095Y-89416000D01*
X163742714Y-89463619D01*
X163790333Y-89558857D01*
X163790333Y-89701714D01*
X163742714Y-89796952D01*
X163695095Y-89844571D01*
X163599857Y-89892190D01*
X163218904Y-89892190D01*
X164171285Y-89463619D02*
X164218904Y-89416000D01*
X164314142Y-89368380D01*
X164552238Y-89368380D01*
X164647476Y-89416000D01*
X164695095Y-89463619D01*
X164742714Y-89558857D01*
X164742714Y-89654095D01*
X164695095Y-89796952D01*
X164123666Y-90368380D01*
X164742714Y-90368380D01*
G04 #@! TO.C,R3*
X163790333Y-87193380D02*
X163457000Y-86717190D01*
X163218904Y-87193380D02*
X163218904Y-86193380D01*
X163599857Y-86193380D01*
X163695095Y-86241000D01*
X163742714Y-86288619D01*
X163790333Y-86383857D01*
X163790333Y-86526714D01*
X163742714Y-86621952D01*
X163695095Y-86669571D01*
X163599857Y-86717190D01*
X163218904Y-86717190D01*
X164123666Y-86193380D02*
X164742714Y-86193380D01*
X164409380Y-86574333D01*
X164552238Y-86574333D01*
X164647476Y-86621952D01*
X164695095Y-86669571D01*
X164742714Y-86764809D01*
X164742714Y-87002904D01*
X164695095Y-87098142D01*
X164647476Y-87145761D01*
X164552238Y-87193380D01*
X164266523Y-87193380D01*
X164171285Y-87145761D01*
X164123666Y-87098142D01*
G04 #@! TO.C,R4*
X171902380Y-88177666D02*
X171426190Y-88511000D01*
X171902380Y-88749095D02*
X170902380Y-88749095D01*
X170902380Y-88368142D01*
X170950000Y-88272904D01*
X170997619Y-88225285D01*
X171092857Y-88177666D01*
X171235714Y-88177666D01*
X171330952Y-88225285D01*
X171378571Y-88272904D01*
X171426190Y-88368142D01*
X171426190Y-88749095D01*
X171235714Y-87320523D02*
X171902380Y-87320523D01*
X170854761Y-87558619D02*
X171569047Y-87796714D01*
X171569047Y-87177666D01*
G04 #@! TO.C,R5*
X175077380Y-88177666D02*
X174601190Y-88511000D01*
X175077380Y-88749095D02*
X174077380Y-88749095D01*
X174077380Y-88368142D01*
X174125000Y-88272904D01*
X174172619Y-88225285D01*
X174267857Y-88177666D01*
X174410714Y-88177666D01*
X174505952Y-88225285D01*
X174553571Y-88272904D01*
X174601190Y-88368142D01*
X174601190Y-88749095D01*
X174077380Y-87272904D02*
X174077380Y-87749095D01*
X174553571Y-87796714D01*
X174505952Y-87749095D01*
X174458333Y-87653857D01*
X174458333Y-87415761D01*
X174505952Y-87320523D01*
X174553571Y-87272904D01*
X174648809Y-87225285D01*
X174886904Y-87225285D01*
X174982142Y-87272904D01*
X175029761Y-87320523D01*
X175077380Y-87415761D01*
X175077380Y-87653857D01*
X175029761Y-87749095D01*
X174982142Y-87796714D01*
G04 #@! TO.C,R6*
X157043380Y-76874666D02*
X156567190Y-77208000D01*
X157043380Y-77446095D02*
X156043380Y-77446095D01*
X156043380Y-77065142D01*
X156091000Y-76969904D01*
X156138619Y-76922285D01*
X156233857Y-76874666D01*
X156376714Y-76874666D01*
X156471952Y-76922285D01*
X156519571Y-76969904D01*
X156567190Y-77065142D01*
X156567190Y-77446095D01*
X156043380Y-76017523D02*
X156043380Y-76208000D01*
X156091000Y-76303238D01*
X156138619Y-76350857D01*
X156281476Y-76446095D01*
X156471952Y-76493714D01*
X156852904Y-76493714D01*
X156948142Y-76446095D01*
X156995761Y-76398476D01*
X157043380Y-76303238D01*
X157043380Y-76112761D01*
X156995761Y-76017523D01*
X156948142Y-75969904D01*
X156852904Y-75922285D01*
X156614809Y-75922285D01*
X156519571Y-75969904D01*
X156471952Y-76017523D01*
X156424333Y-76112761D01*
X156424333Y-76303238D01*
X156471952Y-76398476D01*
X156519571Y-76446095D01*
X156614809Y-76493714D01*
G04 #@! TO.C,R7*
X121880333Y-80589380D02*
X121547000Y-80113190D01*
X121308904Y-80589380D02*
X121308904Y-79589380D01*
X121689857Y-79589380D01*
X121785095Y-79637000D01*
X121832714Y-79684619D01*
X121880333Y-79779857D01*
X121880333Y-79922714D01*
X121832714Y-80017952D01*
X121785095Y-80065571D01*
X121689857Y-80113190D01*
X121308904Y-80113190D01*
X122213666Y-79589380D02*
X122880333Y-79589380D01*
X122451761Y-80589380D01*
G04 #@! TO.C,R8*
X144597380Y-88431666D02*
X144121190Y-88765000D01*
X144597380Y-89003095D02*
X143597380Y-89003095D01*
X143597380Y-88622142D01*
X143645000Y-88526904D01*
X143692619Y-88479285D01*
X143787857Y-88431666D01*
X143930714Y-88431666D01*
X144025952Y-88479285D01*
X144073571Y-88526904D01*
X144121190Y-88622142D01*
X144121190Y-89003095D01*
X144025952Y-87860238D02*
X143978333Y-87955476D01*
X143930714Y-88003095D01*
X143835476Y-88050714D01*
X143787857Y-88050714D01*
X143692619Y-88003095D01*
X143645000Y-87955476D01*
X143597380Y-87860238D01*
X143597380Y-87669761D01*
X143645000Y-87574523D01*
X143692619Y-87526904D01*
X143787857Y-87479285D01*
X143835476Y-87479285D01*
X143930714Y-87526904D01*
X143978333Y-87574523D01*
X144025952Y-87669761D01*
X144025952Y-87860238D01*
X144073571Y-87955476D01*
X144121190Y-88003095D01*
X144216428Y-88050714D01*
X144406904Y-88050714D01*
X144502142Y-88003095D01*
X144549761Y-87955476D01*
X144597380Y-87860238D01*
X144597380Y-87669761D01*
X144549761Y-87574523D01*
X144502142Y-87526904D01*
X144406904Y-87479285D01*
X144216428Y-87479285D01*
X144121190Y-87526904D01*
X144073571Y-87574523D01*
X144025952Y-87669761D01*
G04 #@! TO.C,R9*
X181808380Y-88177666D02*
X181332190Y-88511000D01*
X181808380Y-88749095D02*
X180808380Y-88749095D01*
X180808380Y-88368142D01*
X180856000Y-88272904D01*
X180903619Y-88225285D01*
X180998857Y-88177666D01*
X181141714Y-88177666D01*
X181236952Y-88225285D01*
X181284571Y-88272904D01*
X181332190Y-88368142D01*
X181332190Y-88749095D01*
X181808380Y-87701476D02*
X181808380Y-87511000D01*
X181760761Y-87415761D01*
X181713142Y-87368142D01*
X181570285Y-87272904D01*
X181379809Y-87225285D01*
X180998857Y-87225285D01*
X180903619Y-87272904D01*
X180856000Y-87320523D01*
X180808380Y-87415761D01*
X180808380Y-87606238D01*
X180856000Y-87701476D01*
X180903619Y-87749095D01*
X180998857Y-87796714D01*
X181236952Y-87796714D01*
X181332190Y-87749095D01*
X181379809Y-87701476D01*
X181427428Y-87606238D01*
X181427428Y-87415761D01*
X181379809Y-87320523D01*
X181332190Y-87272904D01*
X181236952Y-87225285D01*
G04 #@! TO.C,R10*
X147899380Y-77477857D02*
X147423190Y-77811190D01*
X147899380Y-78049285D02*
X146899380Y-78049285D01*
X146899380Y-77668333D01*
X146947000Y-77573095D01*
X146994619Y-77525476D01*
X147089857Y-77477857D01*
X147232714Y-77477857D01*
X147327952Y-77525476D01*
X147375571Y-77573095D01*
X147423190Y-77668333D01*
X147423190Y-78049285D01*
X147899380Y-76525476D02*
X147899380Y-77096904D01*
X147899380Y-76811190D02*
X146899380Y-76811190D01*
X147042238Y-76906428D01*
X147137476Y-77001666D01*
X147185095Y-77096904D01*
X146899380Y-75906428D02*
X146899380Y-75811190D01*
X146947000Y-75715952D01*
X146994619Y-75668333D01*
X147089857Y-75620714D01*
X147280333Y-75573095D01*
X147518428Y-75573095D01*
X147708904Y-75620714D01*
X147804142Y-75668333D01*
X147851761Y-75715952D01*
X147899380Y-75811190D01*
X147899380Y-75906428D01*
X147851761Y-76001666D01*
X147804142Y-76049285D01*
X147708904Y-76096904D01*
X147518428Y-76144523D01*
X147280333Y-76144523D01*
X147089857Y-76096904D01*
X146994619Y-76049285D01*
X146947000Y-76001666D01*
X146899380Y-75906428D01*
G04 #@! TO.C,R11*
X121277142Y-61158380D02*
X120943809Y-60682190D01*
X120705714Y-61158380D02*
X120705714Y-60158380D01*
X121086666Y-60158380D01*
X121181904Y-60206000D01*
X121229523Y-60253619D01*
X121277142Y-60348857D01*
X121277142Y-60491714D01*
X121229523Y-60586952D01*
X121181904Y-60634571D01*
X121086666Y-60682190D01*
X120705714Y-60682190D01*
X122229523Y-61158380D02*
X121658095Y-61158380D01*
X121943809Y-61158380D02*
X121943809Y-60158380D01*
X121848571Y-60301238D01*
X121753333Y-60396476D01*
X121658095Y-60444095D01*
X123181904Y-61158380D02*
X122610476Y-61158380D01*
X122896190Y-61158380D02*
X122896190Y-60158380D01*
X122800952Y-60301238D01*
X122705714Y-60396476D01*
X122610476Y-60444095D01*
G04 #@! TO.C,R12*
X121404142Y-75255380D02*
X121070809Y-74779190D01*
X120832714Y-75255380D02*
X120832714Y-74255380D01*
X121213666Y-74255380D01*
X121308904Y-74303000D01*
X121356523Y-74350619D01*
X121404142Y-74445857D01*
X121404142Y-74588714D01*
X121356523Y-74683952D01*
X121308904Y-74731571D01*
X121213666Y-74779190D01*
X120832714Y-74779190D01*
X122356523Y-75255380D02*
X121785095Y-75255380D01*
X122070809Y-75255380D02*
X122070809Y-74255380D01*
X121975571Y-74398238D01*
X121880333Y-74493476D01*
X121785095Y-74541095D01*
X122737476Y-74350619D02*
X122785095Y-74303000D01*
X122880333Y-74255380D01*
X123118428Y-74255380D01*
X123213666Y-74303000D01*
X123261285Y-74350619D01*
X123308904Y-74445857D01*
X123308904Y-74541095D01*
X123261285Y-74683952D01*
X122689857Y-75255380D01*
X123308904Y-75255380D01*
G04 #@! TO.C,R13*
X121277142Y-63698380D02*
X120943809Y-63222190D01*
X120705714Y-63698380D02*
X120705714Y-62698380D01*
X121086666Y-62698380D01*
X121181904Y-62746000D01*
X121229523Y-62793619D01*
X121277142Y-62888857D01*
X121277142Y-63031714D01*
X121229523Y-63126952D01*
X121181904Y-63174571D01*
X121086666Y-63222190D01*
X120705714Y-63222190D01*
X122229523Y-63698380D02*
X121658095Y-63698380D01*
X121943809Y-63698380D02*
X121943809Y-62698380D01*
X121848571Y-62841238D01*
X121753333Y-62936476D01*
X121658095Y-62984095D01*
X122562857Y-62698380D02*
X123181904Y-62698380D01*
X122848571Y-63079333D01*
X122991428Y-63079333D01*
X123086666Y-63126952D01*
X123134285Y-63174571D01*
X123181904Y-63269809D01*
X123181904Y-63507904D01*
X123134285Y-63603142D01*
X123086666Y-63650761D01*
X122991428Y-63698380D01*
X122705714Y-63698380D01*
X122610476Y-63650761D01*
X122562857Y-63603142D01*
G04 #@! TO.C,R14*
X153995380Y-66047857D02*
X153519190Y-66381190D01*
X153995380Y-66619285D02*
X152995380Y-66619285D01*
X152995380Y-66238333D01*
X153043000Y-66143095D01*
X153090619Y-66095476D01*
X153185857Y-66047857D01*
X153328714Y-66047857D01*
X153423952Y-66095476D01*
X153471571Y-66143095D01*
X153519190Y-66238333D01*
X153519190Y-66619285D01*
X153995380Y-65095476D02*
X153995380Y-65666904D01*
X153995380Y-65381190D02*
X152995380Y-65381190D01*
X153138238Y-65476428D01*
X153233476Y-65571666D01*
X153281095Y-65666904D01*
X153328714Y-64238333D02*
X153995380Y-64238333D01*
X152947761Y-64476428D02*
X153662047Y-64714523D01*
X153662047Y-64095476D01*
G04 #@! TO.C,R15*
X130627380Y-66047857D02*
X130151190Y-66381190D01*
X130627380Y-66619285D02*
X129627380Y-66619285D01*
X129627380Y-66238333D01*
X129675000Y-66143095D01*
X129722619Y-66095476D01*
X129817857Y-66047857D01*
X129960714Y-66047857D01*
X130055952Y-66095476D01*
X130103571Y-66143095D01*
X130151190Y-66238333D01*
X130151190Y-66619285D01*
X130627380Y-65095476D02*
X130627380Y-65666904D01*
X130627380Y-65381190D02*
X129627380Y-65381190D01*
X129770238Y-65476428D01*
X129865476Y-65571666D01*
X129913095Y-65666904D01*
X129627380Y-64190714D02*
X129627380Y-64666904D01*
X130103571Y-64714523D01*
X130055952Y-64666904D01*
X130008333Y-64571666D01*
X130008333Y-64333571D01*
X130055952Y-64238333D01*
X130103571Y-64190714D01*
X130198809Y-64143095D01*
X130436904Y-64143095D01*
X130532142Y-64190714D01*
X130579761Y-64238333D01*
X130627380Y-64333571D01*
X130627380Y-64571666D01*
X130579761Y-64666904D01*
X130532142Y-64714523D01*
G04 #@! TO.C,R16*
X144724380Y-66047857D02*
X144248190Y-66381190D01*
X144724380Y-66619285D02*
X143724380Y-66619285D01*
X143724380Y-66238333D01*
X143772000Y-66143095D01*
X143819619Y-66095476D01*
X143914857Y-66047857D01*
X144057714Y-66047857D01*
X144152952Y-66095476D01*
X144200571Y-66143095D01*
X144248190Y-66238333D01*
X144248190Y-66619285D01*
X144724380Y-65095476D02*
X144724380Y-65666904D01*
X144724380Y-65381190D02*
X143724380Y-65381190D01*
X143867238Y-65476428D01*
X143962476Y-65571666D01*
X144010095Y-65666904D01*
X143724380Y-64238333D02*
X143724380Y-64428809D01*
X143772000Y-64524047D01*
X143819619Y-64571666D01*
X143962476Y-64666904D01*
X144152952Y-64714523D01*
X144533904Y-64714523D01*
X144629142Y-64666904D01*
X144676761Y-64619285D01*
X144724380Y-64524047D01*
X144724380Y-64333571D01*
X144676761Y-64238333D01*
X144629142Y-64190714D01*
X144533904Y-64143095D01*
X144295809Y-64143095D01*
X144200571Y-64190714D01*
X144152952Y-64238333D01*
X144105333Y-64333571D01*
X144105333Y-64524047D01*
X144152952Y-64619285D01*
X144200571Y-64666904D01*
X144295809Y-64714523D01*
G04 #@! TO.C,C6*
X179154666Y-60560857D02*
X179106285Y-60609238D01*
X178961142Y-60657619D01*
X178864380Y-60657619D01*
X178719238Y-60609238D01*
X178622476Y-60512476D01*
X178574095Y-60415714D01*
X178525714Y-60222190D01*
X178525714Y-60077047D01*
X178574095Y-59883523D01*
X178622476Y-59786761D01*
X178719238Y-59690000D01*
X178864380Y-59641619D01*
X178961142Y-59641619D01*
X179106285Y-59690000D01*
X179154666Y-59738380D01*
X180025523Y-59641619D02*
X179832000Y-59641619D01*
X179735238Y-59690000D01*
X179686857Y-59738380D01*
X179590095Y-59883523D01*
X179541714Y-60077047D01*
X179541714Y-60464095D01*
X179590095Y-60560857D01*
X179638476Y-60609238D01*
X179735238Y-60657619D01*
X179928761Y-60657619D01*
X180025523Y-60609238D01*
X180073904Y-60560857D01*
X180122285Y-60464095D01*
X180122285Y-60222190D01*
X180073904Y-60125428D01*
X180025523Y-60077047D01*
X179928761Y-60028666D01*
X179735238Y-60028666D01*
X179638476Y-60077047D01*
X179590095Y-60125428D01*
X179541714Y-60222190D01*
G04 #@! TO.C,D2*
X164350095Y-55196619D02*
X164350095Y-54180619D01*
X164592000Y-54180619D01*
X164737142Y-54229000D01*
X164833904Y-54325761D01*
X164882285Y-54422523D01*
X164930666Y-54616047D01*
X164930666Y-54761190D01*
X164882285Y-54954714D01*
X164833904Y-55051476D01*
X164737142Y-55148238D01*
X164592000Y-55196619D01*
X164350095Y-55196619D01*
X165317714Y-54277380D02*
X165366095Y-54229000D01*
X165462857Y-54180619D01*
X165704761Y-54180619D01*
X165801523Y-54229000D01*
X165849904Y-54277380D01*
X165898285Y-54374142D01*
X165898285Y-54470904D01*
X165849904Y-54616047D01*
X165269333Y-55196619D01*
X165898285Y-55196619D01*
G04 #@! TO.C,D7*
X178701095Y-73103619D02*
X178701095Y-72087619D01*
X178943000Y-72087619D01*
X179088142Y-72136000D01*
X179184904Y-72232761D01*
X179233285Y-72329523D01*
X179281666Y-72523047D01*
X179281666Y-72668190D01*
X179233285Y-72861714D01*
X179184904Y-72958476D01*
X179088142Y-73055238D01*
X178943000Y-73103619D01*
X178701095Y-73103619D01*
X179620333Y-72087619D02*
X180297666Y-72087619D01*
X179862238Y-73103619D01*
G04 #@! TO.C,D8*
X178320095Y-63324619D02*
X178320095Y-62308619D01*
X178562000Y-62308619D01*
X178707142Y-62357000D01*
X178803904Y-62453761D01*
X178852285Y-62550523D01*
X178900666Y-62744047D01*
X178900666Y-62889190D01*
X178852285Y-63082714D01*
X178803904Y-63179476D01*
X178707142Y-63276238D01*
X178562000Y-63324619D01*
X178320095Y-63324619D01*
X179481238Y-62744047D02*
X179384476Y-62695666D01*
X179336095Y-62647285D01*
X179287714Y-62550523D01*
X179287714Y-62502142D01*
X179336095Y-62405380D01*
X179384476Y-62357000D01*
X179481238Y-62308619D01*
X179674761Y-62308619D01*
X179771523Y-62357000D01*
X179819904Y-62405380D01*
X179868285Y-62502142D01*
X179868285Y-62550523D01*
X179819904Y-62647285D01*
X179771523Y-62695666D01*
X179674761Y-62744047D01*
X179481238Y-62744047D01*
X179384476Y-62792428D01*
X179336095Y-62840809D01*
X179287714Y-62937571D01*
X179287714Y-63131095D01*
X179336095Y-63227857D01*
X179384476Y-63276238D01*
X179481238Y-63324619D01*
X179674761Y-63324619D01*
X179771523Y-63276238D01*
X179819904Y-63227857D01*
X179868285Y-63131095D01*
X179868285Y-62937571D01*
X179819904Y-62840809D01*
X179771523Y-62792428D01*
X179674761Y-62744047D01*
G04 #@! TO.C,D9*
X178320095Y-67896619D02*
X178320095Y-66880619D01*
X178562000Y-66880619D01*
X178707142Y-66929000D01*
X178803904Y-67025761D01*
X178852285Y-67122523D01*
X178900666Y-67316047D01*
X178900666Y-67461190D01*
X178852285Y-67654714D01*
X178803904Y-67751476D01*
X178707142Y-67848238D01*
X178562000Y-67896619D01*
X178320095Y-67896619D01*
X179384476Y-67896619D02*
X179578000Y-67896619D01*
X179674761Y-67848238D01*
X179723142Y-67799857D01*
X179819904Y-67654714D01*
X179868285Y-67461190D01*
X179868285Y-67074142D01*
X179819904Y-66977380D01*
X179771523Y-66929000D01*
X179674761Y-66880619D01*
X179481238Y-66880619D01*
X179384476Y-66929000D01*
X179336095Y-66977380D01*
X179287714Y-67074142D01*
X179287714Y-67316047D01*
X179336095Y-67412809D01*
X179384476Y-67461190D01*
X179481238Y-67509571D01*
X179674761Y-67509571D01*
X179771523Y-67461190D01*
X179819904Y-67412809D01*
X179868285Y-67316047D01*
G04 #@! TO.C,D10*
X154002619Y-77941714D02*
X152986619Y-77941714D01*
X152986619Y-77699809D01*
X153035000Y-77554666D01*
X153131761Y-77457904D01*
X153228523Y-77409523D01*
X153422047Y-77361142D01*
X153567190Y-77361142D01*
X153760714Y-77409523D01*
X153857476Y-77457904D01*
X153954238Y-77554666D01*
X154002619Y-77699809D01*
X154002619Y-77941714D01*
X154002619Y-76393523D02*
X154002619Y-76974095D01*
X154002619Y-76683809D02*
X152986619Y-76683809D01*
X153131761Y-76780571D01*
X153228523Y-76877333D01*
X153276904Y-76974095D01*
X152986619Y-75764571D02*
X152986619Y-75667809D01*
X153035000Y-75571047D01*
X153083380Y-75522666D01*
X153180142Y-75474285D01*
X153373666Y-75425904D01*
X153615571Y-75425904D01*
X153809095Y-75474285D01*
X153905857Y-75522666D01*
X153954238Y-75571047D01*
X154002619Y-75667809D01*
X154002619Y-75764571D01*
X153954238Y-75861333D01*
X153905857Y-75909714D01*
X153809095Y-75958095D01*
X153615571Y-76006476D01*
X153373666Y-76006476D01*
X153180142Y-75958095D01*
X153083380Y-75909714D01*
X153035000Y-75861333D01*
X152986619Y-75764571D01*
G04 #@! TO.C,D11*
X177455285Y-81993619D02*
X177455285Y-80977619D01*
X177697190Y-80977619D01*
X177842333Y-81026000D01*
X177939095Y-81122761D01*
X177987476Y-81219523D01*
X178035857Y-81413047D01*
X178035857Y-81558190D01*
X177987476Y-81751714D01*
X177939095Y-81848476D01*
X177842333Y-81945238D01*
X177697190Y-81993619D01*
X177455285Y-81993619D01*
X179003476Y-81993619D02*
X178422904Y-81993619D01*
X178713190Y-81993619D02*
X178713190Y-80977619D01*
X178616428Y-81122761D01*
X178519666Y-81219523D01*
X178422904Y-81267904D01*
X179971095Y-81993619D02*
X179390523Y-81993619D01*
X179680809Y-81993619D02*
X179680809Y-80977619D01*
X179584047Y-81122761D01*
X179487285Y-81219523D01*
X179390523Y-81267904D01*
G04 #@! TO.C,D12*
X150954619Y-77941714D02*
X149938619Y-77941714D01*
X149938619Y-77699809D01*
X149987000Y-77554666D01*
X150083761Y-77457904D01*
X150180523Y-77409523D01*
X150374047Y-77361142D01*
X150519190Y-77361142D01*
X150712714Y-77409523D01*
X150809476Y-77457904D01*
X150906238Y-77554666D01*
X150954619Y-77699809D01*
X150954619Y-77941714D01*
X150954619Y-76393523D02*
X150954619Y-76974095D01*
X150954619Y-76683809D02*
X149938619Y-76683809D01*
X150083761Y-76780571D01*
X150180523Y-76877333D01*
X150228904Y-76974095D01*
X150035380Y-76006476D02*
X149987000Y-75958095D01*
X149938619Y-75861333D01*
X149938619Y-75619428D01*
X149987000Y-75522666D01*
X150035380Y-75474285D01*
X150132142Y-75425904D01*
X150228904Y-75425904D01*
X150374047Y-75474285D01*
X150954619Y-76054857D01*
X150954619Y-75425904D01*
G04 #@! TO.C,Q2*
X126014238Y-69009380D02*
X125917476Y-68961000D01*
X125820714Y-68864238D01*
X125675571Y-68719095D01*
X125578809Y-68670714D01*
X125482047Y-68670714D01*
X125530428Y-68912619D02*
X125433666Y-68864238D01*
X125336904Y-68767476D01*
X125288523Y-68573952D01*
X125288523Y-68235285D01*
X125336904Y-68041761D01*
X125433666Y-67945000D01*
X125530428Y-67896619D01*
X125723952Y-67896619D01*
X125820714Y-67945000D01*
X125917476Y-68041761D01*
X125965857Y-68235285D01*
X125965857Y-68573952D01*
X125917476Y-68767476D01*
X125820714Y-68864238D01*
X125723952Y-68912619D01*
X125530428Y-68912619D01*
X126352904Y-67993380D02*
X126401285Y-67945000D01*
X126498047Y-67896619D01*
X126739952Y-67896619D01*
X126836714Y-67945000D01*
X126885095Y-67993380D01*
X126933476Y-68090142D01*
X126933476Y-68186904D01*
X126885095Y-68332047D01*
X126304523Y-68912619D01*
X126933476Y-68912619D01*
G04 #@! TO.C,R17*
X178252380Y-88653857D02*
X177776190Y-88987190D01*
X178252380Y-89225285D02*
X177252380Y-89225285D01*
X177252380Y-88844333D01*
X177300000Y-88749095D01*
X177347619Y-88701476D01*
X177442857Y-88653857D01*
X177585714Y-88653857D01*
X177680952Y-88701476D01*
X177728571Y-88749095D01*
X177776190Y-88844333D01*
X177776190Y-89225285D01*
X178252380Y-87701476D02*
X178252380Y-88272904D01*
X178252380Y-87987190D02*
X177252380Y-87987190D01*
X177395238Y-88082428D01*
X177490476Y-88177666D01*
X177538095Y-88272904D01*
X177252380Y-87368142D02*
X177252380Y-86701476D01*
X178252380Y-87130047D01*
G04 #@! TO.C,R18*
X144724380Y-77477857D02*
X144248190Y-77811190D01*
X144724380Y-78049285D02*
X143724380Y-78049285D01*
X143724380Y-77668333D01*
X143772000Y-77573095D01*
X143819619Y-77525476D01*
X143914857Y-77477857D01*
X144057714Y-77477857D01*
X144152952Y-77525476D01*
X144200571Y-77573095D01*
X144248190Y-77668333D01*
X144248190Y-78049285D01*
X144724380Y-76525476D02*
X144724380Y-77096904D01*
X144724380Y-76811190D02*
X143724380Y-76811190D01*
X143867238Y-76906428D01*
X143962476Y-77001666D01*
X144010095Y-77096904D01*
X144152952Y-75954047D02*
X144105333Y-76049285D01*
X144057714Y-76096904D01*
X143962476Y-76144523D01*
X143914857Y-76144523D01*
X143819619Y-76096904D01*
X143772000Y-76049285D01*
X143724380Y-75954047D01*
X143724380Y-75763571D01*
X143772000Y-75668333D01*
X143819619Y-75620714D01*
X143914857Y-75573095D01*
X143962476Y-75573095D01*
X144057714Y-75620714D01*
X144105333Y-75668333D01*
X144152952Y-75763571D01*
X144152952Y-75954047D01*
X144200571Y-76049285D01*
X144248190Y-76096904D01*
X144343428Y-76144523D01*
X144533904Y-76144523D01*
X144629142Y-76096904D01*
X144676761Y-76049285D01*
X144724380Y-75954047D01*
X144724380Y-75763571D01*
X144676761Y-75668333D01*
X144629142Y-75620714D01*
X144533904Y-75573095D01*
X144343428Y-75573095D01*
X144248190Y-75620714D01*
X144200571Y-75668333D01*
X144152952Y-75763571D01*
G04 #@! TO.C,R19*
X150947380Y-66047857D02*
X150471190Y-66381190D01*
X150947380Y-66619285D02*
X149947380Y-66619285D01*
X149947380Y-66238333D01*
X149995000Y-66143095D01*
X150042619Y-66095476D01*
X150137857Y-66047857D01*
X150280714Y-66047857D01*
X150375952Y-66095476D01*
X150423571Y-66143095D01*
X150471190Y-66238333D01*
X150471190Y-66619285D01*
X150947380Y-65095476D02*
X150947380Y-65666904D01*
X150947380Y-65381190D02*
X149947380Y-65381190D01*
X150090238Y-65476428D01*
X150185476Y-65571666D01*
X150233095Y-65666904D01*
X150947380Y-64619285D02*
X150947380Y-64428809D01*
X150899761Y-64333571D01*
X150852142Y-64285952D01*
X150709285Y-64190714D01*
X150518809Y-64143095D01*
X150137857Y-64143095D01*
X150042619Y-64190714D01*
X149995000Y-64238333D01*
X149947380Y-64333571D01*
X149947380Y-64524047D01*
X149995000Y-64619285D01*
X150042619Y-64666904D01*
X150137857Y-64714523D01*
X150375952Y-64714523D01*
X150471190Y-64666904D01*
X150518809Y-64619285D01*
X150566428Y-64524047D01*
X150566428Y-64333571D01*
X150518809Y-64238333D01*
X150471190Y-64190714D01*
X150375952Y-64143095D01*
G04 #@! TO.C,Q3*
X171607238Y-67104380D02*
X171510476Y-67056000D01*
X171413714Y-66959238D01*
X171268571Y-66814095D01*
X171171809Y-66765714D01*
X171075047Y-66765714D01*
X171123428Y-67007619D02*
X171026666Y-66959238D01*
X170929904Y-66862476D01*
X170881523Y-66668952D01*
X170881523Y-66330285D01*
X170929904Y-66136761D01*
X171026666Y-66040000D01*
X171123428Y-65991619D01*
X171316952Y-65991619D01*
X171413714Y-66040000D01*
X171510476Y-66136761D01*
X171558857Y-66330285D01*
X171558857Y-66668952D01*
X171510476Y-66862476D01*
X171413714Y-66959238D01*
X171316952Y-67007619D01*
X171123428Y-67007619D01*
X171897523Y-65991619D02*
X172526476Y-65991619D01*
X172187809Y-66378666D01*
X172332952Y-66378666D01*
X172429714Y-66427047D01*
X172478095Y-66475428D01*
X172526476Y-66572190D01*
X172526476Y-66814095D01*
X172478095Y-66910857D01*
X172429714Y-66959238D01*
X172332952Y-67007619D01*
X172042666Y-67007619D01*
X171945904Y-66959238D01*
X171897523Y-66910857D01*
G04 #@! TO.C,D4*
X174195619Y-76822904D02*
X173179619Y-76822904D01*
X173179619Y-76581000D01*
X173228000Y-76435857D01*
X173324761Y-76339095D01*
X173421523Y-76290714D01*
X173615047Y-76242333D01*
X173760190Y-76242333D01*
X173953714Y-76290714D01*
X174050476Y-76339095D01*
X174147238Y-76435857D01*
X174195619Y-76581000D01*
X174195619Y-76822904D01*
X173518285Y-75371476D02*
X174195619Y-75371476D01*
X173131238Y-75613380D02*
X173856952Y-75855285D01*
X173856952Y-75226333D01*
G04 #@! TO.C,D5*
X173875095Y-69547619D02*
X173875095Y-68531619D01*
X174117000Y-68531619D01*
X174262142Y-68580000D01*
X174358904Y-68676761D01*
X174407285Y-68773523D01*
X174455666Y-68967047D01*
X174455666Y-69112190D01*
X174407285Y-69305714D01*
X174358904Y-69402476D01*
X174262142Y-69499238D01*
X174117000Y-69547619D01*
X173875095Y-69547619D01*
X175374904Y-68531619D02*
X174891095Y-68531619D01*
X174842714Y-69015428D01*
X174891095Y-68967047D01*
X174987857Y-68918666D01*
X175229761Y-68918666D01*
X175326523Y-68967047D01*
X175374904Y-69015428D01*
X175423285Y-69112190D01*
X175423285Y-69354095D01*
X175374904Y-69450857D01*
X175326523Y-69499238D01*
X175229761Y-69547619D01*
X174987857Y-69547619D01*
X174891095Y-69499238D01*
X174842714Y-69450857D01*
G04 #@! TO.C,RV1*
X112473619Y-61183761D02*
X111989809Y-61522428D01*
X112473619Y-61764333D02*
X111457619Y-61764333D01*
X111457619Y-61377285D01*
X111506000Y-61280523D01*
X111554380Y-61232142D01*
X111651142Y-61183761D01*
X111796285Y-61183761D01*
X111893047Y-61232142D01*
X111941428Y-61280523D01*
X111989809Y-61377285D01*
X111989809Y-61764333D01*
X111457619Y-60893476D02*
X112473619Y-60554809D01*
X111457619Y-60216142D01*
X112473619Y-59345285D02*
X112473619Y-59925857D01*
X112473619Y-59635571D02*
X111457619Y-59635571D01*
X111602761Y-59732333D01*
X111699523Y-59829095D01*
X111747904Y-59925857D01*
G04 #@! TO.C,U3*
D18*
X163322095Y-76668380D02*
X163322095Y-77477904D01*
X163369714Y-77573142D01*
X163417333Y-77620761D01*
X163512571Y-77668380D01*
X163703047Y-77668380D01*
X163798285Y-77620761D01*
X163845904Y-77573142D01*
X163893523Y-77477904D01*
X163893523Y-76668380D01*
X164274476Y-76668380D02*
X164893523Y-76668380D01*
X164560190Y-77049333D01*
X164703047Y-77049333D01*
X164798285Y-77096952D01*
X164845904Y-77144571D01*
X164893523Y-77239809D01*
X164893523Y-77477904D01*
X164845904Y-77573142D01*
X164798285Y-77620761D01*
X164703047Y-77668380D01*
X164417333Y-77668380D01*
X164322095Y-77620761D01*
X164274476Y-77573142D01*
G04 #@! TO.C,U5*
X136398095Y-65619380D02*
X136398095Y-66428904D01*
X136445714Y-66524142D01*
X136493333Y-66571761D01*
X136588571Y-66619380D01*
X136779047Y-66619380D01*
X136874285Y-66571761D01*
X136921904Y-66524142D01*
X136969523Y-66428904D01*
X136969523Y-65619380D01*
X137921904Y-65619380D02*
X137445714Y-65619380D01*
X137398095Y-66095571D01*
X137445714Y-66047952D01*
X137540952Y-66000333D01*
X137779047Y-66000333D01*
X137874285Y-66047952D01*
X137921904Y-66095571D01*
X137969523Y-66190809D01*
X137969523Y-66428904D01*
X137921904Y-66524142D01*
X137874285Y-66571761D01*
X137779047Y-66619380D01*
X137540952Y-66619380D01*
X137445714Y-66571761D01*
X137398095Y-66524142D01*
G04 #@! TO.C,T1*
D17*
X142100904Y-50624619D02*
X142681476Y-50624619D01*
X142391190Y-51640619D02*
X142391190Y-50624619D01*
X143552333Y-51640619D02*
X142971761Y-51640619D01*
X143262047Y-51640619D02*
X143262047Y-50624619D01*
X143165285Y-50769761D01*
X143068523Y-50866523D01*
X142971761Y-50914904D01*
G04 #@! TD*
M02*
