M48
; DRILL file {KiCad (5.1.6-0-10_14)} date Saturday, March 13, 2021 at 09:10:43 PM
; FORMAT={-:-/ absolute / metric / decimal}
; #@! TF.CreationDate,2021-03-13T21:10:43+01:00
; #@! TF.GenerationSoftware,Kicad,Pcbnew,(5.1.6-0-10_14)
; #@! TF.FileFunction,Plated,1,2,PTH
FMAT,2
METRIC
T1C0.800
T2C1.000
T3C1.200
T4C3.000
%
G90
G05
T1
X137.541Y-73.406
X137.541Y-77.724
X164.592Y-67.031
X164.592Y-71.907
X147.447Y-62.23
X147.447Y-67.31
X150.495Y-60.96
X150.495Y-69.85
X123.825Y-68.326
X123.825Y-72.136
X125.73Y-70.231
X159.512Y-89.916
X168.402Y-89.916
X181.356Y-83.566
X181.356Y-92.456
X156.591Y-62.23
X156.591Y-67.31
X173.736Y-72.263
X173.736Y-79.883
X144.272Y-72.39
X144.272Y-81.28
X144.272Y-60.96
X144.272Y-69.85
X150.495Y-72.898
X150.495Y-80.518
X144.145Y-83.82
X144.145Y-92.71
X180.975Y-78.486
X180.975Y-81.026
X172.212Y-53.467
X179.832Y-53.467
X177.8Y-83.566
X177.8Y-92.456
X130.175Y-60.96
X130.175Y-69.85
X117.602Y-80.137
X126.492Y-80.137
X161.671Y-59.182
X163.576Y-57.277
X165.481Y-59.182
X119.38Y-65.786
X124.46Y-65.786
X161.163Y-62.103
X166.243Y-62.103
X156.591Y-72.263
X156.591Y-81.153
X161.29Y-31.496
X168.91Y-31.496
X153.543Y-60.96
X153.543Y-69.85
X109.22Y-77.724
X114.3Y-77.724
X174.625Y-83.566
X174.625Y-92.456
X133.35Y-63.5
X133.35Y-66.04
X133.35Y-68.58
X133.35Y-71.12
X133.35Y-73.66
X133.35Y-76.2
X133.35Y-78.74
X140.97Y-63.5
X140.97Y-66.04
X140.97Y-68.58
X140.97Y-71.12
X140.97Y-73.66
X140.97Y-76.2
X140.97Y-78.74
X160.147Y-66.929
X160.147Y-69.469
X160.147Y-72.009
X160.147Y-74.549
X160.147Y-77.089
X160.147Y-79.629
X160.147Y-82.169
X167.767Y-66.929
X167.767Y-69.469
X167.767Y-72.009
X167.767Y-74.549
X167.767Y-77.089
X167.767Y-79.629
X167.767Y-82.169
X147.828Y-89.916
X156.718Y-89.916
X117.475Y-63.246
X126.365Y-63.246
X149.606Y-85.725
X154.686Y-85.725
X109.22Y-80.391
X114.3Y-80.391
X153.543Y-72.898
X153.543Y-80.518
X123.063Y-84.582
X123.063Y-92.202
X125.603Y-84.582
X125.603Y-92.202
X128.143Y-84.582
X128.143Y-92.202
X130.683Y-84.582
X130.683Y-92.202
X133.223Y-84.582
X133.223Y-92.202
X135.763Y-84.582
X135.763Y-92.202
X138.303Y-84.582
X138.303Y-92.202
X140.843Y-84.582
X140.843Y-92.202
X171.45Y-83.566
X171.45Y-92.456
X180.975Y-68.326
X180.975Y-70.866
X173.736Y-56.642
X173.736Y-61.722
X111.608Y-84.836
X116.688Y-84.836
X118.745Y-68.326
X118.745Y-72.136
X120.65Y-70.231
X117.602Y-74.803
X126.492Y-74.803
X180.975Y-63.246
X180.975Y-65.786
X170.815Y-69.088
X178.435Y-69.088
X180.975Y-73.406
X180.975Y-75.946
X117.475Y-60.706
X126.365Y-60.706
X119.634Y-77.47
X124.714Y-77.47
X171.958Y-64.643
X173.863Y-66.548
X175.768Y-64.643
X159.512Y-86.741
X168.402Y-86.741
X168.275Y-59.182
X170.18Y-57.277
X170.18Y-61.087
X129.388Y-76.225
X129.388Y-81.305
X177.038Y-72.263
X177.038Y-79.883
X161.29Y-54.737
X168.91Y-54.737
X147.447Y-72.39
X147.447Y-81.28
T2
X111.125Y-58.166
X111.125Y-63.246
X113.665Y-60.706
X165.1Y-45.72
X165.1Y-50.8
X172.339Y-32.131
X172.339Y-37.211
X172.339Y-42.291
X172.339Y-49.911
X179.959Y-32.131
X179.959Y-37.211
X179.959Y-42.291
X179.959Y-49.911
X165.1Y-35.306
X165.1Y-40.386
X176.784Y-58.801
X181.864Y-58.801
T3
X187.325Y-64.516
X187.325Y-69.596
X187.325Y-74.676
X111.125Y-68.326
X111.125Y-73.406
X132.715Y-34.671
X137.795Y-54.991
X147.955Y-54.991
X153.035Y-34.671
X153.035Y-54.991
X187.325Y-54.356
X187.325Y-59.436
X187.325Y-39.116
X187.325Y-44.196
X187.325Y-49.276
X187.325Y-79.756
X187.325Y-84.836
X121.285Y-33.401
X121.285Y-56.261
X111.125Y-58.166
X111.125Y-63.246
X111.125Y-40.005
X111.125Y-45.085
T4
X187.96Y-32.766
X110.744Y-32.766
X110.744Y-91.186
X187.96Y-91.186
T0
M30
