G04 #@! TF.GenerationSoftware,KiCad,Pcbnew,(5.0.1-3-g963ef8bb5)*
G04 #@! TF.CreationDate,2019-01-03T16:06:43+01:00*
G04 #@! TF.ProjectId,AnalogEVSE,416E616C6F67455653452E6B69636164,1.6*
G04 #@! TF.SameCoordinates,Original*
G04 #@! TF.FileFunction,Copper,L2,Bot,Signal*
G04 #@! TF.FilePolarity,Positive*
%FSLAX46Y46*%
G04 Gerber Fmt 4.6, Leading zero omitted, Abs format (unit mm)*
G04 Created by KiCad (PCBNEW (5.0.1-3-g963ef8bb5)) date 2019 January 03, Thursday 16:06:43*
%MOMM*%
%LPD*%
G01*
G04 APERTURE LIST*
G04 #@! TA.AperFunction,NonConductor*
%ADD10C,0.300000*%
G04 #@! TD*
G04 #@! TA.AperFunction,ComponentPad*
%ADD11R,1.800000X1.800000*%
G04 #@! TD*
G04 #@! TA.AperFunction,ComponentPad*
%ADD12C,1.800000*%
G04 #@! TD*
G04 #@! TA.AperFunction,ComponentPad*
%ADD13C,1.600000*%
G04 #@! TD*
G04 #@! TA.AperFunction,ComponentPad*
%ADD14R,1.600000X1.600000*%
G04 #@! TD*
G04 #@! TA.AperFunction,ComponentPad*
%ADD15C,3.000000*%
G04 #@! TD*
G04 #@! TA.AperFunction,ComponentPad*
%ADD16C,2.000000*%
G04 #@! TD*
G04 #@! TA.AperFunction,ComponentPad*
%ADD17C,2.400000*%
G04 #@! TD*
G04 #@! TA.AperFunction,ComponentPad*
%ADD18C,1.500000*%
G04 #@! TD*
G04 #@! TA.AperFunction,ComponentPad*
%ADD19O,1.500000X2.286000*%
G04 #@! TD*
G04 #@! TA.AperFunction,ComponentPad*
%ADD20R,1.500000X2.286000*%
G04 #@! TD*
G04 #@! TA.AperFunction,ComponentPad*
%ADD21R,2.286000X1.500000*%
G04 #@! TD*
G04 #@! TA.AperFunction,ComponentPad*
%ADD22O,2.286000X1.500000*%
G04 #@! TD*
G04 #@! TA.AperFunction,ViaPad*
%ADD23C,1.400000*%
G04 #@! TD*
G04 #@! TA.AperFunction,Conductor*
%ADD24C,0.400000*%
G04 #@! TD*
G04 #@! TA.AperFunction,Conductor*
%ADD25C,0.600000*%
G04 #@! TD*
G04 #@! TA.AperFunction,Conductor*
%ADD26C,0.300000*%
G04 #@! TD*
G04 #@! TA.AperFunction,Conductor*
%ADD27C,0.800000*%
G04 #@! TD*
G04 APERTURE END LIST*
D10*
X152523257Y-42574171D02*
X152237542Y-43574171D01*
X151951828Y-42859885D01*
X151666114Y-43574171D01*
X151380400Y-42574171D01*
X150951828Y-42574171D02*
X150666114Y-43574171D01*
X150380400Y-42859885D01*
X150094685Y-43574171D01*
X149808971Y-42574171D01*
X149380400Y-42574171D02*
X149094685Y-43574171D01*
X148808971Y-42859885D01*
X148523257Y-43574171D01*
X148237542Y-42574171D01*
X147666114Y-43431314D02*
X147594685Y-43502742D01*
X147666114Y-43574171D01*
X147737542Y-43502742D01*
X147666114Y-43431314D01*
X147666114Y-43574171D01*
X146308971Y-43574171D02*
X146308971Y-42788457D01*
X146380400Y-42645600D01*
X146523257Y-42574171D01*
X146808971Y-42574171D01*
X146951828Y-42645600D01*
X146308971Y-43502742D02*
X146451828Y-43574171D01*
X146808971Y-43574171D01*
X146951828Y-43502742D01*
X147023257Y-43359885D01*
X147023257Y-43217028D01*
X146951828Y-43074171D01*
X146808971Y-43002742D01*
X146451828Y-43002742D01*
X146308971Y-42931314D01*
X145594685Y-42574171D02*
X145594685Y-43574171D01*
X145594685Y-42717028D02*
X145523257Y-42645600D01*
X145380400Y-42574171D01*
X145166114Y-42574171D01*
X145023257Y-42645600D01*
X144951828Y-42788457D01*
X144951828Y-43574171D01*
X143594685Y-43574171D02*
X143594685Y-42788457D01*
X143666114Y-42645600D01*
X143808971Y-42574171D01*
X144094685Y-42574171D01*
X144237542Y-42645600D01*
X143594685Y-43502742D02*
X143737542Y-43574171D01*
X144094685Y-43574171D01*
X144237542Y-43502742D01*
X144308971Y-43359885D01*
X144308971Y-43217028D01*
X144237542Y-43074171D01*
X144094685Y-43002742D01*
X143737542Y-43002742D01*
X143594685Y-42931314D01*
X142666114Y-43574171D02*
X142808971Y-43502742D01*
X142880400Y-43359885D01*
X142880400Y-42074171D01*
X141880400Y-43574171D02*
X142023257Y-43502742D01*
X142094685Y-43431314D01*
X142166114Y-43288457D01*
X142166114Y-42859885D01*
X142094685Y-42717028D01*
X142023257Y-42645600D01*
X141880400Y-42574171D01*
X141666114Y-42574171D01*
X141523257Y-42645600D01*
X141451828Y-42717028D01*
X141380400Y-42859885D01*
X141380400Y-43288457D01*
X141451828Y-43431314D01*
X141523257Y-43502742D01*
X141666114Y-43574171D01*
X141880400Y-43574171D01*
X140094685Y-42574171D02*
X140094685Y-43788457D01*
X140166114Y-43931314D01*
X140237542Y-44002742D01*
X140380400Y-44074171D01*
X140594685Y-44074171D01*
X140737542Y-44002742D01*
X140094685Y-43502742D02*
X140237542Y-43574171D01*
X140523257Y-43574171D01*
X140666114Y-43502742D01*
X140737542Y-43431314D01*
X140808971Y-43288457D01*
X140808971Y-42859885D01*
X140737542Y-42717028D01*
X140666114Y-42645600D01*
X140523257Y-42574171D01*
X140237542Y-42574171D01*
X140094685Y-42645600D01*
X138808971Y-43502742D02*
X138951828Y-43574171D01*
X139237542Y-43574171D01*
X139380400Y-43502742D01*
X139451828Y-43359885D01*
X139451828Y-42788457D01*
X139380400Y-42645600D01*
X139237542Y-42574171D01*
X138951828Y-42574171D01*
X138808971Y-42645600D01*
X138737542Y-42788457D01*
X138737542Y-42931314D01*
X139451828Y-43074171D01*
X138237542Y-42574171D02*
X137880400Y-43574171D01*
X137523257Y-42574171D01*
X137023257Y-43502742D02*
X136880400Y-43574171D01*
X136594685Y-43574171D01*
X136451828Y-43502742D01*
X136380400Y-43359885D01*
X136380400Y-43288457D01*
X136451828Y-43145600D01*
X136594685Y-43074171D01*
X136808971Y-43074171D01*
X136951828Y-43002742D01*
X137023257Y-42859885D01*
X137023257Y-42788457D01*
X136951828Y-42645600D01*
X136808971Y-42574171D01*
X136594685Y-42574171D01*
X136451828Y-42645600D01*
X135166114Y-43502742D02*
X135308971Y-43574171D01*
X135594685Y-43574171D01*
X135737542Y-43502742D01*
X135808971Y-43359885D01*
X135808971Y-42788457D01*
X135737542Y-42645600D01*
X135594685Y-42574171D01*
X135308971Y-42574171D01*
X135166114Y-42645600D01*
X135094685Y-42788457D01*
X135094685Y-42931314D01*
X135808971Y-43074171D01*
X134451828Y-43431314D02*
X134380400Y-43502742D01*
X134451828Y-43574171D01*
X134523257Y-43502742D01*
X134451828Y-43431314D01*
X134451828Y-43574171D01*
X133880400Y-43574171D02*
X133094685Y-42574171D01*
X133880400Y-42574171D02*
X133094685Y-43574171D01*
X132666114Y-42574171D02*
X132308971Y-43574171D01*
X131951828Y-42574171D02*
X132308971Y-43574171D01*
X132451828Y-43931314D01*
X132523257Y-44002742D01*
X132666114Y-44074171D01*
X131523257Y-42574171D02*
X130737542Y-42574171D01*
X131523257Y-43574171D01*
X130737542Y-43574171D01*
X150487542Y-45124171D02*
X150130400Y-46124171D01*
X149773257Y-45124171D01*
X149273257Y-44767028D02*
X149201828Y-44695600D01*
X149058971Y-44624171D01*
X148701828Y-44624171D01*
X148558971Y-44695600D01*
X148487542Y-44767028D01*
X148416114Y-44909885D01*
X148416114Y-45052742D01*
X148487542Y-45267028D01*
X149344685Y-46124171D01*
X148416114Y-46124171D01*
X147773257Y-45981314D02*
X147701828Y-46052742D01*
X147773257Y-46124171D01*
X147844685Y-46052742D01*
X147773257Y-45981314D01*
X147773257Y-46124171D01*
X146773257Y-44624171D02*
X146630400Y-44624171D01*
X146487542Y-44695600D01*
X146416114Y-44767028D01*
X146344685Y-44909885D01*
X146273257Y-45195600D01*
X146273257Y-45552742D01*
X146344685Y-45838457D01*
X146416114Y-45981314D01*
X146487542Y-46052742D01*
X146630400Y-46124171D01*
X146773257Y-46124171D01*
X146916114Y-46052742D01*
X146987542Y-45981314D01*
X147058971Y-45838457D01*
X147130400Y-45552742D01*
X147130400Y-45195600D01*
X147058971Y-44909885D01*
X146987542Y-44767028D01*
X146916114Y-44695600D01*
X146773257Y-44624171D01*
X145630400Y-45981314D02*
X145558971Y-46052742D01*
X145630400Y-46124171D01*
X145701828Y-46052742D01*
X145630400Y-45981314D01*
X145630400Y-46124171D01*
X144630400Y-44624171D02*
X144487542Y-44624171D01*
X144344685Y-44695600D01*
X144273257Y-44767028D01*
X144201828Y-44909885D01*
X144130400Y-45195600D01*
X144130400Y-45552742D01*
X144201828Y-45838457D01*
X144273257Y-45981314D01*
X144344685Y-46052742D01*
X144487542Y-46124171D01*
X144630400Y-46124171D01*
X144773257Y-46052742D01*
X144844685Y-45981314D01*
X144916114Y-45838457D01*
X144987542Y-45552742D01*
X144987542Y-45195600D01*
X144916114Y-44909885D01*
X144844685Y-44767028D01*
X144773257Y-44695600D01*
X144630400Y-44624171D01*
X142058971Y-44624171D02*
X141916114Y-44624171D01*
X141773257Y-44695600D01*
X141701828Y-44767028D01*
X141630400Y-44909885D01*
X141558971Y-45195600D01*
X141558971Y-45552742D01*
X141630400Y-45838457D01*
X141701828Y-45981314D01*
X141773257Y-46052742D01*
X141916114Y-46124171D01*
X142058971Y-46124171D01*
X142201828Y-46052742D01*
X142273257Y-45981314D01*
X142344685Y-45838457D01*
X142416114Y-45552742D01*
X142416114Y-45195600D01*
X142344685Y-44909885D01*
X142273257Y-44767028D01*
X142201828Y-44695600D01*
X142058971Y-44624171D01*
X140130400Y-46124171D02*
X140987542Y-46124171D01*
X140558971Y-46124171D02*
X140558971Y-44624171D01*
X140701828Y-44838457D01*
X140844685Y-44981314D01*
X140987542Y-45052742D01*
X138416114Y-44552742D02*
X139701828Y-46481314D01*
X137987542Y-44767028D02*
X137916114Y-44695600D01*
X137773257Y-44624171D01*
X137416114Y-44624171D01*
X137273257Y-44695600D01*
X137201828Y-44767028D01*
X137130400Y-44909885D01*
X137130400Y-45052742D01*
X137201828Y-45267028D01*
X138058971Y-46124171D01*
X137130400Y-46124171D01*
X136201828Y-44624171D02*
X136058971Y-44624171D01*
X135916114Y-44695600D01*
X135844685Y-44767028D01*
X135773257Y-44909885D01*
X135701828Y-45195600D01*
X135701828Y-45552742D01*
X135773257Y-45838457D01*
X135844685Y-45981314D01*
X135916114Y-46052742D01*
X136058971Y-46124171D01*
X136201828Y-46124171D01*
X136344685Y-46052742D01*
X136416114Y-45981314D01*
X136487542Y-45838457D01*
X136558971Y-45552742D01*
X136558971Y-45195600D01*
X136487542Y-44909885D01*
X136416114Y-44767028D01*
X136344685Y-44695600D01*
X136201828Y-44624171D01*
X134273257Y-46124171D02*
X135130400Y-46124171D01*
X134701828Y-46124171D02*
X134701828Y-44624171D01*
X134844685Y-44838457D01*
X134987542Y-44981314D01*
X135130400Y-45052742D01*
X133558971Y-46124171D02*
X133273257Y-46124171D01*
X133130400Y-46052742D01*
X133058971Y-45981314D01*
X132916114Y-45767028D01*
X132844685Y-45481314D01*
X132844685Y-44909885D01*
X132916114Y-44767028D01*
X132987542Y-44695600D01*
X133130400Y-44624171D01*
X133416114Y-44624171D01*
X133558971Y-44695600D01*
X133630400Y-44767028D01*
X133701828Y-44909885D01*
X133701828Y-45267028D01*
X133630400Y-45409885D01*
X133558971Y-45481314D01*
X133416114Y-45552742D01*
X133130400Y-45552742D01*
X132987542Y-45481314D01*
X132916114Y-45409885D01*
X132844685Y-45267028D01*
D11*
G04 #@! TO.P,C1,2*
G04 #@! TO.N,GND*
X165100000Y-40386000D03*
D12*
G04 #@! TO.P,C1,1*
G04 #@! TO.N,Net-(C1-Pad1)*
X165100000Y-35306000D03*
G04 #@! TD*
D13*
G04 #@! TO.P,C2,1*
G04 #@! TO.N,GND*
X173736000Y-56642000D03*
G04 #@! TO.P,C2,2*
G04 #@! TO.N,+12V*
X173736000Y-61722000D03*
G04 #@! TD*
G04 #@! TO.P,C3,1*
G04 #@! TO.N,-12V*
X154686000Y-85725000D03*
G04 #@! TO.P,C3,2*
G04 #@! TO.N,Vconn*
X149606000Y-85725000D03*
G04 #@! TD*
D11*
G04 #@! TO.P,C4,2*
G04 #@! TO.N,Net-(C4-Pad2)*
X165100000Y-50800000D03*
D12*
G04 #@! TO.P,C4,1*
G04 #@! TO.N,GND*
X165100000Y-45720000D03*
G04 #@! TD*
D13*
G04 #@! TO.P,C5,1*
G04 #@! TO.N,-12V*
X166243000Y-62103000D03*
G04 #@! TO.P,C5,2*
G04 #@! TO.N,GND*
X161163000Y-62103000D03*
G04 #@! TD*
G04 #@! TO.P,C7,1*
G04 #@! TO.N,+12V*
X129387600Y-81305400D03*
G04 #@! TO.P,C7,2*
G04 #@! TO.N,GND*
X129387600Y-76225400D03*
G04 #@! TD*
G04 #@! TO.P,C8,1*
G04 #@! TO.N,Net-(C8-Pad1)*
X119634000Y-77470000D03*
G04 #@! TO.P,C8,2*
G04 #@! TO.N,GND*
X124714000Y-77470000D03*
G04 #@! TD*
G04 #@! TO.P,C9,1*
G04 #@! TO.N,Net-(C9-Pad1)*
X114300000Y-80391000D03*
G04 #@! TO.P,C9,2*
G04 #@! TO.N,GND*
X109220000Y-80391000D03*
G04 #@! TD*
G04 #@! TO.P,C10,1*
G04 #@! TO.N,Net-(C10-Pad1)*
X114300000Y-77724000D03*
G04 #@! TO.P,C10,2*
G04 #@! TO.N,GND*
X109220000Y-77724000D03*
G04 #@! TD*
G04 #@! TO.P,C11,1*
G04 #@! TO.N,Net-(C11-Pad1)*
X124460000Y-65786000D03*
G04 #@! TO.P,C11,2*
G04 #@! TO.N,GND*
X119380000Y-65786000D03*
G04 #@! TD*
G04 #@! TO.P,C12,1*
G04 #@! TO.N,Net-(C12-Pad1)*
X156591000Y-67310000D03*
G04 #@! TO.P,C12,2*
G04 #@! TO.N,GND*
X156591000Y-62230000D03*
G04 #@! TD*
G04 #@! TO.P,C13,1*
G04 #@! TO.N,Net-(C13-Pad1)*
X147447000Y-67310000D03*
G04 #@! TO.P,C13,2*
G04 #@! TO.N,GND*
X147447000Y-62230000D03*
G04 #@! TD*
D14*
G04 #@! TO.P,D1,2*
G04 #@! TO.N,Net-(C1-Pad1)*
X168910000Y-31496000D03*
D13*
G04 #@! TO.P,D1,1*
G04 #@! TO.N,Net-(D1-Pad1)*
X161290000Y-31496000D03*
G04 #@! TD*
D14*
G04 #@! TO.P,D3,2*
G04 #@! TO.N,+12V*
X173609000Y-53721000D03*
D13*
G04 #@! TO.P,D3,1*
G04 #@! TO.N,Net-(C6-Pad2)*
X181229000Y-53721000D03*
G04 #@! TD*
D14*
G04 #@! TO.P,D6,2*
G04 #@! TO.N,Net-(D6-Pad2)*
X177038000Y-72263000D03*
D13*
G04 #@! TO.P,D6,1*
G04 #@! TO.N,Net-(D6-Pad1)*
X177038000Y-79883000D03*
G04 #@! TD*
D15*
G04 #@! TO.P,F1,1*
G04 #@! TO.N,Net-(F1-Pad1)*
X121285000Y-56261000D03*
G04 #@! TO.P,F1,2*
G04 #@! TO.N,Net-(F1-Pad2)*
X121285000Y-33401000D03*
G04 #@! TD*
D16*
G04 #@! TO.P,K1,16*
G04 #@! TO.N,Net-(K1-Pad16)*
X179959000Y-32131000D03*
G04 #@! TO.P,K1,1*
G04 #@! TO.N,Net-(K1-Pad1)*
X172339000Y-32131000D03*
G04 #@! TO.P,K1,3*
G04 #@! TO.N,Net-(K1-Pad3)*
X172339000Y-37211000D03*
G04 #@! TO.P,K1,5*
G04 #@! TO.N,Net-(K1-Pad5)*
X172339000Y-42291000D03*
G04 #@! TO.P,K1,8*
G04 #@! TO.N,+12V*
X172339000Y-49911000D03*
G04 #@! TO.P,K1,9*
G04 #@! TO.N,Net-(C6-Pad2)*
X179959000Y-49911000D03*
G04 #@! TO.P,K1,12*
G04 #@! TO.N,Net-(K1-Pad12)*
X179959000Y-42291000D03*
G04 #@! TO.P,K1,14*
G04 #@! TO.N,Net-(K1-Pad14)*
X179959000Y-37211000D03*
G04 #@! TD*
D17*
G04 #@! TO.P,P1,1*
G04 #@! TO.N,Net-(F1-Pad1)*
X111125000Y-45085000D03*
G04 #@! TO.P,P1,2*
G04 #@! TO.N,Net-(P1-Pad2)*
X111125000Y-40005000D03*
G04 #@! TD*
G04 #@! TO.P,P2,1*
G04 #@! TO.N,Net-(K1-Pad12)*
X187325000Y-49276000D03*
G04 #@! TO.P,P2,2*
G04 #@! TO.N,Net-(K1-Pad14)*
X187325000Y-44196000D03*
G04 #@! TO.P,P2,3*
G04 #@! TO.N,Net-(K1-Pad16)*
X187325000Y-39116000D03*
G04 #@! TD*
G04 #@! TO.P,P3,1*
G04 #@! TO.N,Net-(K1-Pad5)*
X187325000Y-59436000D03*
G04 #@! TO.P,P3,2*
G04 #@! TO.N,Net-(K1-Pad1)*
X187325000Y-54356000D03*
G04 #@! TD*
G04 #@! TO.P,P4,1*
G04 #@! TO.N,Net-(D10-Pad1)*
X111125000Y-73406000D03*
G04 #@! TO.P,P4,2*
G04 #@! TO.N,GND*
X111125000Y-68326000D03*
G04 #@! TD*
G04 #@! TO.P,P5,1*
G04 #@! TO.N,Net-(D4-Pad1)*
X187325000Y-74676000D03*
G04 #@! TO.P,P5,2*
G04 #@! TO.N,Net-(D6-Pad2)*
X187325000Y-69596000D03*
G04 #@! TO.P,P5,3*
G04 #@! TO.N,Net-(D5-Pad1)*
X187325000Y-64516000D03*
G04 #@! TD*
G04 #@! TO.P,P6,1*
G04 #@! TO.N,Net-(C11-Pad1)*
X111125000Y-58166000D03*
G04 #@! TO.P,P6,2*
G04 #@! TO.N,GND*
X111125000Y-63246000D03*
G04 #@! TD*
G04 #@! TO.P,P7,1*
G04 #@! TO.N,Net-(P7-Pad1)*
X187325000Y-84836000D03*
G04 #@! TO.P,P7,2*
G04 #@! TO.N,Net-(D11-Pad2)*
X187325000Y-79756000D03*
G04 #@! TD*
D18*
G04 #@! TO.P,Q1,2*
G04 #@! TO.N,Net-(Q1-Pad2)*
X120650000Y-70231000D03*
G04 #@! TO.P,Q1,3*
G04 #@! TO.N,+12V*
X118745000Y-68326000D03*
G04 #@! TO.P,Q1,1*
G04 #@! TO.N,Net-(Q1-Pad1)*
X118745000Y-72136000D03*
G04 #@! TD*
G04 #@! TO.P,U1,GND*
G04 #@! TO.N,GND*
X168275000Y-59182000D03*
G04 #@! TO.P,U1,VO*
G04 #@! TO.N,+12V*
X170180000Y-61087000D03*
G04 #@! TO.P,U1,VI*
G04 #@! TO.N,Net-(C1-Pad1)*
X170180000Y-57277000D03*
G04 #@! TD*
G04 #@! TO.P,U2,VI*
G04 #@! TO.N,Net-(C4-Pad2)*
X163576000Y-57277000D03*
G04 #@! TO.P,U2,GND*
G04 #@! TO.N,GND*
X161671000Y-59182000D03*
G04 #@! TO.P,U2,VO*
G04 #@! TO.N,-12V*
X165481000Y-59182000D03*
G04 #@! TD*
D19*
G04 #@! TO.P,U4,15*
G04 #@! TO.N,Net-(U4-Pad15)*
X125603000Y-84582000D03*
G04 #@! TO.P,U4,14*
G04 #@! TO.N,Net-(U4-Pad14)*
X128143000Y-84582000D03*
D20*
G04 #@! TO.P,U4,1*
G04 #@! TO.N,Net-(R7-Pad1)*
X123063000Y-92202000D03*
D19*
G04 #@! TO.P,U4,2*
G04 #@! TO.N,Net-(U4-Pad2)*
X125603000Y-92202000D03*
G04 #@! TO.P,U4,3*
G04 #@! TO.N,Net-(U4-Pad3)*
X128143000Y-92202000D03*
G04 #@! TO.P,U4,4*
G04 #@! TO.N,Net-(U4-Pad4)*
X130683000Y-92202000D03*
G04 #@! TO.P,U4,5*
G04 #@! TO.N,Net-(U4-Pad5)*
X133223000Y-92202000D03*
G04 #@! TO.P,U4,6*
G04 #@! TO.N,Net-(U4-Pad6)*
X135763000Y-92202000D03*
G04 #@! TO.P,U4,7*
G04 #@! TO.N,Net-(U4-Pad7)*
X138303000Y-92202000D03*
G04 #@! TO.P,U4,8*
G04 #@! TO.N,GND*
X140843000Y-92202000D03*
G04 #@! TO.P,U4,9*
G04 #@! TO.N,Net-(U4-Pad9)*
X140843000Y-84582000D03*
G04 #@! TO.P,U4,10*
G04 #@! TO.N,Net-(C10-Pad1)*
X138303000Y-84582000D03*
G04 #@! TO.P,U4,11*
G04 #@! TO.N,Net-(C9-Pad1)*
X135763000Y-84582000D03*
G04 #@! TO.P,U4,12*
G04 #@! TO.N,GND*
X133223000Y-84582000D03*
G04 #@! TO.P,U4,13*
G04 #@! TO.N,Net-(U4-Pad13)*
X130683000Y-84582000D03*
G04 #@! TO.P,U4,16*
G04 #@! TO.N,+12V*
X123063000Y-84582000D03*
G04 #@! TD*
D13*
G04 #@! TO.P,Y1,1*
G04 #@! TO.N,Net-(C9-Pad1)*
X111607600Y-84836000D03*
G04 #@! TO.P,Y1,2*
G04 #@! TO.N,Net-(C10-Pad1)*
X116687600Y-84836000D03*
G04 #@! TD*
G04 #@! TO.P,R1,1*
G04 #@! TO.N,+12V*
X147828000Y-89916000D03*
G04 #@! TO.P,R1,2*
G04 #@! TO.N,Vconn*
X156718000Y-89916000D03*
G04 #@! TD*
G04 #@! TO.P,R2,1*
G04 #@! TO.N,Vconn*
X159512000Y-89916000D03*
G04 #@! TO.P,R2,2*
G04 #@! TO.N,Vcharge*
X168402000Y-89916000D03*
G04 #@! TD*
G04 #@! TO.P,R3,1*
G04 #@! TO.N,Vcharge*
X159512000Y-86741000D03*
G04 #@! TO.P,R3,2*
G04 #@! TO.N,Vmin*
X168402000Y-86741000D03*
G04 #@! TD*
G04 #@! TO.P,R4,1*
G04 #@! TO.N,Vmin*
X171450000Y-83566000D03*
G04 #@! TO.P,R4,2*
G04 #@! TO.N,Vneg*
X171450000Y-92456000D03*
G04 #@! TD*
G04 #@! TO.P,R5,1*
G04 #@! TO.N,Vneg*
X174625000Y-92456000D03*
G04 #@! TO.P,R5,2*
G04 #@! TO.N,-12V*
X174625000Y-83566000D03*
G04 #@! TD*
G04 #@! TO.P,R6,1*
G04 #@! TO.N,Net-(D6-Pad1)*
X156591000Y-72263000D03*
G04 #@! TO.P,R6,2*
G04 #@! TO.N,+12V*
X156591000Y-81153000D03*
G04 #@! TD*
G04 #@! TO.P,R7,1*
G04 #@! TO.N,Net-(R7-Pad1)*
X126492000Y-80137000D03*
G04 #@! TO.P,R7,2*
G04 #@! TO.N,Net-(C8-Pad1)*
X117602000Y-80137000D03*
G04 #@! TD*
G04 #@! TO.P,R8,1*
G04 #@! TO.N,Net-(C9-Pad1)*
X144145000Y-92710000D03*
G04 #@! TO.P,R8,2*
G04 #@! TO.N,Net-(C10-Pad1)*
X144145000Y-83820000D03*
G04 #@! TD*
G04 #@! TO.P,R9,1*
G04 #@! TO.N,+12V*
X181356000Y-92456000D03*
G04 #@! TO.P,R9,2*
G04 #@! TO.N,Net-(D11-Pad1)*
X181356000Y-83566000D03*
G04 #@! TD*
G04 #@! TO.P,R10,1*
G04 #@! TO.N,Net-(R10-Pad1)*
X147447000Y-72390000D03*
G04 #@! TO.P,R10,2*
G04 #@! TO.N,+12V*
X147447000Y-81280000D03*
G04 #@! TD*
G04 #@! TO.P,R11,1*
G04 #@! TO.N,Net-(C11-Pad1)*
X117475000Y-60706000D03*
G04 #@! TO.P,R11,2*
G04 #@! TO.N,+12V*
X126365000Y-60706000D03*
G04 #@! TD*
G04 #@! TO.P,R12,1*
G04 #@! TO.N,Net-(Q1-Pad1)*
X126492000Y-74803000D03*
G04 #@! TO.P,R12,2*
G04 #@! TO.N,Net-(D10-Pad1)*
X117602000Y-74803000D03*
G04 #@! TD*
G04 #@! TO.P,R13,1*
G04 #@! TO.N,GND*
X117475000Y-63246000D03*
G04 #@! TO.P,R13,2*
G04 #@! TO.N,Net-(C11-Pad1)*
X126365000Y-63246000D03*
G04 #@! TD*
G04 #@! TO.P,R14,1*
G04 #@! TO.N,GND*
X153543000Y-60960000D03*
G04 #@! TO.P,R14,2*
G04 #@! TO.N,Net-(C12-Pad1)*
X153543000Y-69850000D03*
G04 #@! TD*
G04 #@! TO.P,R15,1*
G04 #@! TO.N,Net-(R15-Pad1)*
X130175000Y-60960000D03*
G04 #@! TO.P,R15,2*
G04 #@! TO.N,Net-(Q1-Pad2)*
X130175000Y-69850000D03*
G04 #@! TD*
G04 #@! TO.P,R16,1*
G04 #@! TO.N,Net-(R15-Pad1)*
X144272000Y-60960000D03*
G04 #@! TO.P,R16,2*
G04 #@! TO.N,+12V*
X144272000Y-69850000D03*
G04 #@! TD*
D11*
G04 #@! TO.P,C6,1*
G04 #@! TO.N,+12V*
X181864000Y-58801000D03*
D12*
G04 #@! TO.P,C6,2*
G04 #@! TO.N,Net-(C6-Pad2)*
X176784000Y-58801000D03*
G04 #@! TD*
D14*
G04 #@! TO.P,D2,2*
G04 #@! TO.N,Net-(D1-Pad1)*
X161290000Y-54737000D03*
D13*
G04 #@! TO.P,D2,1*
G04 #@! TO.N,Net-(C4-Pad2)*
X168910000Y-54737000D03*
G04 #@! TD*
D14*
G04 #@! TO.P,D7,2*
G04 #@! TO.N,Net-(D4-Pad1)*
X180975000Y-73406000D03*
D13*
G04 #@! TO.P,D7,1*
G04 #@! TO.N,Net-(D11-Pad1)*
X180975000Y-75946000D03*
G04 #@! TD*
D14*
G04 #@! TO.P,D8,2*
G04 #@! TO.N,Net-(D5-Pad1)*
X180975000Y-63246000D03*
D13*
G04 #@! TO.P,D8,1*
G04 #@! TO.N,Net-(D11-Pad1)*
X180975000Y-65786000D03*
G04 #@! TD*
D14*
G04 #@! TO.P,D9,2*
G04 #@! TO.N,Net-(D6-Pad2)*
X180975000Y-68326000D03*
D13*
G04 #@! TO.P,D9,1*
G04 #@! TO.N,Net-(D11-Pad1)*
X180975000Y-70866000D03*
G04 #@! TD*
D14*
G04 #@! TO.P,D10,2*
G04 #@! TO.N,Net-(C12-Pad1)*
X153543000Y-72898000D03*
D13*
G04 #@! TO.P,D10,1*
G04 #@! TO.N,Net-(D10-Pad1)*
X153543000Y-80518000D03*
G04 #@! TD*
D14*
G04 #@! TO.P,D11,2*
G04 #@! TO.N,Net-(D11-Pad2)*
X180975000Y-78486000D03*
D13*
G04 #@! TO.P,D11,1*
G04 #@! TO.N,Net-(D11-Pad1)*
X180975000Y-81026000D03*
G04 #@! TD*
D14*
G04 #@! TO.P,D12,2*
G04 #@! TO.N,Net-(D10-Pad1)*
X150495000Y-80518000D03*
D13*
G04 #@! TO.P,D12,1*
G04 #@! TO.N,Net-(C13-Pad1)*
X150495000Y-72898000D03*
G04 #@! TD*
D18*
G04 #@! TO.P,Q2,2*
G04 #@! TO.N,Net-(Q1-Pad2)*
X125730000Y-70231000D03*
G04 #@! TO.P,Q2,3*
G04 #@! TO.N,-12V*
X123825000Y-68326000D03*
G04 #@! TO.P,Q2,1*
G04 #@! TO.N,Net-(Q1-Pad1)*
X123825000Y-72136000D03*
G04 #@! TD*
D13*
G04 #@! TO.P,R17,1*
G04 #@! TO.N,+12V*
X177800000Y-92456000D03*
G04 #@! TO.P,R17,2*
G04 #@! TO.N,Net-(P7-Pad1)*
X177800000Y-83566000D03*
G04 #@! TD*
G04 #@! TO.P,R18,1*
G04 #@! TO.N,Net-(D11-Pad2)*
X144272000Y-72390000D03*
G04 #@! TO.P,R18,2*
G04 #@! TO.N,GND*
X144272000Y-81280000D03*
G04 #@! TD*
G04 #@! TO.P,R19,1*
G04 #@! TO.N,GND*
X150495000Y-60960000D03*
G04 #@! TO.P,R19,2*
G04 #@! TO.N,Net-(C13-Pad1)*
X150495000Y-69850000D03*
G04 #@! TD*
D18*
G04 #@! TO.P,Q3,2*
G04 #@! TO.N,Net-(D6-Pad1)*
X173863000Y-66548000D03*
G04 #@! TO.P,Q3,3*
G04 #@! TO.N,Net-(C6-Pad2)*
X175768000Y-64643000D03*
G04 #@! TO.P,Q3,1*
G04 #@! TO.N,GND*
X171958000Y-64643000D03*
G04 #@! TD*
D14*
G04 #@! TO.P,D4,2*
G04 #@! TO.N,Net-(D4-Pad2)*
X173736000Y-72263000D03*
D13*
G04 #@! TO.P,D4,1*
G04 #@! TO.N,Net-(D4-Pad1)*
X173736000Y-79883000D03*
G04 #@! TD*
D14*
G04 #@! TO.P,D5,2*
G04 #@! TO.N,Net-(D5-Pad2)*
X170815000Y-69088000D03*
D13*
G04 #@! TO.P,D5,1*
G04 #@! TO.N,Net-(D5-Pad1)*
X178435000Y-69088000D03*
G04 #@! TD*
D15*
G04 #@! TO.P,,*
G04 #@! TO.N,*
X187960000Y-32766000D03*
G04 #@! TD*
G04 #@! TO.P,,*
G04 #@! TO.N,*
X110744000Y-32766000D03*
G04 #@! TD*
G04 #@! TO.P,,*
G04 #@! TO.N,*
X110744000Y-91186000D03*
G04 #@! TD*
G04 #@! TO.P,,*
G04 #@! TO.N,*
X187960000Y-91186000D03*
G04 #@! TD*
D16*
G04 #@! TO.P,RV1,1*
G04 #@! TO.N,Net-(C11-Pad1)*
X111125000Y-58166000D03*
G04 #@! TO.P,RV1,2*
X113665000Y-60706000D03*
G04 #@! TO.P,RV1,3*
G04 #@! TO.N,GND*
X111125000Y-63246000D03*
G04 #@! TD*
G04 #@! TO.P,,2*
G04 #@! TO.N,+12V*
X137541000Y-73279000D03*
G04 #@! TD*
G04 #@! TO.P,,2*
G04 #@! TO.N,+12V*
X137541000Y-77724000D03*
G04 #@! TD*
G04 #@! TO.P,,2*
G04 #@! TO.N,-12V*
X164592000Y-66878200D03*
G04 #@! TD*
G04 #@! TO.P,,2*
G04 #@! TO.N,-12V*
X164592000Y-72009000D03*
G04 #@! TD*
D21*
G04 #@! TO.P,U3,1*
G04 #@! TO.N,Net-(D6-Pad1)*
X160147000Y-66929000D03*
D22*
G04 #@! TO.P,U3,2*
G04 #@! TO.N,Net-(D11-Pad2)*
X160147000Y-69469000D03*
G04 #@! TO.P,U3,3*
G04 #@! TO.N,+12V*
X160147000Y-72009000D03*
G04 #@! TO.P,U3,4*
G04 #@! TO.N,Net-(C12-Pad1)*
X160147000Y-74549000D03*
G04 #@! TO.P,U3,5*
G04 #@! TO.N,Vconn*
X160147000Y-77089000D03*
G04 #@! TO.P,U3,6*
G04 #@! TO.N,Net-(C12-Pad1)*
X160147000Y-79629000D03*
G04 #@! TO.P,U3,7*
G04 #@! TO.N,Vcharge*
X160147000Y-82169000D03*
G04 #@! TO.P,U3,8*
G04 #@! TO.N,Vconn*
X167767000Y-82169000D03*
G04 #@! TO.P,U3,9*
G04 #@! TO.N,Net-(C12-Pad1)*
X167767000Y-79629000D03*
G04 #@! TO.P,U3,10*
G04 #@! TO.N,Vmin*
X167767000Y-77089000D03*
G04 #@! TO.P,U3,11*
G04 #@! TO.N,Net-(C12-Pad1)*
X167767000Y-74549000D03*
G04 #@! TO.P,U3,12*
G04 #@! TO.N,-12V*
X167767000Y-72009000D03*
G04 #@! TO.P,U3,13*
G04 #@! TO.N,Net-(D6-Pad2)*
X167767000Y-69469000D03*
G04 #@! TO.P,U3,14*
G04 #@! TO.N,Net-(D5-Pad2)*
X167767000Y-66929000D03*
G04 #@! TD*
D21*
G04 #@! TO.P,U5,1*
G04 #@! TO.N,Net-(D6-Pad2)*
X133350000Y-63500000D03*
D22*
G04 #@! TO.P,U5,2*
G04 #@! TO.N,Net-(R10-Pad1)*
X133350000Y-66040000D03*
G04 #@! TO.P,U5,3*
G04 #@! TO.N,+12V*
X133350000Y-68580000D03*
G04 #@! TO.P,U5,4*
G04 #@! TO.N,Net-(C11-Pad1)*
X133350000Y-71120000D03*
G04 #@! TO.P,U5,5*
G04 #@! TO.N,Net-(C8-Pad1)*
X133350000Y-73660000D03*
G04 #@! TO.P,U5,6*
G04 #@! TO.N,Net-(C13-Pad1)*
X133350000Y-76200000D03*
G04 #@! TO.P,U5,7*
G04 #@! TO.N,Vneg*
X133350000Y-78740000D03*
G04 #@! TO.P,U5,8*
G04 #@! TO.N,Net-(D6-Pad1)*
X140970000Y-78740000D03*
G04 #@! TO.P,U5,9*
G04 #@! TO.N,GND*
X140970000Y-76200000D03*
G04 #@! TO.P,U5,10*
G04 #@! TO.N,Net-(D11-Pad2)*
X140970000Y-73660000D03*
G04 #@! TO.P,U5,11*
G04 #@! TO.N,Net-(R10-Pad1)*
X140970000Y-71120000D03*
G04 #@! TO.P,U5,12*
G04 #@! TO.N,-12V*
X140970000Y-68580000D03*
G04 #@! TO.P,U5,13*
G04 #@! TO.N,Net-(R15-Pad1)*
X140970000Y-66040000D03*
G04 #@! TO.P,U5,14*
G04 #@! TO.N,Net-(D4-Pad2)*
X140970000Y-63500000D03*
G04 #@! TD*
D15*
G04 #@! TO.P,T1,4*
G04 #@! TO.N,GND*
X153035000Y-54991000D03*
G04 #@! TO.P,T1,3*
G04 #@! TO.N,Net-(D1-Pad1)*
X147955000Y-54991000D03*
G04 #@! TO.P,T1,4*
G04 #@! TO.N,GND*
X137795000Y-54991000D03*
G04 #@! TO.P,T1,2*
G04 #@! TO.N,Net-(F1-Pad2)*
X153035000Y-34671000D03*
G04 #@! TO.P,T1,1*
G04 #@! TO.N,Net-(P1-Pad2)*
X132715000Y-34671000D03*
G04 #@! TD*
D23*
G04 #@! TO.N,+12V*
X137541000Y-77724000D03*
X137541000Y-73279000D03*
X137541000Y-73406000D03*
X137541000Y-77520800D03*
G04 #@! TO.N,-12V*
X164592000Y-71907400D03*
X164592000Y-67030600D03*
G04 #@! TD*
D24*
G04 #@! TO.N,+12V*
X169240200Y-92176600D02*
X153085800Y-92176600D01*
X170189100Y-91227700D02*
X169240200Y-92176600D01*
X177800000Y-92456000D02*
X176571700Y-91227700D01*
X170189100Y-91227700D02*
X176571700Y-91227700D01*
X147980400Y-84099400D02*
X148844000Y-83235800D01*
X147980400Y-87071200D02*
X147980400Y-84099400D01*
X153085800Y-92176600D02*
X147980400Y-87071200D01*
X147447000Y-81280000D02*
X147447000Y-81838800D01*
X147447000Y-81838800D02*
X148844000Y-83235800D01*
X156591000Y-82143600D02*
X156591000Y-81153000D01*
X148844000Y-83235800D02*
X155498800Y-83235800D01*
X155498800Y-83235800D02*
X156591000Y-82143600D01*
X123063000Y-84582000D02*
X123063000Y-83718400D01*
X123063000Y-83718400D02*
X124460000Y-82321400D01*
X128371600Y-82321400D02*
X129387600Y-81305400D01*
X124460000Y-82321400D02*
X128371600Y-82321400D01*
X139014200Y-94310200D02*
X127863600Y-94310200D01*
X139090400Y-94386400D02*
X139014200Y-94310200D01*
X147828000Y-91705000D02*
X145146600Y-94386400D01*
X145146600Y-94386400D02*
X139090400Y-94386400D01*
X126949200Y-88468200D02*
X123063000Y-84582000D01*
X126949200Y-93395800D02*
X126949200Y-88468200D01*
X127863600Y-94310200D02*
X126949200Y-93395800D01*
X173736000Y-61722000D02*
X170815000Y-61722000D01*
X170815000Y-61722000D02*
X170180000Y-61087000D01*
X173736000Y-61722000D02*
X177419000Y-61722000D01*
X137566400Y-77749400D02*
X137566400Y-79044800D01*
X143002000Y-79349600D02*
X142367000Y-79984600D01*
X142367000Y-79984600D02*
X138506200Y-79984600D01*
X137566400Y-79044800D02*
X138506200Y-79984600D01*
X145745200Y-79349600D02*
X143002000Y-79349600D01*
X145745200Y-79349600D02*
X147447000Y-81051400D01*
X137566400Y-77749400D02*
X137541000Y-77724000D01*
X137541000Y-73406000D02*
X137541000Y-73025000D01*
X181864000Y-58801000D02*
X181864000Y-57658000D01*
X173990000Y-48260000D02*
X172339000Y-49911000D01*
X180721000Y-48260000D02*
X173990000Y-48260000D01*
X181610000Y-49149000D02*
X180721000Y-48260000D01*
X181610000Y-51943000D02*
X181610000Y-49149000D01*
X182626000Y-52959000D02*
X181610000Y-51943000D01*
X182626000Y-56896000D02*
X182626000Y-52959000D01*
X181864000Y-57658000D02*
X182626000Y-56896000D01*
X181864000Y-58801000D02*
X182905400Y-58801000D01*
X188341000Y-62103000D02*
X190271400Y-64033400D01*
X182642600Y-92456000D02*
X190271400Y-84827200D01*
X182642600Y-92456000D02*
X181356000Y-92456000D01*
X190271400Y-64033400D02*
X190271400Y-84827200D01*
X188341000Y-62103000D02*
X186207400Y-62103000D01*
X182905400Y-58801000D02*
X186207400Y-62103000D01*
X182524400Y-58801000D02*
X181864000Y-58801000D01*
X180340000Y-58801000D02*
X181864000Y-58801000D01*
X177419000Y-61722000D02*
X180340000Y-58801000D01*
X173609000Y-53721000D02*
X173609000Y-51181000D01*
X173609000Y-51181000D02*
X172339000Y-49911000D01*
X118745000Y-68326000D02*
X120116600Y-68326000D01*
X122301000Y-64770000D02*
X126365000Y-60706000D01*
X122301000Y-66141600D02*
X122301000Y-64770000D01*
X120116600Y-68326000D02*
X122301000Y-66141600D01*
X142227300Y-72377300D02*
X138188700Y-72377300D01*
X138188700Y-72377300D02*
X137541000Y-73025000D01*
X135712200Y-72382400D02*
X136898400Y-72382400D01*
X136898400Y-72382400D02*
X137541000Y-73025000D01*
X142951200Y-71653400D02*
X142951200Y-71170800D01*
X142951200Y-71170800D02*
X144272000Y-69850000D01*
X142222200Y-72382400D02*
X142227300Y-72377300D01*
X142227300Y-72377300D02*
X142951200Y-71653400D01*
X133350000Y-68580000D02*
X133756400Y-68580000D01*
X133756400Y-68580000D02*
X135712200Y-70535800D01*
X135712200Y-70535800D02*
X135712200Y-72382400D01*
X125976400Y-72382400D02*
X135712200Y-72382400D01*
X118745000Y-68326000D02*
X118745000Y-70106700D01*
X118745000Y-70106700D02*
X120073900Y-71435600D01*
X120073900Y-71435600D02*
X121350400Y-71435600D01*
X121350400Y-71435600D02*
X121811000Y-70975000D01*
X121811000Y-70975000D02*
X124569000Y-70975000D01*
X124569000Y-70975000D02*
X125976400Y-72382400D01*
X150052200Y-93929200D02*
X176326800Y-93929200D01*
X147828000Y-91705000D02*
X150052200Y-93929200D01*
X176326800Y-93929200D02*
X177800000Y-92456000D01*
X147447000Y-81280000D02*
X147447000Y-81051400D01*
X160147000Y-72009000D02*
X159181800Y-72009000D01*
X118745000Y-67965500D02*
X119105500Y-67965500D01*
X156591000Y-74599800D02*
X159181800Y-72009000D01*
X156591000Y-81153000D02*
X156591000Y-74599800D01*
X118745000Y-67965500D02*
X118745000Y-68326000D01*
X147828000Y-91705000D02*
X147828000Y-89916000D01*
X181356000Y-92456000D02*
X177800000Y-92456000D01*
G04 #@! TO.N,-12V*
X164592000Y-63627000D02*
X164592000Y-67030600D01*
X164693600Y-72009000D02*
X167767000Y-72009000D01*
X164592000Y-71907400D02*
X164693600Y-72009000D01*
X164592000Y-63627000D02*
X164719000Y-63627000D01*
X164719000Y-63627000D02*
X166243000Y-62103000D01*
X165481000Y-59182000D02*
X165481000Y-60452000D01*
X165481000Y-60452000D02*
X166243000Y-61214000D01*
X166243000Y-61214000D02*
X166243000Y-62103000D01*
X164592000Y-63627000D02*
X164592000Y-63614800D01*
X164592000Y-63614800D02*
X164407600Y-63430400D01*
X162839400Y-63430400D02*
X164407600Y-63430400D01*
X128911700Y-60191300D02*
X128911700Y-64777400D01*
X129590800Y-59512200D02*
X128911700Y-60191300D01*
X144568400Y-59512200D02*
X129590800Y-59512200D01*
X146039300Y-60983100D02*
X144568400Y-59512200D01*
X146039300Y-62854300D02*
X146039300Y-60983100D01*
X146615400Y-63430400D02*
X146039300Y-62854300D01*
X162839400Y-63430400D02*
X146615400Y-63430400D01*
X128930400Y-64777400D02*
X128930400Y-64668400D01*
X128930400Y-64758700D02*
X128930400Y-64668400D01*
X128911700Y-64777400D02*
X128930400Y-64758700D01*
X127373600Y-64777400D02*
X128930400Y-64777400D01*
X123825000Y-68326000D02*
X127373600Y-64777400D01*
X128930400Y-64777400D02*
X135135400Y-64777400D01*
X138938000Y-68580000D02*
X135135400Y-64777400D01*
X138938000Y-68580000D02*
X140970000Y-68580000D01*
X174625000Y-85684200D02*
X174625000Y-83566000D01*
X168945400Y-91363800D02*
X174625000Y-85684200D01*
X156133800Y-91363800D02*
X168945400Y-91363800D01*
X154686000Y-89916000D02*
X156133800Y-91363800D01*
X154686000Y-85725000D02*
X154686000Y-89916000D01*
X172179100Y-76421100D02*
X167767000Y-72009000D01*
X174625000Y-83566000D02*
X172179100Y-81120100D01*
X172179100Y-81120100D02*
X172179100Y-76421100D01*
D25*
G04 #@! TO.N,GND*
X129311400Y-77470000D02*
X129311400Y-76301600D01*
X129311400Y-76301600D02*
X129387600Y-76225400D01*
X133959600Y-81508600D02*
X133959600Y-80797400D01*
X131673600Y-79273400D02*
X131673600Y-77470000D01*
X132461000Y-80060800D02*
X131673600Y-79273400D01*
X133223000Y-80060800D02*
X132461000Y-80060800D01*
X133959600Y-80797400D02*
X133223000Y-80060800D01*
X144272000Y-81280000D02*
X143560800Y-81280000D01*
X143560800Y-81280000D02*
X143357600Y-81483200D01*
X133223000Y-82245200D02*
X133223000Y-84582000D01*
X133985000Y-81483200D02*
X133959600Y-81508600D01*
X133959600Y-81508600D02*
X133223000Y-82245200D01*
X143357600Y-81483200D02*
X133985000Y-81483200D01*
X124714000Y-77470000D02*
X129311400Y-77470000D01*
X129311400Y-77470000D02*
X131673600Y-77470000D01*
X131673600Y-77470000D02*
X135204200Y-77470000D01*
X135204200Y-77470000D02*
X136474200Y-76200000D01*
X136474200Y-76200000D02*
X140970000Y-76200000D01*
X170967400Y-59182000D02*
X171196000Y-59182000D01*
X168275000Y-59182000D02*
X170967400Y-59182000D01*
X171196000Y-59182000D02*
X173736000Y-56642000D01*
X144272000Y-81280000D02*
X144272000Y-81381600D01*
X144272000Y-81381600D02*
X145465800Y-82575400D01*
X140843000Y-89992200D02*
X140843000Y-92202000D01*
X145465800Y-85369400D02*
X140843000Y-89992200D01*
X145465800Y-82575400D02*
X145465800Y-85369400D01*
X109517700Y-76142100D02*
X114877100Y-76142100D01*
X116205000Y-81280000D02*
X116205000Y-77470000D01*
X116840000Y-81915000D02*
X116205000Y-81280000D01*
X118618000Y-81915000D02*
X116840000Y-81915000D01*
X123063000Y-77470000D02*
X118618000Y-81915000D01*
X123063000Y-77470000D02*
X124714000Y-77470000D01*
X114877100Y-76142100D02*
X116205000Y-77470000D01*
X109517700Y-77426300D02*
X109517700Y-76142100D01*
X108712000Y-75336400D02*
X109517700Y-76142100D01*
X108712000Y-69342000D02*
X108712000Y-75336400D01*
X109728000Y-68326000D02*
X108712000Y-69342000D01*
X109728000Y-68326000D02*
X111125000Y-68326000D01*
X109517700Y-77426300D02*
X109220000Y-77724000D01*
X141173200Y-54991000D02*
X141173200Y-54279800D01*
X150622000Y-52578000D02*
X153035000Y-54991000D01*
X142875000Y-52578000D02*
X150622000Y-52578000D01*
X141173200Y-54279800D02*
X142875000Y-52578000D01*
X137795000Y-54991000D02*
X132283200Y-54991000D01*
X110388400Y-56337200D02*
X115239800Y-56337200D01*
X128498600Y-58775600D02*
X125298200Y-58775600D01*
X125298200Y-58775600D02*
X124510800Y-59563000D01*
X124510800Y-59563000D02*
X118465600Y-59563000D01*
X118465600Y-59563000D02*
X115239800Y-56337200D01*
X109270800Y-61391800D02*
X111125000Y-63246000D01*
X109270800Y-57454800D02*
X109270800Y-61391800D01*
X110388400Y-56337200D02*
X109270800Y-57454800D01*
X132283200Y-54991000D02*
X128498600Y-58775600D01*
X147243800Y-60960000D02*
X147142200Y-60960000D01*
X147472400Y-60960000D02*
X147243800Y-60960000D01*
X141173200Y-54991000D02*
X140639800Y-54991000D01*
X147142200Y-60960000D02*
X141173200Y-54991000D01*
X165100000Y-45720000D02*
X162306000Y-45720000D01*
X162306000Y-45720000D02*
X153035000Y-54991000D01*
X165100000Y-45720000D02*
X165100000Y-40386000D01*
X137795000Y-54991000D02*
X140639800Y-54991000D01*
X171958000Y-64643000D02*
X170764200Y-64643000D01*
X170764200Y-64643000D02*
X167817800Y-61696600D01*
X167817800Y-61696600D02*
X167817800Y-59639200D01*
D24*
X167817800Y-59639200D02*
X168275000Y-59182000D01*
D25*
X166624000Y-57912000D02*
X167005000Y-57912000D01*
X167005000Y-57912000D02*
X168275000Y-59182000D01*
X161671000Y-59182000D02*
X163576000Y-59182000D01*
X164846000Y-57912000D02*
X163576000Y-59182000D01*
X166624000Y-57912000D02*
X164846000Y-57912000D01*
X156591000Y-62230000D02*
X161036000Y-62230000D01*
D24*
X161036000Y-62230000D02*
X161163000Y-62103000D01*
D25*
X109220000Y-77724000D02*
X109220000Y-80391000D01*
D24*
X147447000Y-60960000D02*
X147472400Y-60960000D01*
D25*
X147472400Y-60960000D02*
X150495000Y-60960000D01*
X147447000Y-62230000D02*
X147447000Y-60960000D01*
X111876800Y-63997800D02*
X111125000Y-63246000D01*
X117475000Y-63997800D02*
X117475000Y-63246000D01*
X111876800Y-63997800D02*
X117475000Y-63997800D01*
X117591800Y-63997800D02*
X119380000Y-65786000D01*
D24*
X117475000Y-63997800D02*
X117591800Y-63997800D01*
D25*
X150495000Y-60960000D02*
X153543000Y-60960000D01*
X155321000Y-60960000D02*
X156591000Y-62230000D01*
X153543000Y-60960000D02*
X155321000Y-60960000D01*
X111876800Y-67574200D02*
X111125000Y-68326000D01*
X111876800Y-63997800D02*
X111876800Y-67574200D01*
X109517700Y-77426300D02*
X109220000Y-77724000D01*
D24*
X161163000Y-59690000D02*
X161671000Y-59182000D01*
D25*
X161163000Y-62103000D02*
X161163000Y-59690000D01*
D26*
G04 #@! TO.N,Vcharge*
X159512000Y-86741000D02*
X159512000Y-82804000D01*
X159512000Y-82804000D02*
X160147000Y-82169000D01*
X162687000Y-89916000D02*
X159512000Y-86741000D01*
X168402000Y-89916000D02*
X162687000Y-89916000D01*
G04 #@! TO.N,Vconn*
X149606000Y-85725000D02*
X149606000Y-84785200D01*
X156718000Y-84912200D02*
X156718000Y-89916000D01*
X150088600Y-84302600D02*
X149606000Y-84785200D01*
X156108400Y-84302600D02*
X150088600Y-84302600D01*
X156718000Y-84912200D02*
X156108400Y-84302600D01*
X160147000Y-77089000D02*
X158877000Y-77089000D01*
X158242000Y-80502700D02*
X158704000Y-80964700D01*
X158242000Y-77724000D02*
X158242000Y-80502700D01*
X158877000Y-77089000D02*
X158242000Y-77724000D01*
X159512000Y-89916000D02*
X158262200Y-89916000D01*
X158262200Y-89916000D02*
X156718000Y-89916000D01*
X165119700Y-80964700D02*
X158704000Y-80964700D01*
X166324000Y-82169000D02*
X165119700Y-80964700D01*
X158262200Y-81406500D02*
X158262200Y-89916000D01*
X158704000Y-80964700D02*
X158262200Y-81406500D01*
X167767000Y-82169000D02*
X166324000Y-82169000D01*
G04 #@! TO.N,Vmin*
X171450000Y-83566000D02*
X171450000Y-82778600D01*
X171450000Y-82778600D02*
X170281600Y-81610200D01*
X169519600Y-77089000D02*
X167767000Y-77089000D01*
X170281600Y-77851000D02*
X169519600Y-77089000D01*
X170281600Y-81610200D02*
X170281600Y-77851000D01*
X168402000Y-86614000D02*
X171450000Y-83566000D01*
X168402000Y-86741000D02*
X168402000Y-86614000D01*
G04 #@! TO.N,Vneg*
X146037000Y-81163900D02*
X146037000Y-81978200D01*
X134793000Y-78740000D02*
X136679400Y-80626400D01*
X136679400Y-80626400D02*
X142801800Y-80626400D01*
X142801800Y-80626400D02*
X143447700Y-79980500D01*
X143447700Y-79980500D02*
X144853600Y-79980500D01*
X144853600Y-79980500D02*
X146037000Y-81163900D01*
X133350000Y-78740000D02*
X134793000Y-78740000D01*
X170357800Y-92456000D02*
X169951400Y-92862400D01*
X169951400Y-92862400D02*
X152552400Y-92862400D01*
X170357800Y-92456000D02*
X171450000Y-92456000D01*
X146558000Y-86868000D02*
X152552400Y-92862400D01*
X146558000Y-82499200D02*
X146558000Y-86868000D01*
X146037000Y-81978200D02*
X146558000Y-82499200D01*
X174625000Y-92456000D02*
X171450000Y-92456000D01*
D24*
G04 #@! TO.N,Net-(C1-Pad1)*
X170180000Y-57277000D02*
X170180000Y-40386000D01*
X170180000Y-40386000D02*
X165100000Y-35306000D01*
X165100000Y-35306000D02*
X168910000Y-31496000D01*
G04 #@! TO.N,Net-(C4-Pad2)*
X168910000Y-54737000D02*
X168910000Y-55981600D01*
X164388800Y-56464200D02*
X163576000Y-57277000D01*
X168427400Y-56464200D02*
X164388800Y-56464200D01*
X168910000Y-55981600D02*
X168427400Y-56464200D01*
X168910000Y-54737000D02*
X168910000Y-54483000D01*
X168910000Y-54483000D02*
X165100000Y-50673000D01*
D26*
X168871900Y-54775100D02*
X168910000Y-54737000D01*
G04 #@! TO.N,Net-(C8-Pad1)*
X119083700Y-74379700D02*
X119634000Y-74379700D01*
X116459000Y-71755000D02*
X119083700Y-74379700D01*
X110236000Y-71755000D02*
X116459000Y-71755000D01*
X109474000Y-72517000D02*
X110236000Y-71755000D01*
X109474000Y-74168000D02*
X109474000Y-72517000D01*
X129209800Y-73660000D02*
X126866000Y-76003800D01*
X126866000Y-76003800D02*
X125893400Y-76003800D01*
X125893400Y-76003800D02*
X124269300Y-74379700D01*
X124269300Y-74379700D02*
X119634000Y-74379700D01*
X117856000Y-77470000D02*
X117856000Y-79883000D01*
X117856000Y-79883000D02*
X117602000Y-80137000D01*
X119634000Y-77470000D02*
X117856000Y-77470000D01*
X110363000Y-75057000D02*
X109474000Y-74168000D01*
X115443000Y-75057000D02*
X110363000Y-75057000D01*
X117856000Y-77470000D02*
X115443000Y-75057000D01*
X133350000Y-73660000D02*
X129209800Y-73660000D01*
G04 #@! TO.N,Net-(C9-Pad1)*
X115620800Y-86258400D02*
X116967000Y-86258400D01*
X129311400Y-78892400D02*
X130657600Y-80238600D01*
X130657600Y-80238600D02*
X130657600Y-82702400D01*
X130657600Y-82702400D02*
X129489200Y-83870800D01*
X129489200Y-83870800D02*
X129489200Y-85852000D01*
X129489200Y-85852000D02*
X130920700Y-87283500D01*
X130920700Y-87283500D02*
X134636300Y-87283500D01*
X111607600Y-84836000D02*
X114198400Y-84836000D01*
X114198400Y-84836000D02*
X115620800Y-86258400D01*
X134636300Y-87283500D02*
X135763000Y-86156800D01*
X135763000Y-86156800D02*
X135763000Y-86131400D01*
X125995000Y-78892400D02*
X129311400Y-78892400D01*
X125207600Y-79679800D02*
X125995000Y-78892400D01*
X123545600Y-79679800D02*
X125207600Y-79679800D01*
X116967000Y-86258400D02*
X123545600Y-79679800D01*
X114300000Y-80391000D02*
X113690400Y-80391000D01*
X113690400Y-80391000D02*
X111607600Y-82473800D01*
X111607600Y-82473800D02*
X111607600Y-84836000D01*
X144145000Y-92710000D02*
X144145000Y-93091000D01*
X144145000Y-93091000D02*
X143484600Y-93751400D01*
X139496800Y-89865200D02*
X135763000Y-86131400D01*
X139496800Y-93243400D02*
X139496800Y-89865200D01*
X140004800Y-93751400D02*
X139496800Y-93243400D01*
X143484600Y-93751400D02*
X140004800Y-93751400D01*
X135763000Y-86131400D02*
X135763000Y-86025000D01*
X135763000Y-84582000D02*
X135763000Y-86025000D01*
D24*
G04 #@! TO.N,Net-(D1-Pad1)*
X161290000Y-54737000D02*
X161290000Y-50673000D01*
X161290000Y-35382200D02*
X161290000Y-31496000D01*
X163296600Y-37388800D02*
X161290000Y-35382200D01*
X165481000Y-37388800D02*
X163296600Y-37388800D01*
X167538400Y-39446200D02*
X165481000Y-37388800D01*
X167538400Y-47066200D02*
X167538400Y-39446200D01*
X166166800Y-48437800D02*
X167538400Y-47066200D01*
X163525200Y-48437800D02*
X166166800Y-48437800D01*
X161290000Y-50673000D02*
X163525200Y-48437800D01*
X161290000Y-54737000D02*
X159639000Y-54737000D01*
X150698200Y-57734200D02*
X147955000Y-54991000D01*
X156641800Y-57734200D02*
X150698200Y-57734200D01*
X159639000Y-54737000D02*
X156641800Y-57734200D01*
X147955000Y-54991000D02*
X148615400Y-54991000D01*
X161290000Y-54737000D02*
X161290000Y-54533800D01*
D26*
G04 #@! TO.N,Net-(D6-Pad2)*
X177038000Y-72263000D02*
X177800000Y-72263000D01*
X177800000Y-72263000D02*
X180975000Y-69088000D01*
X180975000Y-69088000D02*
X180975000Y-68326000D01*
X177038000Y-72263000D02*
X177546000Y-72263000D01*
X180975000Y-68834000D02*
X180975000Y-68326000D01*
X167767000Y-69469000D02*
X168808400Y-69469000D01*
X168808400Y-69469000D02*
X170281600Y-70942200D01*
X177038000Y-73431400D02*
X177038000Y-72263000D01*
X176809400Y-73660000D02*
X177038000Y-73431400D01*
X171602400Y-73660000D02*
X176809400Y-73660000D01*
X170281600Y-72339200D02*
X171602400Y-73660000D01*
X170281600Y-70942200D02*
X170281600Y-72339200D01*
X180975000Y-68326000D02*
X186055000Y-68326000D01*
X186055000Y-68326000D02*
X187325000Y-69596000D01*
X144805400Y-64770000D02*
X161239200Y-64770000D01*
X144805400Y-64770000D02*
X142333100Y-67242300D01*
X142333100Y-67242300D02*
X139330100Y-67242300D01*
X139330100Y-67242300D02*
X135587800Y-63500000D01*
X133350000Y-63500000D02*
X135587800Y-63500000D01*
X166166800Y-69469000D02*
X167767000Y-69469000D01*
X165531800Y-68834000D02*
X166166800Y-69469000D01*
X162991800Y-68834000D02*
X165531800Y-68834000D01*
X162458400Y-68300600D02*
X162991800Y-68834000D01*
X162458400Y-65989200D02*
X162458400Y-68300600D01*
X161239200Y-64770000D02*
X162458400Y-65989200D01*
D27*
G04 #@! TO.N,Net-(F1-Pad1)*
X111125000Y-45085000D02*
X118110000Y-45085000D01*
X121285000Y-48260000D02*
X121285000Y-56261000D01*
X118110000Y-45085000D02*
X121285000Y-48260000D01*
G04 #@! TO.N,Net-(F1-Pad2)*
X122885200Y-31800800D02*
X121285000Y-33401000D01*
X150164800Y-31800800D02*
X122885200Y-31800800D01*
X153035000Y-34671000D02*
X150164800Y-31800800D01*
G04 #@! TO.N,Net-(K1-Pad16)*
X187325000Y-39116000D02*
X186944000Y-39116000D01*
X186944000Y-39116000D02*
X179959000Y-32131000D01*
X179959000Y-32385000D02*
X179959000Y-32131000D01*
G04 #@! TO.N,Net-(K1-Pad1)*
X187325000Y-54356000D02*
X187325000Y-53594000D01*
X174345600Y-32131000D02*
X172339000Y-32131000D01*
X176072800Y-33858200D02*
X174345600Y-32131000D01*
X176072800Y-42341800D02*
X176072800Y-33858200D01*
X178308000Y-44577000D02*
X176072800Y-42341800D01*
X181864000Y-44577000D02*
X178308000Y-44577000D01*
X184632600Y-47345600D02*
X181864000Y-44577000D01*
X184632600Y-50901600D02*
X184632600Y-47345600D01*
X187325000Y-53594000D02*
X184632600Y-50901600D01*
G04 #@! TO.N,Net-(K1-Pad5)*
X184785000Y-53467000D02*
X184785000Y-56896000D01*
X172339000Y-42291000D02*
X176276000Y-46228000D01*
X180975000Y-46228000D02*
X176276000Y-46228000D01*
X183261000Y-48514000D02*
X180975000Y-46228000D01*
X183261000Y-51943000D02*
X183261000Y-48514000D01*
X184785000Y-53467000D02*
X183261000Y-51943000D01*
X184785000Y-56896000D02*
X187325000Y-59436000D01*
X187325000Y-59436000D02*
X186918600Y-59436000D01*
G04 #@! TO.N,Net-(K1-Pad12)*
X187325000Y-49276000D02*
X187325000Y-47625000D01*
X181991000Y-42291000D02*
X179959000Y-42291000D01*
X187325000Y-47625000D02*
X181991000Y-42291000D01*
X187325000Y-49911000D02*
X187325000Y-48742600D01*
X180873400Y-42291000D02*
X179959000Y-42291000D01*
G04 #@! TO.N,Net-(K1-Pad14)*
X187325000Y-44196000D02*
X187325000Y-43815000D01*
X187325000Y-43815000D02*
X180721000Y-37211000D01*
X180721000Y-37211000D02*
X179959000Y-37211000D01*
X179959000Y-37465000D02*
X179959000Y-37211000D01*
D26*
G04 #@! TO.N,Net-(D11-Pad2)*
X180949600Y-84810600D02*
X182549800Y-84810600D01*
X174396400Y-77139800D02*
X169773600Y-72517000D01*
X169773600Y-72517000D02*
X169773600Y-71120000D01*
X169773600Y-71120000D02*
X169138600Y-70485000D01*
X160147000Y-69469000D02*
X165227000Y-69469000D01*
X180086000Y-81889600D02*
X178485800Y-80289400D01*
X178485800Y-80289400D02*
X178485800Y-78435200D01*
X178485800Y-78435200D02*
X177190400Y-77139800D01*
X180086000Y-83947000D02*
X180949600Y-84810600D01*
X180086000Y-83947000D02*
X180086000Y-81889600D01*
X169138600Y-70485000D02*
X166243000Y-70485000D01*
X165227000Y-69469000D02*
X166243000Y-70485000D01*
X177190400Y-77139800D02*
X174396400Y-77139800D01*
X183057800Y-80568800D02*
X180975000Y-78486000D01*
X183057800Y-84302600D02*
X183057800Y-80568800D01*
X182549800Y-84810600D02*
X183057800Y-84302600D01*
X161772600Y-65989200D02*
X161772600Y-68427600D01*
X147980400Y-73736200D02*
X145618200Y-73736200D01*
X148793200Y-72923400D02*
X147980400Y-73736200D01*
X148793200Y-71170800D02*
X148793200Y-72923400D01*
X146151600Y-68529200D02*
X148793200Y-71170800D01*
X146151600Y-66649600D02*
X146151600Y-68529200D01*
X147472400Y-65328800D02*
X146151600Y-66649600D01*
X161112200Y-65328800D02*
X147472400Y-65328800D01*
X161772600Y-65989200D02*
X161112200Y-65328800D01*
X144272000Y-72390000D02*
X145618200Y-73736200D01*
X161772600Y-68427600D02*
X160731200Y-69469000D01*
X160731200Y-69469000D02*
X160147000Y-69469000D01*
X180975000Y-78486000D02*
X186055000Y-78486000D01*
X186055000Y-78486000D02*
X187325000Y-79756000D01*
X140970000Y-73660000D02*
X142413000Y-73660000D01*
X143683000Y-72390000D02*
X142413000Y-73660000D01*
X144272000Y-72390000D02*
X143683000Y-72390000D01*
G04 #@! TO.N,Net-(C6-Pad2)*
X168783000Y-60579000D02*
X168783000Y-61391800D01*
X175768000Y-64643000D02*
X174167800Y-64643000D01*
X169443400Y-59918600D02*
X168783000Y-60579000D01*
X172745400Y-59918600D02*
X169443400Y-59918600D01*
X173863000Y-58801000D02*
X172745400Y-59918600D01*
X173863000Y-58801000D02*
X176784000Y-58801000D01*
X174167800Y-64643000D02*
X172389800Y-62865000D01*
X170256200Y-62865000D02*
X172389800Y-62865000D01*
X168783000Y-61391800D02*
X170256200Y-62865000D01*
X181229000Y-53721000D02*
X181229000Y-56388000D01*
X178816000Y-58801000D02*
X176784000Y-58801000D01*
X181229000Y-56388000D02*
X178816000Y-58801000D01*
X179959000Y-52832000D02*
X179959000Y-49911000D01*
X181229000Y-53721000D02*
X179959000Y-52832000D01*
G04 #@! TO.N,Net-(C10-Pad1)*
X116459000Y-83312000D02*
X116459000Y-84607400D01*
X116459000Y-84607400D02*
X116687600Y-84836000D01*
X123238200Y-78795400D02*
X125141200Y-78795400D01*
X118998700Y-83034900D02*
X118745000Y-83288600D01*
X118745000Y-83312000D02*
X118745000Y-83288600D01*
X134528600Y-85553200D02*
X133820300Y-86261500D01*
X133820300Y-86261500D02*
X132669200Y-86261500D01*
X132669200Y-86261500D02*
X131968500Y-85560800D01*
X131968500Y-85560800D02*
X131968500Y-80533500D01*
X123238200Y-78795400D02*
X118998700Y-83034900D01*
X134528600Y-83276400D02*
X134528600Y-85553200D01*
X135432800Y-82372200D02*
X134528600Y-83276400D01*
X135432800Y-82372200D02*
X138277600Y-82372200D01*
X129692400Y-78257400D02*
X131968500Y-80533500D01*
X125679200Y-78257400D02*
X129692400Y-78257400D01*
X125141200Y-78795400D02*
X125679200Y-78257400D01*
X138303000Y-84582000D02*
X138303000Y-82372200D01*
X138303000Y-82372200D02*
X138277600Y-82397600D01*
X138277600Y-82397600D02*
X138277600Y-82423000D01*
X138277600Y-82423000D02*
X138277600Y-82372200D01*
X144145000Y-83820000D02*
X144145000Y-83464400D01*
X144145000Y-83464400D02*
X143052800Y-82372200D01*
X143052800Y-82372200D02*
X138277600Y-82372200D01*
X114300000Y-77724000D02*
X114300000Y-78409800D01*
X116459000Y-83312000D02*
X118745000Y-83312000D01*
X115544600Y-82397600D02*
X116459000Y-83312000D01*
X115544600Y-79654400D02*
X115544600Y-82397600D01*
X114300000Y-78409800D02*
X115544600Y-79654400D01*
X114300000Y-78336200D02*
X114300000Y-77724000D01*
G04 #@! TO.N,Net-(C11-Pad1)*
X117475000Y-60706000D02*
X113665000Y-60706000D01*
X113665000Y-60706000D02*
X111125000Y-58166000D01*
X117475000Y-60706000D02*
X117475000Y-60325000D01*
X126365000Y-63246000D02*
X126873000Y-63246000D01*
X126873000Y-63246000D02*
X127609600Y-62509400D01*
X124460000Y-60706000D02*
X117475000Y-60706000D01*
X125730000Y-59436000D02*
X124460000Y-60706000D01*
X126898400Y-59436000D02*
X125730000Y-59436000D01*
X127609600Y-60147200D02*
X126898400Y-59436000D01*
X127609600Y-62509400D02*
X127609600Y-60147200D01*
X133350000Y-71120000D02*
X133223000Y-71120000D01*
X133223000Y-71120000D02*
X130762500Y-68659500D01*
X130762500Y-68659500D02*
X125496500Y-68659500D01*
X124545300Y-69610700D02*
X125496500Y-68659500D01*
X123346400Y-69610700D02*
X124545300Y-69610700D01*
X122591900Y-68856200D02*
X123346400Y-69610700D01*
X122591900Y-67654100D02*
X122591900Y-68856200D01*
X124460000Y-65786000D02*
X122591900Y-67654100D01*
X124460000Y-65151000D02*
X126365000Y-63246000D01*
X124460000Y-65786000D02*
X124460000Y-65151000D01*
G04 #@! TO.N,Net-(C12-Pad1)*
X153543000Y-69850000D02*
X156387800Y-69850000D01*
X156387800Y-69850000D02*
X156591000Y-70053200D01*
X162001200Y-74625200D02*
X162001200Y-71653400D01*
X162001200Y-71653400D02*
X161223200Y-70875400D01*
X161223200Y-70875400D02*
X157413200Y-70875400D01*
X157413200Y-70875400D02*
X156591000Y-70053200D01*
X156591000Y-70053200D02*
X156591000Y-68371300D01*
X156591000Y-68371300D02*
X156591000Y-67310000D01*
X162001200Y-79629000D02*
X162001200Y-74625200D01*
X162001200Y-74625200D02*
X162001200Y-74549000D01*
X162001200Y-74549000D02*
X162001200Y-74599800D01*
X162001200Y-74599800D02*
X162001200Y-74549000D01*
X167767000Y-74549000D02*
X162001200Y-74549000D01*
X162001200Y-74549000D02*
X160147000Y-74549000D01*
X167767000Y-79629000D02*
X162001200Y-79629000D01*
X162001200Y-79629000D02*
X160147000Y-79629000D01*
X167767000Y-79629000D02*
X166979600Y-79629000D01*
X153543000Y-69850000D02*
X153543000Y-72898000D01*
G04 #@! TO.N,Net-(C13-Pad1)*
X150495000Y-72898000D02*
X150495000Y-73939400D01*
X142113000Y-75082400D02*
X143027400Y-75996800D01*
X143027400Y-75996800D02*
X145059400Y-75996800D01*
X145059400Y-75996800D02*
X149225000Y-80162400D01*
X139369800Y-75463400D02*
X135529600Y-75463400D01*
X139750800Y-75082400D02*
X139369800Y-75463400D01*
X135529600Y-75463400D02*
X134793000Y-76200000D01*
X134793000Y-76200000D02*
X133350000Y-76200000D01*
X149225000Y-81538000D02*
X149225000Y-80162400D01*
X149560200Y-81873200D02*
X149225000Y-81538000D01*
X154143600Y-81873200D02*
X149560200Y-81873200D01*
X154762900Y-81253900D02*
X154143600Y-81873200D01*
X139750800Y-75082400D02*
X142113000Y-75082400D01*
X154762900Y-78207300D02*
X154762900Y-81253900D01*
X150495000Y-73939400D02*
X154762900Y-78207300D01*
X149987000Y-69850000D02*
X147447000Y-67310000D01*
X150495000Y-69850000D02*
X149987000Y-69850000D01*
X150495000Y-69850000D02*
X150495000Y-72898000D01*
G04 #@! TO.N,Net-(D5-Pad2)*
X170180000Y-66929000D02*
X167767000Y-66929000D01*
X167767000Y-66929000D02*
X168275000Y-66929000D01*
X170815000Y-69088000D02*
X170815000Y-67564000D01*
X170815000Y-67564000D02*
X170180000Y-66929000D01*
G04 #@! TO.N,Net-(D5-Pad1)*
X178435000Y-69088000D02*
X178435000Y-65786000D01*
X178435000Y-65786000D02*
X180975000Y-63246000D01*
X180695600Y-63246000D02*
X180975000Y-63246000D01*
X180975000Y-63246000D02*
X182753000Y-63246000D01*
X184023000Y-64516000D02*
X187325000Y-64516000D01*
X182753000Y-63246000D02*
X184023000Y-64516000D01*
G04 #@! TO.N,Net-(D6-Pad1)*
X173863000Y-66548000D02*
X176428400Y-66548000D01*
X183007000Y-72669400D02*
X182473600Y-72136000D01*
X182473600Y-72136000D02*
X179984400Y-72136000D01*
X179984400Y-72136000D02*
X179374800Y-72745600D01*
X179374800Y-72745600D02*
X179374800Y-74269600D01*
X179374800Y-74269600D02*
X179806600Y-74701400D01*
X189585600Y-71348600D02*
X188264800Y-72669400D01*
X189585600Y-64516000D02*
X189585600Y-71348600D01*
X187960000Y-62890400D02*
X189585600Y-64516000D01*
X184531000Y-62890400D02*
X187960000Y-62890400D01*
X183057800Y-61417200D02*
X184531000Y-62890400D01*
X180289200Y-61417200D02*
X183057800Y-61417200D01*
X179247800Y-62458600D02*
X180289200Y-61417200D01*
X179247800Y-63728600D02*
X179247800Y-62458600D01*
X188264800Y-72669400D02*
X183007000Y-72669400D01*
X179476400Y-82575400D02*
X179476400Y-84302600D01*
X179476400Y-84302600D02*
X180492400Y-85318600D01*
X180492400Y-85318600D02*
X183032400Y-85318600D01*
X183032400Y-85318600D02*
X186817000Y-81534000D01*
X186817000Y-81534000D02*
X188163200Y-81534000D01*
X188163200Y-81534000D02*
X188874400Y-80822800D01*
X188874400Y-80822800D02*
X188874400Y-78867000D01*
X188874400Y-78867000D02*
X184708800Y-74701400D01*
X184708800Y-74701400D02*
X179806600Y-74701400D01*
X179476400Y-82575400D02*
X177038000Y-80137000D01*
X176428400Y-66548000D02*
X179247800Y-63728600D01*
X177038000Y-79883000D02*
X177038000Y-78841600D01*
X169291000Y-71424800D02*
X168774600Y-70908400D01*
X169291000Y-72755180D02*
X169291000Y-71424800D01*
X174412220Y-77876400D02*
X169291000Y-72755180D01*
X176072800Y-77876400D02*
X174412220Y-77876400D01*
X177038000Y-78841600D02*
X176072800Y-77876400D01*
X177038000Y-79883000D02*
X177038000Y-80137000D01*
X177038000Y-79883000D02*
X177038000Y-79603600D01*
X161187100Y-70475000D02*
X165217000Y-70475000D01*
X165217000Y-70475000D02*
X165650400Y-70908400D01*
X159044800Y-70475000D02*
X161187100Y-70475000D01*
X165650400Y-70908400D02*
X168774600Y-70908400D01*
X168774600Y-70908400D02*
X168825400Y-70908400D01*
X158165800Y-66929000D02*
X158165800Y-66395600D01*
X157662600Y-65892400D02*
X158165800Y-66395600D01*
X155591800Y-65887600D02*
X157662600Y-65887600D01*
X152314500Y-69164900D02*
X155591800Y-65887600D01*
X152314500Y-73838700D02*
X152314500Y-69164900D01*
X152719200Y-74243400D02*
X152314500Y-73838700D01*
X152719200Y-74243400D02*
X154610600Y-74243400D01*
X157662600Y-65887600D02*
X157662600Y-65892400D01*
X160147000Y-66929000D02*
X158165800Y-66929000D01*
X159044800Y-70475398D02*
X159044800Y-70475000D01*
X158165800Y-69596398D02*
X159044800Y-70475398D01*
X158165800Y-66929000D02*
X158165800Y-69596398D01*
X159044800Y-70475000D02*
X159044800Y-70475000D01*
X154610600Y-74243400D02*
X156591000Y-72263000D01*
X155341100Y-74973900D02*
X154610600Y-74243400D01*
X140970000Y-78740000D02*
X146837400Y-78740000D01*
X146837400Y-78740000D02*
X148691600Y-80594200D01*
X148691600Y-80594200D02*
X148691600Y-82042000D01*
X148691600Y-82042000D02*
X149174200Y-82524600D01*
X149174200Y-82524600D02*
X154381200Y-82524600D01*
X154381200Y-82524600D02*
X155341100Y-81564700D01*
X155341100Y-81564700D02*
X155341100Y-74973900D01*
D27*
G04 #@! TO.N,Net-(P1-Pad2)*
X111125000Y-40005000D02*
X127381000Y-40005000D01*
X127381000Y-40005000D02*
X132715000Y-34671000D01*
D26*
G04 #@! TO.N,Net-(P7-Pad1)*
X179552600Y-86487000D02*
X185674000Y-86487000D01*
X177800000Y-83566000D02*
X177800000Y-84734400D01*
X179552600Y-86487000D02*
X177800000Y-84734400D01*
X185674000Y-86487000D02*
X187325000Y-84836000D01*
G04 #@! TO.N,Net-(D10-Pad1)*
X125735700Y-76635600D02*
X127047000Y-76635600D01*
X125735700Y-76635600D02*
X124452000Y-75351900D01*
X118150900Y-75351900D02*
X124452000Y-75351900D01*
X135402300Y-74681100D02*
X135178800Y-74904600D01*
X144962900Y-74681100D02*
X150495000Y-80213200D01*
X135402300Y-74681100D02*
X144962900Y-74681100D01*
X135178800Y-74904600D02*
X128778000Y-74904600D01*
X127047000Y-76635600D02*
X128778000Y-74904600D01*
X150495000Y-80518000D02*
X150495000Y-80213200D01*
X153543000Y-80518000D02*
X150495000Y-80518000D01*
X116205000Y-73406000D02*
X117602000Y-74803000D01*
X111125000Y-73406000D02*
X116205000Y-73406000D01*
X150495000Y-80518000D02*
X149903000Y-80518000D01*
X118150900Y-75351900D02*
X117602000Y-74803000D01*
G04 #@! TO.N,Net-(D4-Pad1)*
X189471300Y-82283300D02*
X188671200Y-83083400D01*
X189471300Y-82283300D02*
X189471300Y-76822300D01*
X189484000Y-76835000D02*
X189471300Y-76822300D01*
X189471300Y-76822300D02*
X187325000Y-74676000D01*
X180975000Y-73406000D02*
X186055000Y-73406000D01*
X186055000Y-73406000D02*
X187325000Y-74676000D01*
X188671200Y-83083400D02*
X186766200Y-83083400D01*
X183997600Y-85852000D02*
X186766200Y-83083400D01*
X180086000Y-85852000D02*
X183997600Y-85852000D01*
X178943000Y-84709000D02*
X180086000Y-85852000D01*
X173736000Y-79883000D02*
X173736000Y-80645000D01*
X178181000Y-82169000D02*
X178943000Y-82931000D01*
X175260000Y-82169000D02*
X178181000Y-82169000D01*
X173736000Y-80645000D02*
X175260000Y-82169000D01*
X178943000Y-82889100D02*
X178943000Y-82931000D01*
X178943000Y-82931000D02*
X178943000Y-84709000D01*
G04 #@! TO.N,Net-(D11-Pad1)*
X181356000Y-83566000D02*
X181356000Y-81407000D01*
X181356000Y-81407000D02*
X180975000Y-81026000D01*
X180975000Y-70866000D02*
X180213000Y-70866000D01*
X179654200Y-75946000D02*
X180975000Y-75946000D01*
X178435000Y-74726800D02*
X179654200Y-75946000D01*
X178435000Y-72644000D02*
X178435000Y-74726800D01*
X180213000Y-70866000D02*
X178435000Y-72644000D01*
X179628800Y-77292200D02*
X180975000Y-75946000D01*
X180975000Y-81026000D02*
X179628800Y-79679800D01*
X179628800Y-79679800D02*
X179628800Y-77292200D01*
X186182000Y-65786000D02*
X180975000Y-65786000D01*
X188950600Y-68554600D02*
X186182000Y-65786000D01*
X188950600Y-70942200D02*
X188950600Y-68554600D01*
X188468000Y-71424800D02*
X188950600Y-70942200D01*
X181533800Y-71424800D02*
X188468000Y-71424800D01*
X180975000Y-70866000D02*
X181533800Y-71424800D01*
G04 #@! TO.N,Net-(Q1-Pad2)*
X126111000Y-69850000D02*
X125730000Y-70231000D01*
X130175000Y-69850000D02*
X126111000Y-69850000D01*
X125730000Y-70231000D02*
X120650000Y-70231000D01*
G04 #@! TO.N,Net-(Q1-Pad1)*
X123825000Y-72136000D02*
X118745000Y-72136000D01*
X126492000Y-74803000D02*
X123825000Y-72136000D01*
G04 #@! TO.N,Net-(R7-Pad1)*
X126492000Y-80137000D02*
X125374400Y-80137000D01*
X121513600Y-90652600D02*
X123063000Y-92202000D01*
X121513600Y-83007200D02*
X121513600Y-90652600D01*
X124002800Y-80518000D02*
X121513600Y-83007200D01*
X124993400Y-80518000D02*
X124002800Y-80518000D01*
X125374400Y-80137000D02*
X124993400Y-80518000D01*
G04 #@! TO.N,Net-(R10-Pad1)*
X140970000Y-71120000D02*
X137820400Y-71120000D01*
X135661400Y-67310000D02*
X134391400Y-66040000D01*
X135661400Y-68961000D02*
X135661400Y-67310000D01*
X137820400Y-71120000D02*
X135661400Y-68961000D01*
X134391400Y-66040000D02*
X133350000Y-66040000D01*
X140970000Y-71120000D02*
X141097000Y-71120000D01*
X141097000Y-71120000D02*
X143764000Y-68453000D01*
X145669000Y-70612000D02*
X147447000Y-72390000D01*
X145669000Y-69342000D02*
X145669000Y-70612000D01*
X144780000Y-68453000D02*
X145669000Y-69342000D01*
X143764000Y-68453000D02*
X144780000Y-68453000D01*
D24*
X146812000Y-72390000D02*
X147447000Y-72390000D01*
D26*
G04 #@! TO.N,Net-(R15-Pad1)*
X140970000Y-66040000D02*
X139623800Y-66040000D01*
X138887200Y-65303400D02*
X138887200Y-60960000D01*
X139623800Y-66040000D02*
X138887200Y-65303400D01*
X130175000Y-60960000D02*
X138887200Y-60960000D01*
X138887200Y-60960000D02*
X144272000Y-60960000D01*
G04 #@! TO.N,Net-(D4-Pad2)*
X163372800Y-68249800D02*
X165303200Y-68249800D01*
X173736000Y-68707000D02*
X173736000Y-72263000D01*
X170688000Y-65659000D02*
X173736000Y-68707000D01*
X166624000Y-65659000D02*
X170688000Y-65659000D01*
X165989000Y-66294000D02*
X166624000Y-65659000D01*
X165989000Y-67564000D02*
X165989000Y-66294000D01*
X165303200Y-68249800D02*
X165989000Y-67564000D01*
X163068000Y-67945000D02*
X163372800Y-68249800D01*
X163068000Y-65760600D02*
X163068000Y-67945000D01*
X161442400Y-64135000D02*
X163068000Y-65760600D01*
X140970000Y-63500000D02*
X143637000Y-63500000D01*
X143637000Y-63500000D02*
X144272000Y-64135000D01*
X144272000Y-64135000D02*
X161442400Y-64135000D01*
G04 #@! TD*
M02*
